<svg width="1891" height="1891" viewBox="0 0 1891 1891" fill="none" xmlns="http://www.w3.org/2000/svg">
<path d="M1889.81 915.159C1889.76 914.091 1889.7 913.026 1889.67 911.953C1889.34 903.004 1888.89 894.07 1888.33 885.164C1888.3 884.469 1888.28 883.774 1888.24 883.093C1888.21 883.079 1888.2 883.064 1888.18 883.05C1856.18 390.026 1446.27 -3.86178e-05 945.159 -3.86178e-05C423.163 -3.86178e-05 0 423.157 0 945.159C0 1172.6 80.3539 1381.25 214.196 1544.35C214.196 1544.35 214.196 1544.35 214.198 1544.35C224.973 1557.47 236.098 1570.31 247.552 1582.83C247.891 1583.2 248.238 1583.56 248.578 1583.93C253.748 1589.56 258.987 1595.13 264.292 1600.64C265.4 1601.8 266.527 1602.93 267.643 1604.08C272.239 1608.8 276.876 1613.48 281.57 1618.12C282.981 1619.51 284.404 1620.88 285.825 1622.27C290.316 1626.64 294.85 1630.97 299.429 1635.27C300.951 1636.69 302.478 1638.11 304.009 1639.52C308.632 1643.8 313.305 1648.01 318.014 1652.2C319.469 1653.49 320.92 1654.79 322.384 1656.08C327.445 1660.51 332.558 1664.88 337.712 1669.21C338.835 1670.16 339.942 1671.12 341.07 1672.06C360.26 1688.02 380.087 1703.24 400.515 1717.67C401.648 1718.47 402.798 1719.24 403.931 1720.04C409.469 1723.92 415.041 1727.75 420.663 1731.49C422.475 1732.71 424.302 1733.89 426.122 1735.09C431.135 1738.39 436.175 1741.65 441.254 1744.87C443.358 1746.2 445.472 1747.51 447.589 1748.81C452.485 1751.85 457.41 1754.85 462.368 1757.8C464.569 1759.12 466.771 1760.43 468.985 1761.72C473.988 1764.64 479.03 1767.51 484.093 1770.35C486.244 1771.55 488.389 1772.76 490.551 1773.96C495.991 1776.95 501.476 1779.87 506.982 1782.75C508.754 1783.68 510.515 1784.64 512.296 1785.56C519.278 1789.16 526.31 1792.68 533.394 1796.12C533.705 1796.27 534.012 1796.43 534.325 1796.59C541.96 1800.28 549.655 1803.87 557.403 1807.36C558.226 1807.72 559.064 1808.07 559.888 1808.44C566.539 1811.41 573.226 1814.32 579.958 1817.15C582.188 1818.08 584.442 1818.97 586.684 1819.89C592.058 1822.1 597.446 1824.28 602.87 1826.39C605.568 1827.43 608.281 1828.44 610.992 1829.47C616.018 1831.37 621.056 1833.24 626.122 1835.06C629.034 1836.11 631.956 1837.12 634.883 1838.15C639.834 1839.87 644.806 1841.53 649.792 1843.18C652.775 1844.16 655.759 1845.13 658.754 1846.09C663.826 1847.69 668.923 1849.25 674.032 1850.77C676.931 1851.64 679.822 1852.53 682.734 1853.38C688.237 1854.96 693.774 1856.47 699.32 1857.96C701.847 1858.63 704.361 1859.35 706.896 1860C714.159 1861.89 721.462 1863.68 728.792 1865.4C729.619 1865.6 730.435 1865.82 731.264 1866C739.461 1867.91 747.705 1869.68 755.983 1871.36C758.3 1871.84 760.635 1872.25 762.958 1872.7C768.878 1873.85 774.803 1874.99 780.762 1876.04C783.865 1876.57 786.988 1877.07 790.103 1877.59C795.337 1878.46 800.573 1879.3 805.837 1880.07C809.211 1880.58 812.598 1881.03 815.983 1881.49C821.038 1882.19 826.099 1882.84 831.179 1883.46C834.679 1883.88 838.184 1884.28 841.699 1884.66C846.738 1885.2 851.794 1885.71 856.858 1886.17C860.371 1886.51 863.881 1886.83 867.398 1887.12C872.626 1887.53 877.852 1887.9 883.092 1888.24C886.466 1888.46 889.812 1888.7 893.185 1888.88C898.932 1889.19 904.692 1889.42 910.466 1889.62C913.346 1889.72 916.226 1889.87 919.119 1889.95C927.612 1890.18 936.119 1890.31 944.665 1890.31C944.826 1890.31 944.999 1890.32 945.159 1890.32C952.786 1890.32 960.372 1890.21 967.945 1890.03C970.372 1889.97 972.786 1889.87 975.213 1889.79C980.358 1889.63 985.512 1889.45 990.638 1889.2C993.491 1889.07 996.344 1888.91 999.182 1888.75C1003.9 1888.48 1008.62 1888.19 1013.31 1887.86C1016.27 1887.64 1019.21 1887.42 1022.16 1887.19C1026.82 1886.8 1031.47 1886.39 1036.12 1885.93C1038.97 1885.67 1041.83 1885.4 1044.66 1885.11C1049.67 1884.59 1054.67 1884 1059.67 1883.4C1062.08 1883.11 1064.5 1882.84 1066.91 1882.53C1074.13 1881.6 1081.33 1880.6 1088.51 1879.51C1090.38 1879.23 1092.23 1878.89 1094.1 1878.6C1099.47 1877.75 1104.86 1876.87 1110.2 1875.93C1113.2 1875.4 1116.17 1874.83 1119.15 1874.28C1123.35 1873.49 1127.53 1872.71 1131.72 1871.87C1134.99 1871.22 1138.24 1870.53 1141.51 1869.84C1145.37 1869.03 1149.23 1868.19 1153.06 1867.32C1156.44 1866.56 1159.81 1865.8 1163.16 1865C1166.88 1864.12 1170.57 1863.21 1174.26 1862.3C1177.67 1861.46 1181.07 1860.62 1184.47 1859.72C1188.12 1858.78 1191.74 1857.76 1195.39 1856.78C1198.75 1855.84 1202.14 1854.95 1205.48 1853.99C1210.54 1852.55 1215.55 1851.03 1220.56 1849.51C1225.75 1847.92 1230.94 1846.28 1236.09 1844.61C1239.03 1843.67 1242 1842.74 1244.94 1841.75C1248.85 1840.44 1252.73 1839.08 1256.63 1837.72C1259.41 1836.75 1262.19 1835.79 1264.95 1834.79C1268.93 1833.36 1272.89 1831.89 1276.84 1830.42C1279.43 1829.44 1282.01 1828.45 1284.6 1827.47C1288.69 1825.89 1292.75 1824.31 1296.81 1822.68C1299.08 1821.78 1301.34 1820.83 1303.6 1819.91C1307.92 1818.13 1312.25 1816.36 1316.52 1814.52C1317.82 1813.96 1319.14 1813.38 1320.44 1812.81C1336.43 1805.88 1352.17 1798.53 1367.69 1790.77C1368.78 1790.23 1369.85 1789.71 1370.93 1789.16C1375.58 1786.8 1380.23 1784.39 1384.83 1781.96C1386.33 1781.19 1387.79 1780.42 1389.25 1779.63C1389.53 1779.48 1389.8 1779.35 1390.08 1779.2C1394.36 1776.91 1398.62 1774.59 1402.83 1772.24C1404.22 1771.47 1405.6 1770.69 1406.98 1769.93C1411.64 1767.31 1416.3 1764.67 1420.91 1761.97C1421.74 1761.48 1422.57 1760.97 1423.41 1760.48C1430.36 1756.4 1437.22 1752.24 1444.06 1748C1444.52 1747.71 1444.99 1747.41 1445.45 1747.12C1459.32 1738.45 1472.95 1729.44 1486.33 1720.08C1486.6 1719.89 1486.86 1719.71 1487.14 1719.52C1489.57 1717.81 1491.96 1716.07 1494.38 1714.33C1494.84 1714 1495.3 1713.67 1495.77 1713.33C1497.65 1711.99 1499.53 1710.67 1501.4 1709.31C1502.14 1708.76 1502.88 1708.23 1503.63 1707.68C1508.24 1704.29 1512.83 1700.87 1517.37 1697.4C1518.05 1696.88 1518.72 1696.37 1519.39 1695.85C1520.14 1695.29 1520.86 1694.72 1521.62 1694.16C1521.95 1693.89 1522.3 1693.63 1522.64 1693.36C1523.4 1692.77 1524.15 1692.15 1524.9 1691.56C1527.75 1689.33 1530.62 1687.13 1533.46 1684.88L1533.33 1684.83C1533.46 1684.73 1533.58 1684.63 1533.69 1684.53C1539.51 1679.89 1545.28 1675.21 1551 1670.47C1557.38 1665.16 1563.72 1659.77 1569.97 1654.28C1570.49 1653.81 1571.01 1653.35 1571.53 1652.88C1580 1645.39 1588.3 1637.68 1596.49 1629.87C1610.34 1616.71 1623.83 1603.16 1636.85 1589.17C1637.54 1588.43 1638.24 1587.68 1638.93 1586.93C1652.57 1572.2 1665.75 1557.04 1678.44 1541.47C1679.07 1540.68 1679.71 1539.88 1680.35 1539.09C1686.14 1531.95 1691.82 1524.72 1697.39 1517.4C1697.99 1516.61 1698.59 1515.84 1699.19 1515.05C1711.15 1499.24 1722.62 1483.04 1733.59 1466.48C1734.49 1465.12 1735.39 1463.76 1736.29 1462.4C1741.4 1454.57 1746.42 1446.69 1751.33 1438.71C1751.53 1438.36 1751.76 1438.03 1751.97 1437.68C1757.19 1429.15 1762.26 1420.52 1767.22 1411.83C1767.88 1410.65 1768.52 1409.48 1769.17 1408.31C1773.35 1400.89 1777.44 1393.4 1781.42 1385.87C1782.27 1384.23 1783.16 1382.59 1784.01 1380.95C1793 1363.68 1801.48 1346.11 1809.4 1328.24C1810.25 1326.31 1811.09 1324.36 1811.94 1322.41C1815.23 1314.89 1818.42 1307.32 1821.5 1299.68C1822.14 1298.13 1822.79 1296.59 1823.41 1295.03C1827.03 1285.96 1830.51 1276.84 1833.84 1267.64C1834.35 1266.24 1834.82 1264.83 1835.32 1263.43C1838.11 1255.65 1840.79 1247.84 1843.37 1239.97C1844.13 1237.63 1844.9 1235.29 1845.64 1232.95C1848.36 1224.41 1850.98 1215.85 1853.49 1207.21C1853.69 1206.49 1853.92 1205.76 1854.13 1205.04C1856.8 1195.68 1859.3 1186.25 1861.68 1176.79C1862.26 1174.45 1862.83 1172.09 1863.41 1169.76C1865.23 1162.27 1866.96 1154.75 1868.61 1147.19C1869.13 1144.8 1869.65 1142.41 1870.16 1140.03C1872.17 1130.49 1874.04 1120.91 1875.74 1111.28C1875.96 1110.07 1876.15 1108.87 1876.35 1107.65C1877.83 1099.17 1879.16 1090.65 1880.41 1082.09C1880.81 1079.33 1881.19 1076.56 1881.58 1073.79C1882.65 1065.8 1883.64 1057.77 1884.53 1049.73C1884.75 1047.8 1884.98 1045.88 1885.19 1043.96C1886.2 1034.19 1887.05 1024.37 1887.78 1014.51C1887.95 1012.11 1888.08 1009.68 1888.23 1007.27C1888.73 999.479 1889.15 991.665 1889.47 983.838C1889.57 980.999 1889.69 978.172 1889.79 975.346C1890.11 965.32 1890.33 955.266 1890.33 945.159C1890.33 935.12 1890.12 925.12 1889.81 915.159Z" fill="#99D879"/>
<path d="M1889.79 915.181C1889.75 914.099 1889.7 913.034 1889.66 911.964C1889.34 903.004 1888.88 894.074 1888.33 885.172C1888.28 884.477 1888.27 883.782 1888.23 883.102C1888.2 883.087 1888.2 883.073 1888.18 883.058C1854.72 862.606 1834.42 833.555 1825.91 819.341C1824.39 816.475 1822.82 813.652 1821.22 810.844L1821.21 810.83C1760.86 705.396 1644.3 640.448 1515.34 653.736C1475.81 657.804 1438.44 668.92 1404.27 685.696C1399.74 662.479 1388 643.358 1369.34 632.647C1367.12 631.387 1364.84 630.345 1362.52 629.361C1365.17 563.501 1337.71 494.92 1282.56 446.112C1237.66 406.35 1182.72 387.214 1129.64 387.952L1129.7 387.793C1129.7 387.793 1128.91 387.895 1127.48 387.924C1126.77 387.924 1126.06 387.88 1125.37 387.909C1112.8 387.648 1075.82 382.524 1056.34 332.76L1056.24 332.905C1041.1 291.566 1014.07 253.338 976.006 224.374C878.032 149.859 745.055 164.71 678.975 257.536C676.974 260.344 675.326 263.311 673.491 266.192L673.294 266.003C639.609 318.619 586.364 305.592 569.204 299.628C568.037 299.179 566.866 298.774 565.698 298.34C564.43 297.833 563.575 297.471 563.575 297.471L563.437 297.587C477.262 266.51 381.907 290.741 329.149 364.851C291.41 417.872 283.769 484.846 302.32 546.436L302.233 546.522C332.982 635.021 289.579 655.763 289.579 655.763L289.671 656.009C270.413 668.616 253.09 684.669 238.959 704.528C172.88 797.354 198.736 933.021 296.694 1007.54C327.452 1030.93 361.656 1045.49 396.156 1051.62L395.851 1051.74C397.106 1051.81 398.212 1051.97 399.439 1052.05C401.848 1052.45 404.255 1052.77 406.662 1053.09C400.934 1062.42 397.575 1073.35 397.575 1085.09C397.575 1118.95 425.025 1146.41 458.887 1146.41C475.627 1146.41 490.784 1139.69 501.85 1128.81C512.395 1143.93 524.806 1158.14 539.256 1170.93C560.748 1189.95 584.556 1204.23 609.344 1213.94L574.703 1400.74L214.192 1544.35C214.192 1544.35 214.192 1544.35 214.194 1544.35C224.969 1557.47 236.094 1570.31 247.549 1582.83C247.887 1583.21 248.234 1583.57 248.574 1583.94C253.744 1589.57 258.984 1595.14 264.289 1600.65C265.397 1601.81 266.523 1602.94 267.64 1604.09C272.236 1608.81 276.874 1613.49 281.566 1618.13C282.977 1619.51 284.4 1620.89 285.82 1622.27C290.313 1626.65 294.847 1630.98 299.425 1635.27C300.948 1636.7 302.475 1638.11 304.005 1639.53C308.63 1643.81 313.3 1648.02 318.01 1652.21C319.467 1653.5 320.917 1654.79 322.38 1656.09C327.441 1660.51 332.555 1664.89 337.708 1669.22C338.831 1670.17 339.938 1671.13 341.066 1672.06C360.256 1688.02 380.081 1703.25 400.512 1717.67C401.644 1718.47 402.793 1719.25 403.928 1720.05C409.464 1723.93 415.037 1727.75 420.659 1731.5C422.47 1732.71 424.298 1733.9 426.117 1735.1C431.131 1738.41 436.17 1741.66 441.249 1744.87C443.354 1746.21 445.469 1747.51 447.585 1748.82C452.48 1751.86 457.406 1754.86 462.363 1757.81C464.565 1759.13 466.767 1760.43 468.98 1761.73C473.985 1764.65 479.025 1767.51 484.088 1770.35C486.239 1771.55 488.385 1772.77 490.547 1773.97C495.987 1776.95 501.471 1779.87 506.977 1782.75C508.749 1783.69 510.511 1784.65 512.291 1785.57C519.273 1789.17 526.305 1792.69 533.389 1796.13C533.7 1796.27 534.007 1796.43 534.32 1796.59C541.955 1800.29 549.65 1803.87 557.398 1807.37C558.221 1807.72 559.06 1808.07 559.884 1808.45C566.533 1811.42 573.221 1814.33 579.953 1817.15C582.183 1818.09 584.439 1818.98 586.679 1819.9C592.052 1822.1 597.441 1824.29 602.865 1826.39C605.563 1827.43 608.277 1828.45 610.986 1829.47C616.012 1831.38 621.051 1833.24 626.117 1835.06C629.029 1836.11 631.952 1837.13 634.877 1838.15C639.829 1839.87 644.801 1841.55 649.787 1843.18C652.769 1844.16 655.754 1845.14 658.749 1846.1C663.82 1847.71 668.917 1849.26 674.027 1850.78C676.926 1851.65 679.818 1852.54 682.73 1853.38C688.232 1854.97 693.769 1856.47 699.314 1857.96C701.841 1858.63 704.355 1859.35 706.891 1860.01C714.153 1861.9 721.456 1863.69 728.786 1865.4C729.612 1865.61 730.43 1865.82 731.258 1866.01C739.455 1867.91 747.698 1869.68 755.978 1871.37C758.294 1871.85 760.63 1872.26 762.953 1872.71C768.872 1873.86 774.798 1874.99 780.755 1876.05C783.859 1876.58 786.981 1877.07 790.096 1877.59C795.332 1878.46 800.568 1879.3 805.831 1880.07C809.205 1880.58 812.592 1881.03 815.977 1881.5C821.033 1882.19 826.093 1882.85 831.172 1883.46C834.672 1883.89 838.179 1884.29 841.691 1884.66C846.732 1885.2 851.788 1885.71 856.852 1886.18C860.365 1886.51 863.875 1886.83 867.392 1887.13C872.619 1887.54 877.846 1887.9 883.086 1888.25C886.46 1888.46 889.805 1888.7 893.179 1888.89C898.925 1889.19 904.686 1889.42 910.459 1889.62C913.339 1889.73 916.219 1889.87 919.111 1889.95C927.605 1890.18 936.112 1890.31 944.659 1890.31C944.818 1890.31 944.992 1890.33 945.151 1890.33C952.778 1890.33 960.366 1890.22 967.939 1890.03C970.365 1889.98 972.779 1889.87 975.205 1889.79C980.347 1889.63 985.514 1889.46 990.638 1889.21C993.49 1889.07 996.341 1888.91 999.178 1888.75C1003.9 1888.49 1008.62 1888.19 1013.31 1887.86C1016.26 1887.65 1019.21 1887.42 1022.15 1887.19C1026.82 1886.81 1031.47 1886.39 1036.12 1885.94C1038.97 1885.67 1041.82 1885.41 1044.66 1885.11C1049.67 1884.59 1054.66 1884 1059.65 1883.41C1062.07 1883.11 1064.5 1882.85 1066.91 1882.54C1074.13 1881.6 1081.32 1880.6 1088.5 1879.51C1090.37 1879.23 1092.24 1878.9 1094.1 1878.61C1099.47 1877.75 1104.84 1876.87 1110.18 1875.94C1113.2 1875.41 1116.16 1874.83 1119.14 1874.28C1123.34 1873.5 1127.52 1872.71 1131.71 1871.87C1134.98 1871.22 1138.24 1870.54 1141.49 1869.85C1145.36 1869.03 1149.22 1868.19 1153.06 1867.33C1156.43 1866.57 1159.8 1865.81 1163.15 1865.01C1166.87 1864.13 1170.56 1863.22 1174.26 1862.3C1177.67 1861.46 1181.05 1860.62 1184.45 1859.72C1188.12 1858.78 1191.73 1857.77 1195.38 1856.78C1198.74 1855.85 1202.13 1854.95 1205.47 1853.99C1210.52 1852.55 1215.55 1851.03 1220.55 1849.51C1225.75 1847.93 1230.93 1846.3 1236.09 1844.62C1239.04 1843.67 1241.99 1842.74 1244.94 1841.75C1248.85 1840.45 1252.73 1839.09 1256.62 1837.72C1259.4 1836.75 1262.18 1835.79 1264.95 1834.79C1268.93 1833.37 1272.88 1831.9 1276.83 1830.42C1279.42 1829.45 1282 1828.46 1284.59 1827.47C1288.67 1825.9 1292.75 1824.31 1296.81 1822.69C1299.06 1821.78 1301.34 1820.83 1303.59 1819.91C1307.91 1818.14 1312.24 1816.37 1316.51 1814.53C1317.82 1813.96 1319.13 1813.38 1320.43 1812.82C1336.42 1805.88 1352.17 1798.54 1367.69 1790.78C1368.76 1790.23 1369.85 1789.71 1370.93 1789.17C1375.58 1786.81 1380.22 1784.39 1384.83 1781.97C1386.32 1781.19 1387.78 1780.42 1389.24 1779.63C1389.52 1779.49 1389.79 1779.35 1390.07 1779.21C1394.35 1776.91 1398.61 1774.59 1402.83 1772.25C1404.22 1771.47 1405.6 1770.7 1406.96 1769.94C1411.63 1767.31 1416.28 1764.67 1420.9 1761.98C1421.74 1761.49 1422.56 1760.98 1423.4 1760.49C1430.35 1756.41 1437.23 1752.25 1444.04 1748.01C1444.51 1747.71 1444.98 1747.42 1445.45 1747.13C1459.31 1738.46 1472.93 1729.45 1486.32 1720.09C1486.6 1719.9 1486.86 1719.71 1487.12 1719.53C1489.55 1717.82 1491.95 1716.07 1494.37 1714.34C1494.83 1714.01 1495.3 1713.67 1495.76 1713.34C1497.64 1711.99 1499.52 1710.67 1501.39 1709.31C1502.13 1708.77 1502.87 1708.23 1503.62 1707.69C1508.24 1704.3 1512.81 1700.87 1517.37 1697.41C1518.05 1696.89 1518.72 1696.38 1519.38 1695.86C1520.12 1695.3 1520.86 1694.73 1521.6 1694.17C1521.93 1693.9 1522.28 1693.63 1522.63 1693.37C1523.39 1692.78 1524.13 1692.15 1524.9 1691.57C1527.75 1689.34 1530.62 1687.14 1533.44 1684.89L1533.32 1684.83C1533.44 1684.74 1533.57 1684.63 1533.68 1684.54C1539.5 1679.9 1545.28 1675.22 1551 1670.47C1557.38 1665.17 1563.7 1659.78 1569.96 1654.29C1570.46 1653.82 1570.99 1653.35 1571.52 1652.89C1579.99 1645.39 1588.28 1637.69 1596.49 1629.87C1610.33 1616.71 1623.82 1603.17 1636.85 1589.18C1637.54 1588.43 1638.23 1587.69 1638.93 1586.94C1652.56 1572.21 1665.74 1557.05 1678.43 1541.47C1679.07 1540.69 1679.7 1539.89 1680.34 1539.1C1686.13 1531.95 1691.81 1524.73 1697.38 1517.41C1697.97 1516.62 1698.58 1515.85 1699.17 1515.06C1711.14 1499.25 1722.61 1483.05 1733.58 1466.49C1734.49 1465.13 1735.37 1463.77 1736.27 1462.41C1741.4 1454.58 1746.42 1446.7 1751.33 1438.71C1751.53 1438.37 1751.75 1438.03 1751.96 1437.69C1757.17 1429.15 1762.25 1420.53 1767.2 1411.83C1767.87 1410.66 1768.51 1409.49 1769.16 1408.31C1773.36 1400.9 1777.44 1393.41 1781.4 1385.87C1782.27 1384.23 1783.15 1382.59 1784.01 1380.95C1793 1363.69 1801.45 1346.11 1809.4 1328.25C1810.24 1326.31 1811.09 1324.37 1811.93 1322.42C1815.22 1314.9 1818.4 1307.33 1821.5 1299.7C1822.12 1298.14 1822.77 1296.59 1823.41 1295.03C1827.01 1285.97 1830.5 1276.85 1833.83 1267.65C1834.34 1266.25 1834.82 1264.83 1835.31 1263.43C1838.1 1255.66 1840.78 1247.85 1843.36 1239.98C1844.12 1237.63 1844.89 1235.3 1845.63 1232.95C1848.35 1224.42 1850.98 1215.86 1853.47 1207.22C1853.69 1206.5 1853.91 1205.78 1854.11 1205.05C1856.79 1195.69 1859.28 1186.26 1861.67 1176.79C1862.26 1174.46 1862.82 1172.1 1863.39 1169.77C1865.21 1162.27 1866.95 1154.75 1868.58 1147.19C1869.11 1144.81 1869.64 1142.42 1870.15 1140.03C1872.15 1130.5 1874.03 1120.91 1875.73 1111.29C1875.95 1110.09 1876.14 1108.87 1876.34 1107.67C1877.82 1099.18 1879.15 1090.66 1880.4 1082.1C1880.8 1079.34 1881.18 1076.57 1881.57 1073.79C1882.64 1065.81 1883.62 1057.78 1884.52 1049.74C1884.74 1047.81 1884.98 1045.89 1885.17 1043.97C1886.19 1034.19 1887.04 1024.38 1887.76 1014.51C1887.94 1012.11 1888.07 1009.69 1888.21 1007.27C1888.72 999.487 1889.14 991.673 1889.46 983.847C1889.56 981.007 1889.69 978.18 1889.78 975.353C1890.09 965.327 1890.31 955.273 1890.31 945.166C1890.31 935.127 1890.11 925.126 1889.79 915.181Z" fill="#F46850"/>
<path d="M1889.79 915.181C1889.75 914.1 1889.7 913.034 1889.66 911.965C1889.34 903.005 1888.88 894.074 1888.33 885.172C1888.29 884.477 1888.27 883.782 1888.23 883.102C1888.2 883.088 1888.2 883.073 1888.18 883.059C1854.72 862.606 1834.43 833.555 1825.91 819.341C1824.39 816.475 1822.82 813.653 1821.22 810.845L1821.21 810.83C1760.87 705.397 1644.3 640.449 1515.35 653.737C1475.82 657.804 1438.44 668.921 1404.27 685.697C1410.22 716.151 1403.7 753.641 1383.74 788.423C1382.8 790.059 1381.76 791.579 1380.79 793.157C1377.75 792.693 1374.67 792.375 1371.48 792.375C1337.63 792.375 1310.18 819.833 1310.18 853.69C1310.18 854.486 1310.25 855.267 1310.3 856.063C1298.82 860.71 1287.24 863.228 1276.08 863.257L1294.16 937.14C1332.73 1094.87 1262.78 1253.67 1132.06 1335.1C1136.21 1343.54 1134.14 1355.71 1122.56 1359.58C1114.75 1362.19 1106.81 1364.63 1098.84 1366.98L1077.18 1483.74L1533.32 1684.83C1533.44 1684.74 1533.57 1684.63 1533.69 1684.54C1539.5 1679.9 1545.28 1675.22 1551 1670.47C1557.38 1665.17 1563.71 1659.78 1569.96 1654.29C1570.47 1653.82 1570.99 1653.35 1571.52 1652.89C1579.99 1645.39 1588.28 1637.69 1596.49 1629.87C1610.33 1616.71 1623.82 1603.17 1636.85 1589.18C1637.54 1588.43 1638.24 1587.69 1638.93 1586.94C1652.57 1572.21 1665.74 1557.05 1678.43 1541.47C1679.07 1540.69 1679.71 1539.89 1680.34 1539.1C1686.13 1531.95 1691.81 1524.73 1697.38 1517.41C1697.97 1516.62 1698.58 1515.85 1699.17 1515.06C1711.14 1499.25 1722.61 1483.05 1733.58 1466.49C1734.49 1465.13 1735.38 1463.77 1736.27 1462.41C1741.4 1454.58 1746.42 1446.7 1751.33 1438.71C1751.53 1438.37 1751.75 1438.03 1751.96 1437.69C1757.17 1429.15 1762.26 1420.53 1767.21 1411.83C1767.87 1410.66 1768.51 1409.49 1769.16 1408.31C1773.36 1400.9 1777.44 1393.41 1781.4 1385.87C1782.27 1384.23 1783.16 1382.59 1784.01 1380.95C1793 1363.69 1801.45 1346.11 1809.4 1328.25C1810.24 1326.31 1811.09 1324.37 1811.93 1322.42C1815.22 1314.9 1818.4 1307.33 1821.5 1299.7C1822.12 1298.14 1822.77 1296.59 1823.41 1295.03C1827.01 1285.97 1830.5 1276.85 1833.83 1267.65C1834.34 1266.25 1834.82 1264.83 1835.31 1263.43C1838.1 1255.66 1840.78 1247.85 1843.36 1239.98C1844.12 1237.63 1844.89 1235.3 1845.63 1232.95C1848.35 1224.42 1850.98 1215.86 1853.47 1207.22C1853.69 1206.5 1853.91 1205.78 1854.11 1205.05C1856.79 1195.69 1859.28 1186.26 1861.67 1176.79C1862.26 1174.46 1862.82 1172.1 1863.39 1169.77C1865.21 1162.27 1866.95 1154.75 1868.59 1147.19C1869.11 1144.81 1869.64 1142.42 1870.15 1140.03C1872.15 1130.5 1874.03 1120.91 1875.74 1111.29C1875.95 1110.09 1876.14 1108.87 1876.34 1107.67C1877.82 1099.18 1879.15 1090.66 1880.4 1082.1C1880.8 1079.34 1881.18 1076.57 1881.57 1073.79C1882.64 1065.81 1883.63 1057.78 1884.52 1049.74C1884.74 1047.81 1884.99 1045.89 1885.17 1043.97C1886.19 1034.19 1887.04 1024.38 1887.76 1014.51C1887.94 1012.11 1888.07 1009.69 1888.21 1007.27C1888.72 999.487 1889.14 991.674 1889.46 983.847C1889.56 981.007 1889.69 978.18 1889.78 975.354C1890.1 965.327 1890.31 955.273 1890.31 945.167C1890.31 935.127 1890.11 925.126 1889.79 915.181Z" fill="#9A3567"/>
<path d="M1218.04 626.1L1233.51 689.307C1267.58 637.532 1322.16 612.146 1362.52 629.368C1365.16 563.502 1337.72 494.925 1282.56 446.105C1237.66 406.358 1182.72 387.21 1129.65 387.956L1129.71 387.793C1129.71 387.793 1128.92 387.888 1127.48 387.916C1126.78 387.929 1126.06 387.875 1125.37 387.902C1112.81 387.644 1075.81 382.532 1056.34 332.763L1056.23 332.899C1041.1 291.565 1014.07 253.337 976.006 224.371C878.032 149.853 745.055 164.703 678.975 257.527C676.974 260.348 675.328 263.304 673.491 266.193L673.293 266.003C639.608 318.619 586.364 305.587 569.204 299.634C568.036 299.173 566.866 298.78 565.698 298.346C564.43 297.83 563.575 297.464 563.575 297.464L563.436 297.586C477.262 266.518 381.907 290.738 329.148 364.848C291.411 417.872 283.769 484.836 302.319 546.443L302.232 546.524C332.982 635.023 289.58 655.771 289.58 655.771L289.67 656.002C270.414 668.613 253.09 684.669 238.958 704.523C172.88 797.347 198.737 933.024 296.694 1007.54C327.453 1030.93 361.656 1045.49 396.157 1051.62L395.85 1051.74C397.106 1051.81 398.211 1051.96 399.44 1052.05C401.848 1052.45 404.255 1052.76 406.662 1053.09C400.934 1062.42 397.574 1073.35 397.574 1085.09C397.574 1118.95 425.025 1146.41 458.887 1146.41C475.628 1146.41 490.785 1139.69 501.851 1128.8C512.396 1143.93 524.807 1158.14 539.257 1170.93C560.749 1189.95 584.556 1204.23 609.344 1213.94L613.217 1193.05C600.041 1167.63 589.579 1140.3 582.475 1111.26L564.398 1037.38C548.26 1045.71 528.171 1048.82 506.649 1046.69C495.411 1032.73 478.203 1023.78 458.887 1023.78C453.425 1023.78 448.156 1024.56 443.117 1025.9C440.177 1024.25 437.241 1022.57 434.344 1020.71C374.851 982.576 348.368 917.741 375.193 875.892C400.58 836.267 464.612 831.507 521.837 863.43L506.375 800.222C503.841 789.875 501.879 779.515 500.268 769.181C547.162 714.68 619.389 742.493 619.389 742.493L619.264 742.195C696.506 765.913 780.442 746.195 833.238 683.815C866.487 644.515 881.5 595.1 879.687 545.209C879.66 544.015 879.806 542.89 879.687 541.683C870.072 438.837 926.427 407.375 926.427 407.375L926.278 407.199C941.426 397.313 955.475 385.325 967.72 370.856C969.619 368.618 971.382 366.299 973.158 363.994C1090.73 401.476 1186.57 497.461 1218.04 626.1Z" fill="#9A3567"/>
<path d="M1077.18 1483.74L1055.29 1601.79C1056.02 1604.78 1056.22 1607.7 1055.69 1610.54C1048.72 1648.21 930.529 1657.89 791.741 1632.15C652.949 1606.42 546.099 1555.01 553.086 1517.34C553.117 1517.17 553.189 1517.02 553.222 1516.85H553.177L574.706 1400.74L214.195 1544.35C214.195 1544.35 214.195 1544.35 214.197 1544.35C224.971 1557.47 236.097 1570.31 247.551 1582.83C247.889 1583.21 248.237 1583.57 248.577 1583.94C253.747 1589.57 258.986 1595.14 264.291 1600.65C265.399 1601.81 266.526 1602.94 267.642 1604.09C272.238 1608.81 276.875 1613.49 281.569 1618.13C282.979 1619.51 284.403 1620.89 285.823 1622.27C290.315 1626.65 294.849 1630.98 299.427 1635.27C300.95 1636.7 302.477 1638.11 304.007 1639.53C308.631 1643.81 313.303 1648.02 318.013 1652.21C319.469 1653.5 320.919 1654.79 322.383 1656.09C327.443 1660.51 332.557 1664.89 337.71 1669.22C338.834 1670.17 339.941 1671.13 341.069 1672.06C360.258 1688.02 380.086 1703.25 400.514 1717.67C401.646 1718.47 402.795 1719.25 403.93 1720.05C409.467 1723.93 415.039 1727.75 420.662 1731.5C422.473 1732.71 424.301 1733.9 426.121 1735.1C431.134 1738.41 436.173 1741.66 441.253 1744.87C443.357 1746.21 445.471 1747.51 447.587 1748.82C452.483 1751.86 457.409 1754.86 462.366 1757.81C464.567 1759.13 466.77 1760.43 468.983 1761.73C473.987 1764.65 479.029 1767.51 484.091 1770.35C486.242 1771.55 488.387 1772.77 490.55 1773.97C495.99 1776.95 501.474 1779.87 506.979 1782.75C508.753 1783.69 510.513 1784.65 512.294 1785.57C519.277 1789.17 526.309 1792.69 533.391 1796.13C533.703 1796.27 534.01 1796.43 534.322 1796.59C541.958 1800.29 549.653 1803.87 557.401 1807.37C558.223 1807.73 559.062 1808.07 559.886 1808.45C566.537 1811.42 573.223 1814.33 579.955 1817.15C582.186 1818.09 584.441 1818.98 586.682 1819.9C592.055 1822.1 597.443 1824.29 602.867 1826.39C605.566 1827.43 608.279 1828.45 610.99 1829.47C616.015 1831.38 621.053 1833.25 626.119 1835.06C629.033 1836.11 631.954 1837.13 634.881 1838.15C639.831 1839.87 644.803 1841.55 649.79 1843.18C652.773 1844.17 655.757 1845.14 658.751 1846.1C663.823 1847.71 668.921 1849.26 674.03 1850.78C676.929 1851.65 679.821 1852.54 682.733 1853.38C688.235 1854.97 693.771 1856.47 699.317 1857.97C701.845 1858.63 704.358 1859.35 706.894 1860.01C714.157 1861.9 721.459 1863.69 728.789 1865.41C729.615 1865.61 730.433 1865.82 731.261 1866.01C739.458 1867.91 747.702 1869.69 755.981 1871.37C758.297 1871.85 760.633 1872.26 762.955 1872.71C768.874 1873.86 774.801 1874.99 780.758 1876.05C783.862 1876.58 786.985 1877.07 790.099 1877.59C795.334 1878.46 800.571 1879.3 805.834 1880.07C809.209 1880.58 812.595 1881.03 815.981 1881.5C821.035 1882.19 826.097 1882.85 831.175 1883.46C834.675 1883.89 838.182 1884.29 841.694 1884.66C846.735 1885.21 851.791 1885.71 856.855 1886.18C860.367 1886.51 863.878 1886.83 867.395 1887.13C872.622 1887.54 877.849 1887.9 883.089 1888.25C886.462 1888.46 889.809 1888.7 893.182 1888.89C898.929 1889.19 904.689 1889.42 910.462 1889.62C913.342 1889.73 916.222 1889.87 919.115 1889.95C927.609 1890.18 936.115 1890.31 944.662 1890.31C944.822 1890.31 944.995 1890.33 945.155 1890.33C952.782 1890.33 960.369 1890.22 967.942 1890.03C970.369 1889.98 972.782 1889.87 975.209 1889.79C980.355 1889.63 985.515 1889.46 990.635 1889.21C993.489 1889.07 996.342 1888.91 999.182 1888.75C1003.9 1888.49 1008.62 1888.19 1013.32 1887.86C1016.26 1887.65 1019.21 1887.42 1022.16 1887.19C1026.82 1886.81 1031.48 1886.39 1036.12 1885.94C1038.97 1885.67 1041.82 1885.41 1044.66 1885.11C1049.68 1884.59 1054.66 1884.01 1059.66 1883.41C1062.08 1883.11 1064.5 1882.85 1066.9 1882.54C1074.13 1881.61 1081.33 1880.61 1088.5 1879.51C1090.37 1879.23 1092.24 1878.9 1094.1 1878.61C1099.48 1877.75 1104.85 1876.87 1110.2 1875.94C1113.2 1875.41 1116.17 1874.83 1119.14 1874.29C1123.34 1873.5 1127.53 1872.71 1131.72 1871.87C1134.98 1871.22 1138.24 1870.54 1141.5 1869.85C1145.37 1869.03 1149.22 1868.19 1153.06 1867.33C1156.44 1866.57 1159.81 1865.81 1163.16 1865.01C1166.88 1864.13 1170.57 1863.22 1174.26 1862.3C1177.66 1861.46 1181.06 1860.62 1184.46 1859.73C1188.12 1858.78 1191.74 1857.77 1195.38 1856.78C1198.74 1855.85 1202.13 1854.95 1205.48 1853.99C1210.53 1852.55 1215.54 1851.03 1220.56 1849.51C1225.76 1847.93 1230.93 1846.3 1236.09 1844.62C1239.04 1843.67 1242 1842.74 1244.94 1841.75C1248.85 1840.45 1252.73 1839.09 1256.62 1837.73C1259.41 1836.75 1262.18 1835.79 1264.96 1834.79C1268.93 1833.37 1272.89 1831.9 1276.84 1830.42C1279.42 1829.45 1282.01 1828.46 1284.6 1827.47C1288.68 1825.9 1292.76 1824.31 1296.81 1822.69C1299.08 1821.78 1301.34 1820.83 1303.6 1819.91C1307.92 1818.14 1312.24 1816.37 1316.52 1814.53C1317.82 1813.97 1319.13 1813.38 1320.44 1812.82C1336.42 1805.89 1352.17 1798.54 1367.69 1790.78C1368.77 1790.23 1369.85 1789.71 1370.93 1789.17C1375.58 1786.81 1380.22 1784.39 1384.84 1781.97C1386.32 1781.19 1387.78 1780.42 1389.25 1779.63C1389.52 1779.5 1389.78 1779.34 1390.06 1779.19C1390.44 1778.99 1390.82 1778.78 1391.21 1778.57C1395.1 1776.49 1398.98 1774.38 1402.84 1772.25C1404.22 1771.47 1405.6 1770.7 1406.97 1769.94C1409.89 1768.3 1412.78 1766.63 1415.68 1764.95C1416.69 1764.38 1417.7 1763.81 1418.7 1763.23C1419.44 1762.81 1420.17 1762.39 1420.9 1761.98C1421.74 1761.49 1422.57 1760.98 1423.41 1760.49C1429.96 1756.65 1436.44 1752.7 1442.88 1748.7C1444.32 1747.81 1445.74 1746.91 1447.17 1746.01C1460.44 1737.67 1473.52 1729.05 1486.33 1720.09C1486.6 1719.9 1486.86 1719.71 1487.13 1719.53C1489.56 1717.82 1491.96 1716.07 1494.37 1714.34C1494.84 1714.01 1495.3 1713.67 1495.77 1713.34C1496.82 1712.59 1497.86 1711.85 1498.9 1711.1C1499.73 1710.5 1500.57 1709.91 1501.4 1709.31C1502.13 1708.77 1502.88 1708.23 1503.62 1707.69C1508.24 1704.3 1512.82 1700.87 1517.37 1697.41C1518.05 1696.89 1518.72 1696.38 1519.38 1695.86C1519.84 1695.51 1520.29 1695.15 1520.74 1694.81C1522.13 1693.74 1523.52 1692.65 1524.9 1691.57C1527.76 1689.34 1530.62 1687.14 1533.45 1684.89L1533.33 1684.83L1077.18 1483.74Z" fill="#5D4CAA"/>
<path d="M1113.73 1327.5C1028.85 1355.91 930.888 1371.41 846.488 1332.85C838.324 1329.13 828.587 1330.53 823.735 1338.82C819.552 1345.97 821.492 1357.82 829.702 1361.57C915.048 1400.57 1010.79 1392.86 1098.83 1366.98C1106.81 1364.63 1114.74 1362.19 1122.57 1359.58C1134.14 1355.71 1136.21 1343.54 1132.06 1335.1C1128.97 1328.81 1122.43 1324.59 1113.73 1327.5Z" fill="#D25142"/>
<path d="M517.127 972.859C517.148 972.686 517.172 972.486 517.208 972.179C517.918 970.619 517.54 971.699 517.127 972.859ZM487.475 939.126L487.646 938.886C488.976 937.059 488.279 938.192 487.475 939.126ZM452.259 888.686C435.374 890.766 420.82 898.126 411.196 912.499C406.344 919.752 409.554 931.232 417.163 935.259C425.54 939.686 434.738 937.019 439.916 929.286C440.046 929.099 440.102 929.019 440.195 928.872C440.515 928.512 440.824 928.152 441.162 927.806C441.64 927.312 442.167 926.872 442.676 926.406C443.06 926.152 444.116 925.339 444.587 925.059C445.146 924.726 447.539 923.699 447.8 923.512C449.836 922.859 451.882 922.312 453.971 921.792C454.214 921.739 454.319 921.699 454.466 921.659C454.734 921.659 455.111 921.646 455.743 921.606C456.995 921.512 458.251 921.512 459.506 921.512C456.503 925.632 453.731 929.939 451.538 934.646C445.15 948.339 441.548 963.232 442.391 978.432C442.872 987.099 449.696 995.486 459.022 995.059C467.619 994.672 476.167 987.739 475.651 978.432C475.49 975.512 475.472 972.606 475.659 969.699C475.742 968.406 475.942 967.112 476.011 965.819C475.732 971.099 475.956 966.432 476.239 964.966C476.792 962.112 477.516 959.286 478.4 956.499C478.843 955.112 479.323 953.739 479.846 952.379C479.899 952.232 479.955 952.099 480.012 951.952C480.083 951.806 480.152 951.646 480.258 951.432C481.422 948.926 482.72 946.499 484.147 944.139C484.903 942.886 485.696 941.672 486.523 940.472L487.439 939.179C489.226 937.326 490.783 935.232 492.618 933.406C492.803 933.219 493.006 933.046 493.194 932.872C493.946 933.366 494.76 933.766 495.496 934.286C495.915 934.579 496.322 934.886 496.732 935.192C496.894 935.326 497.208 935.579 497.807 936.059C498.966 937.099 500.158 938.099 501.291 939.166C503.7 941.432 505.916 943.872 508.039 946.406C508.418 946.899 509.052 947.712 509.33 948.112C510.126 949.272 510.891 950.459 511.616 951.659C512.56 953.232 513.34 954.872 514.238 956.472C514.39 956.739 514.475 956.872 514.567 957.019C514.607 957.139 514.62 957.192 514.676 957.352C515.66 960.179 516.402 962.966 517.115 965.859C517.139 965.966 517.148 965.979 517.168 966.059C517.171 966.139 517.166 966.152 517.167 966.246C517.19 967.432 517.298 968.592 517.282 969.779C517.272 970.552 517.238 971.339 517.179 972.112C517.142 972.472 517.115 972.752 517.098 972.939C516.874 973.566 516.646 974.192 516.58 974.432C516.419 974.992 515.951 976.019 515.788 976.406C515.383 977.179 514.998 977.966 514.532 978.726C509.97 986.139 512.68 997.352 520.498 1001.47C528.619 1005.77 538.382 1003.43 543.252 995.512C558.126 971.326 547.967 942.219 531.04 922.206C512.615 900.406 481.122 885.139 452.259 888.686Z" fill="#D25142"/>
<path d="M1320.14 757.311L1320.84 758.271C1320.18 757.444 1319.1 755.871 1320.14 757.311ZM1353.85 681.471C1320.21 663.017 1282.85 687.484 1264.84 716.284C1245.94 746.484 1241.02 795.617 1275.97 816.644C1283.44 821.124 1294.57 818.551 1298.73 810.671C1302.98 802.617 1300.73 792.71 1292.76 787.924C1292.21 787.604 1291.68 787.257 1291.16 786.911C1290.3 785.964 1289.24 785.057 1288.34 784.19C1288.22 784.07 1288.17 784.03 1288.09 783.95C1288.01 783.817 1287.98 783.737 1287.88 783.537C1287.28 782.431 1286.6 781.257 1285.93 780.19C1285.77 779.857 1285.66 779.631 1285.57 779.444C1285.49 779.191 1285.38 778.937 1285.3 778.684C1284.85 777.15 1284.34 775.644 1283.98 774.084C1283.86 773.577 1283.6 771.964 1283.5 771.484C1283.41 770.51 1283.3 769.537 1283.26 768.564C1283.2 767.07 1283.2 765.564 1283.24 764.057C1283.25 763.67 1283.41 761.297 1283.46 760.257C1283.6 759.63 1284.09 756.484 1284.2 755.99C1284.53 754.377 1284.93 752.777 1285.38 751.19C1286.93 745.657 1288.3 742.137 1290.82 737.644C1292.97 738.257 1295.05 739.044 1297.14 739.857C1300.48 741.404 1303.73 743.111 1306.82 745.137C1307.73 745.724 1308.64 746.351 1309.52 746.977L1309.74 747.15C1311.41 748.564 1313.08 749.937 1314.65 751.457C1316.21 752.977 1317.72 754.564 1319.16 756.204C1319.62 756.751 1320.4 758.111 1321.06 758.577L1321.1 758.63C1323.78 762.43 1326.06 766.471 1327.97 770.711C1329.58 774.271 1334.3 777.364 1337.92 778.35C1341.89 779.444 1347.2 778.951 1350.73 776.671C1354.28 774.391 1357.4 770.977 1358.37 766.737C1359.42 762.124 1358.62 758.217 1356.69 753.924C1348.62 736.03 1333.53 721.07 1315.76 711.99C1316.64 711.51 1317.52 711.031 1318.42 710.577C1318.6 710.497 1318.65 710.457 1318.76 710.39C1318.94 710.35 1319.09 710.324 1319.38 710.23C1320.64 709.884 1321.85 709.43 1323.1 709.097C1324.33 708.777 1325.57 708.564 1326.8 708.284C1322.33 709.297 1327.29 708.297 1328.48 708.271C1329.65 708.257 1330.82 708.324 1332 708.377C1332.1 708.417 1332.14 708.43 1332.29 708.484C1333.37 708.804 1334.48 709.111 1335.56 709.404C1336.06 709.657 1336.57 709.897 1337.06 710.19C1344.69 714.364 1355.54 712.31 1359.81 704.217C1363.93 696.43 1362 685.937 1353.85 681.471Z" fill="#D25142"/>
<path d="M1090.37 830.99C1087.07 828.47 1083.77 825.964 1080.46 823.457C1065.66 812.19 1050.85 800.924 1036.05 789.657C1024.87 781.164 1013.71 772.67 1002.54 764.164C995.394 758.724 983.928 763.044 979.781 770.137C974.794 778.684 978.581 787.43 985.754 792.884C1008.73 810.377 1031.71 827.857 1054.69 845.337C1059.66 849.124 1064.63 852.91 1069.61 856.697C1070.78 857.59 1072.02 858.444 1073.15 859.39C1073.97 860.07 1073.93 860.497 1072.1 858.644C1074.35 860.924 1076.3 862.71 1077.55 865.777C1082.51 877.95 1069.71 889.95 1062.5 899.417C1052.79 912.177 1043.09 924.924 1033.39 937.684C1027.94 944.83 1032.27 956.284 1039.35 960.43C1047.9 965.43 1056.65 961.644 1062.11 954.47C1071.19 942.537 1080.27 930.59 1089.35 918.657C1100.94 903.444 1113.37 889.47 1111.77 868.737C1110.58 853.07 1102.65 840.404 1090.37 830.99Z" fill="#D25142"/>
<path d="M974.769 1015.71C964.129 1018.74 954.662 1019.84 943.529 1019.23C938.329 1018.95 934.316 1018.35 929.089 1017.11C926.329 1016.46 923.609 1015.68 920.916 1014.82C919.569 1014.38 918.236 1013.91 916.916 1013.42C915.022 1012.64 914.636 1012.51 915.782 1013.04C907.396 1009.62 898.342 1003.94 892.769 999.204C889.036 996.044 885.529 992.631 882.262 988.977C878.942 985.271 877.822 983.737 874.862 979.231C869.942 971.737 860.144 968.564 852.106 973.271C844.65 977.631 841.192 988.484 846.141 996.017C875.809 1041.24 931.276 1062.66 983.609 1047.78C1004.16 1041.94 995.422 1009.84 974.769 1015.71Z" fill="#D25142"/>
<path d="M1085.58 721.113C1094.14 717.993 1097.11 704.62 1092.23 691.26C1087.34 677.9 1076.43 669.593 1067.87 672.726C1059.33 675.86 1056.35 689.233 1061.23 702.593C1066.13 715.953 1077.02 724.247 1085.58 721.113Z" fill="#050606"/>
<path d="M851.492 778.551C860.051 775.431 863.026 762.057 858.138 748.684C853.248 735.324 842.349 727.031 833.79 730.164C825.231 733.297 822.258 746.671 827.146 760.031C832.035 773.391 842.935 781.684 851.492 778.551Z" fill="#050606"/>
<path d="M506.649 1046.68C495.412 1032.72 478.204 1023.78 458.888 1023.78C453.425 1023.78 448.157 1024.56 443.117 1025.9C427.749 1029.99 414.782 1039.86 406.662 1053.08C400.934 1062.42 397.574 1073.35 397.574 1085.08C397.574 1118.95 425.025 1146.4 458.888 1146.4C475.628 1146.4 490.785 1139.68 501.85 1128.8C513.168 1117.68 520.202 1102.22 520.202 1085.08C520.202 1070.55 515.113 1057.2 506.649 1046.68Z" fill="#FFEBEB"/>
<path d="M1310.18 853.685C1310.18 854.485 1310.26 855.272 1310.3 856.059C1311.55 888.819 1338.43 915.005 1371.49 915.005C1405.35 915.005 1432.81 887.552 1432.81 853.685C1432.81 822.992 1410.23 797.645 1380.79 793.152C1377.75 792.699 1374.66 792.379 1371.49 792.379C1337.63 792.379 1310.18 819.832 1310.18 853.685Z" fill="#FFEBEB"/>
</svg>
