<svg fill="none" height="640" viewBox="0 0 1220 640" width="1220" xmlns="http://www.w3.org/2000/svg" xmlns:xlink="http://www.w3.org/1999/xlink"><clipPath id="a"><path d="m0 0h1220v640h-1220z"/></clipPath><g clip-path="url(#a)" fill="#352c15"><path d="m58.2088 116.26-52.15997 13.977 2.32937 8.693 52.16-13.976z"/><path clip-rule="evenodd" d="m12.0524 141.051 46.3645-12.423 7.7645 28.978-46.3644 12.423zm19.7161 4.035c-.4289-1.601.5209-3.246 2.1213-3.674l5.7955-1.553c1.6004-.429 3.2455.521 3.6743 2.121s-.5209 3.245-2.1213 3.674l-5.7956 1.553c-1.6004.429-3.2454-.521-3.6742-2.121z" fill-rule="evenodd"/><path clip-rule="evenodd" d="m136.449 95.2958c-.857-3.2008-4.147-5.1003-7.348-4.2427-3.201.8577-5.101 4.1477-4.243 7.3485.858 3.2004 4.148 5.1004 7.349 4.2424 3.2-.857 5.1-4.1474 4.242-7.3482zm6.667 13.2772c4.41-1.693 8.345-3.679 11.804-5.963l-3.306-5.0067-1.088.6963c-4.796 2.9744-10.642 5.3934-17.543 7.2424-7.432 1.991-14.135 2.799-20.105 2.441l-.359 5.989 1.34.063c3.745.126 7.699-.142 11.865-.802l8.66 32.31 5.795-1.553-3.882-14.489 5.795-1.553 3.883 14.489 5.795-1.553z" fill-rule="evenodd"/><path clip-rule="evenodd" d="m229.954 67.5479c.523.1374 1 .4124 1.38.7963l34.014 34.3158c1.176 1.187 1.167 3.102-.02 4.278-.375.37-.839.637-1.347.773l-46.313 12.409c-1.615.433-3.274-.524-3.706-2.138-.136-.508-.138-1.043-.004-1.552l12.299-46.7254c.426-1.6158 2.081-2.5814 3.697-2.1567zm7.571 34.0521c-2.001.536-3.188 2.592-2.652 4.593.536 2 2.592 3.188 4.593 2.652 2-.536 3.187-2.593 2.651-4.593-.536-2.001-2.592-3.188-4.592-2.652zm-8.139-18.7835 5.795-1.5529 3.883 14.4889-5.796 1.5529z" fill-rule="evenodd"/><path clip-rule="evenodd" d="m307.057 71.3222c-3.859-14.4036 4.689-29.2087 19.092-33.0681 14.404-3.8595 29.209 4.6883 33.068 19.0919 3.86 14.4035-4.688 29.2086-19.091 33.0681-14.404 3.8594-29.209-4.6883-33.069-19.0919zm5.796-1.5529c-.699-2.6073-.875-5.2314-.592-7.7612 2.356 1.2003 6.501 3.072 8.509 2.534l5.795-1.5529c2.898-.7765 3.765-3.338 4.631-5.8996.867-2.5615 1.733-5.1231 4.631-5.8996 1.449-.3882 2.51-2.2253 2.121-3.6742l-1.029-3.8435c7.725 1.4193 14.335 7.1348 16.503 15.2266 1.155 4.3097.881 8.6656-.53 12.5653l-5.058 1.3552c-1.665.4461-2.999-1.6575-4.296-3.7024-1.227-1.934-2.42-3.8155-3.829-3.4381l-11.591 3.1059c-5.225 1.4-.978 5.1007 2.658 8.2696 1.814 1.5809 3.476 3.0294 3.734 3.9939l1.11 4.1412c-10.207 1.2279-20.029-5.2013-22.767-15.4202z" fill-rule="evenodd"/><path clip-rule="evenodd" d="m406.804 37.8906 18.647-23.1384 27.717 10.7151 7.888 29.4377-46.364 12.4233zm25.635 2.9416c3.2-.8576 5.1-4.1477 4.242-7.3485-.857-3.2008-4.147-5.1003-7.348-4.2426-3.201.8576-5.1 4.1477-4.243 7.3485.858 3.2008 4.148 5.1003 7.349 4.2426zm13.532 4.1386s-4.063-3.5702-12.756-1.2408-10.426 7.4525-10.426 7.4525l1.941 7.2444 23.182-6.2116z" fill-rule="evenodd"/><path d="m557.046 7.45656-8.485 14.69694-14.697-8.4853 3-5.19614 5.826 3.36254-.913-3.40565c-1.715-6.40159-8.295-10.20058-14.697-8.4852788l-2.897.7764568-1.553-5.795558 2.898-.77645c9.602-2.57296 19.472 3.12553 22.045 12.72792l.912 3.40566 3.365-5.82514z"/><path d="m526.512 9.41346-14.697-8.485281-8.485 14.696921 5.196 3 3.364-5.8251.91 3.3935c2.573 9.6024 12.443 15.3009 22.045 12.7279l2.898-.7764-1.553-5.7956-2.898.7765c-6.402 1.7153-12.982-2.0837-14.697-8.4853l-.909-3.3936 5.826 3.3626z"/><path clip-rule="evenodd" d="m615.415 16.651 5.587-6.1559 7.916 2.5376 5.587-6.15584 7.917 2.53752 5.616-6.16358 7.946 2.52976-10.871-40.56886-14.697-8.4853-28.978 7.7646zm-1.401-40.0005 23.182-6.2117 1.553 5.7956-23.182 6.2116zm20.493 6.9323-17.387 4.6588 1.553 5.79555 17.387-4.65875z" fill-rule="evenodd"/><path clip-rule="evenodd" d="m76.6915 220.012-1.5529-5.796-34.7734 9.317 1.5529 5.796zm-2.1213 3.674 5.4352 20.284-28.9778 7.765-5.4352-20.285zm-8.5893 8.513-8.6934 2.329c-.8002.215-1.2751 1.037-1.0606 1.837.1905.712.8616 1.166 1.5704 1.107l.2667-.046 8.6933-2.329c.8002-.215 1.2751-1.037 1.0607-1.837-.2144-.801-1.0369-1.276-1.8371-1.061z" fill-rule="evenodd"/><path clip-rule="evenodd" d="m161.011 192.76c-.643-2.401-3.111-3.825-5.511-3.182-2.401.643-3.826 3.11-3.182 5.511.643 2.401 3.11 3.825 5.511 3.182s3.825-3.111 3.182-5.511zm12.021 7.575-2.773-5.321-1.466.74c-3.434 1.675-6.959 2.997-10.576 3.966-4.134 1.108-8.393 1.756-12.781 1.946l.259 5.994 1.802-.102c2.161-.151 4.295-.405 6.403-.762l5.122 19.108 4.346-1.165-2.329-8.693 2.898-.776 2.329 8.693 4.347-1.165-5.121-19.108c2.559-.951 5.073-2.069 7.54-3.355z" fill-rule="evenodd"/><path clip-rule="evenodd" d="m255.867 164.298c.505.136.965.402 1.335.77l21.173 21.085c1.174 1.169 1.178 3.069.009 4.243-.373.374-.838.644-1.349.781l-28.968 7.762c-1.601.429-3.246-.521-3.675-2.122-.136-.51-.136-1.048.002-1.559l7.795-28.847c.432-1.599 2.079-2.545 3.678-2.113zm4.175 21.338c-2.001.536-3.188 2.592-2.652 4.593.536 2 2.593 3.188 4.593 2.651 2.001-.536 3.188-2.592 2.652-4.592-.536-2.001-2.593-3.188-4.593-2.652zm-6.586-12.988 5.796-1.553 2.717 10.142-5.795 1.553z" fill-rule="evenodd"/><path clip-rule="evenodd" d="m361.866 171.552c9.603-2.573 15.301-12.443 12.728-22.046-2.573-9.602-12.443-15.3-22.045-12.727-9.603 2.572-15.301 12.443-12.728 22.045s12.443 15.301 22.045 12.728zm6.935-14.282c.529-1.969.563-4.099-.002-6.211-1.15-4.29-4.485-7.411-8.486-8.487l.361 1.347c.388 1.449-.673 3.286-2.122 3.674s-1.979 1.307-2.509 2.226c-.53.918-1.061 1.837-2.51 2.225l-4.346 1.165c-.888.237-2.612-.467-3.814-1.048-.281 1.65-.218 3.387.243 5.11 1.448 5.401 6.358 8.949 11.702 8.897l-.679-2.533c-.165-.617-.925-1.507-1.767-2.491-1.983-2.322-4.417-5.17-.562-6.202l7.244-1.942c.725-.194 1.837 1.061 2.95 2.316s2.225 2.509 2.95 2.315z" fill-rule="evenodd"/><path clip-rule="evenodd" d="m451.073 110.379 20.789 8.037 5.915 22.078-8.693 2.329-1.553-5.795s-3.674-2.122-9.47-.569c-5.795 1.553-7.917 5.227-7.917 5.227l1.553 5.796-8.693 2.329-5.916-22.078zm10.454 15.834c.858 3.201-1.041 6.491-4.242 7.348-3.201.858-6.491-1.042-7.349-4.242-.857-3.201 1.042-6.491 4.243-7.349 3.201-.857 6.491 1.042 7.348 4.243z" fill-rule="evenodd"/><path d="m566.056 110.628 6.364-11.0228-5.796 1.5528-1.553-5.7954c-1.286-4.8012-6.221-7.6504-11.023-6.364l-5.795 1.553 7.348 4.2426c1.601-.4288 3.246.5209 3.675 2.1213l1.552 5.7955-5.795 1.553z"/><path d="m549.237 105.817-1.553-5.796 5.796-1.5526-11.023-6.3639-6.364 11.0225 5.796-1.553 1.553 5.796c1.286 4.801 6.221 7.65 11.022 6.364l5.796-1.553-7.348-4.243c-1.601.429-3.246-.521-3.675-2.121z"/><path clip-rule="evenodd" d="m645.849 95.4594 4.631-5.8996 6.96 2.7937 4.631-5.8995 6.96 2.7937-7.376-27.5289-9.186-5.3033-15.938 4.2705zm-1.193-27.6329 11.591-3.1059 1.553 5.7956-11.591 3.1058zm11.023 6.3639-8.693 2.3294 1.552 5.7955 8.694-2.3293z" fill-rule="evenodd"/><path d="m756.089 38.4971c.006-.6643-.077-1.3404-.257-2.0133-1.072-4.001-5.185-6.3754-9.186-5.3033-4.001 1.072-6.375 5.1845-5.303 9.1855.18.673.447 1.2999.784 1.8722-2.416 1.7769-3.624 4.9142-2.801 7.9859 1.072 4.001 5.184 6.3753 9.185 5.3033.497-.133.968-.3127 1.41-.5332l1.592 5.9405-11.591 3.1058 1.553 5.7956 28.978-7.7646-1.553-5.7956-11.591 3.1059-1.592-5.9405c.494-.0304.991-.1104 1.488-.2433 4.001-1.0721 6.375-5.1846 5.303-9.1856-.823-3.0716-3.438-5.1845-6.419-5.5153z"/><g clip-rule="evenodd" fill-rule="evenodd"><path d="m852.519 9.02369c6.402-1.7153 12.982 2.08371 14.697 8.48531 1.716 6.4016-2.083 12.9816-8.485 14.6969-2.111.5658-4.242.5316-6.211.0021-1.438 1.4418-3.268 2.5377-5.38 3.1037-6.402 1.7153-12.982-2.0836-14.697-8.4852s2.084-12.9817 8.485-14.697c2.113-.566 4.245-.5316 6.215-.0012 1.437-1.4439 3.265-2.53886 5.376-3.10461zm-10.038 8.90141c-3.201.8576-5.1 4.1477-4.242 7.3484.857 3.2008 4.147 5.1003 7.348 4.2427.501-.1344.971-.3284 1.403-.5724-1.373-1.415-2.41-3.1875-2.956-5.2232-.545-2.0357-.533-4.0894-.057-5.999-.491.0024-.994.0691-1.496.2035zm10.189-2.5335c.431-.244.901-.438 1.402-.5724 3.201-.8576 6.491 1.0419 7.349 4.2427.857 3.2008-1.042 6.4908-4.243 7.3485-.501.1343-1.005.201-1.496.2034.477-1.9096.489-3.9633-.057-5.999-.545-2.0357-1.583-3.8082-2.955-5.2232z"/><path d="m957.228-17.4799-9.186-5.3033-15.938 4.2705 9.318 34.7733 23.182-6.2116zm-17.775 3.2098 7.74-2.0739 4.883 2.8193 5.18 19.33104-11.591 3.10582z"/><path d="m3.81809 325.747-4.304629-2.485c-2.869751-1.657-6.539301-.673-8.196151 2.196l-3.00001 5.197 14.69328 8.483 3.00367-5.194c1.65685-2.87.6736-6.54-2.19616-8.197zm-3.8062865 18.589-14.6969035-8.485-18.2108 31.546 3.1058 11.591 11.5911-3.106z"/><path d="m56.311 306.224 46.364-12.423 9.318 34.773-8.485 14.697-34.7737 9.318zm14.697 8.485 23.1822-6.211 1.5529 5.795-23.1822 6.212zm20.4925 6.933-17.3867 4.659 1.5529 5.795 17.3867-4.659z"/><path d="m159.494 297.211c-2.573-9.602 3.126-19.472 12.728-22.045 9.603-2.573 19.473 3.125 22.046 12.728 1.006 3.755.747 7.551-.516 10.936l18.773 10.838-2.996 5.195-18.776-10.838c-2.3 2.786-5.458 4.908-9.213 5.914-9.603 2.573-19.473-3.125-22.046-12.728zm28.978-7.764c-1.715-6.402-8.295-10.201-14.697-8.486-6.402 1.716-10.201 8.296-8.485 14.697 1.715 6.402 8.295 10.201 14.697 8.485 6.401-1.715 10.2-8.295 8.485-14.696z"/><path d="m306.116 253.266c2.358 8.802-2.865 17.849-11.667 20.208-1.336.358-2.677.541-4 .564l-2.468 4.275-5.796 1.553 1.553 5.795-5.796 1.553 1.553 5.796-5.795 1.553 1.553 5.795-11.591 3.106-3.106-11.591 15.196-26.321c-.642-1.156-1.154-2.41-1.512-3.745-2.358-8.803 2.865-17.85 11.668-20.209 8.802-2.358 17.849 2.865 20.208 11.668zm-8.409-2.406c.643 2.401-.782 4.868-3.182 5.511-2.401.644-4.868-.781-5.512-3.182-.643-2.4.782-4.868 3.182-5.511 2.401-.643 4.868.781 5.512 3.182z"/><path d="m374.29 217.916c14.403-3.859 29.208 4.688 33.068 19.092 3.859 14.404-4.688 29.209-19.092 33.068-14.404 3.86-29.209-4.688-33.068-19.092-3.86-14.403 4.688-29.208 19.092-33.068zm3.314 23.959 4.658 17.387 5.796-1.553-4.659-17.387zm-3.054-8.499c-.536-2.001.651-4.057 2.651-4.593 2.001-.536 4.057.651 4.593 2.651.536 2.001-.651 4.057-2.651 4.593-2.001.536-4.057-.651-4.593-2.651z"/><path d="m494.859 204.245c3.106 11.591-8.069 39.432-8.069 39.432s-23.598-18.523-26.704-30.115c-2.573-9.602 3.126-19.472 12.728-22.045s19.472 3.126 22.045 12.728zm-11.591 3.106c.858 3.201-1.042 6.491-4.242 7.348-3.201.858-6.491-1.042-7.349-4.242-.858-3.201 1.042-6.491 4.243-7.349s6.491 1.042 7.348 4.243z"/><path d="m577.911 166.462 6.029 22.497c-1.352 2.069-1.852 4.682-1.162 7.257.675 2.521 2.356 4.503 4.496 5.632-3.423 1.777-5.708 4.166-6.742 7.223l-.291.861 1.4 5.224-20.284 5.435-12.424-46.365zm15.89 36.118c5.795-1.553 10.047-1.139 12.755 1.241l1.165 4.346-23.182 6.212-1.165-4.347c1.156-3.415 4.631-5.899 10.427-7.452zm-31.308-.929 5.796-1.553 1.553 5.796-5.796 1.553zm17.387-4.659-5.795 1.553 1.552 5.796 5.796-1.553zm17.387-4.658c-.858-3.201-4.148-5.101-7.349-4.243-3.2.858-5.1 4.148-4.242 7.349.857 3.2 4.147 5.1 7.348 4.242 3.201-.857 5.1-4.148 4.243-7.348zm-32.084-3.827-5.795 1.553 1.553 5.796 5.795-1.553zm5.796-1.553 5.795-1.553 1.553 5.796-5.795 1.553zm-8.902-10.038-5.795 1.553 1.553 5.796 5.795-1.553zm5.796-1.553 5.795-1.553 1.553 5.796-5.795 1.553z"/><path d="m679.237 146.952-2.802-6.89-11.591 3.106 1.021 7.365c-1.235.953-2.332 2.056-3.27 3.275l-7.373-1.018-3.106 11.591 6.893 2.804c.102.756.253 1.514.456 2.271s.451 1.49.741 2.196l-4.568 5.873 8.486 8.486 5.876-4.568c1.421.587 2.921.993 4.466 1.2l2.802 6.89 11.591-3.106-1.016-7.369c1.233-.951 2.328-2.053 3.265-3.271l7.373 1.018 3.106-11.591-6.892-2.803c-.103-.757-.254-1.515-.457-2.272s-.451-1.49-.74-2.196l4.567-5.873-8.485-8.486-5.876 4.568c-1.422-.587-2.922-.993-4.467-1.2zm-11.079 20.175c-1.286-4.801 1.563-9.736 6.364-11.023 4.801-1.286 9.736 1.563 11.023 6.364 1.286 4.801-1.563 9.736-6.364 11.023-4.801 1.286-9.736-1.563-11.023-6.364z"/><path d="m749.656 123.549c-3.201.858-5.1 4.148-4.243 7.348l6.988 26.08c.858 3.201 4.148 5.101 7.349 4.243l34.773-9.317 13.921 5.587-10.871-40.569c-.857-3.201-4.147-5.1-7.348-4.243zm29.678 12.236c.643 2.4-.781 4.868-3.182 5.511s-4.868-.781-5.511-3.182c-.644-2.401.781-4.868 3.182-5.511 2.4-.644 4.868.781 5.511 3.182zm-16.222 9.005c2.401-.643 3.825-3.111 3.182-5.511-.643-2.401-3.111-3.826-5.511-3.182-2.401.643-3.826 3.11-3.182 5.511.643 2.401 3.11 3.825 5.511 3.182zm29.262-12.499c.643 2.4-.781 4.868-3.182 5.511s-4.868-.782-5.511-3.182c-.644-2.401.781-4.868 3.182-5.511 2.4-.644 4.868.781 5.511 3.182z"/></g><path d="m866.912 85.9189c-4.801 1.2865-7.651 6.2215-6.364 11.0227l4.659 17.3864c1.286 4.801 6.221 7.651 11.022 6.364 4.801-1.286 7.651-6.221 6.364-11.022l-4.658-17.3871c-1.287-4.8012-6.222-7.6505-11.023-6.364z"/><path d="m856.513 116.658c2.309 8.615 10.491 14.087 19.083 13.264l.841 3.138-5.795 1.553 1.553 5.795 17.386-4.658-1.553-5.796-5.795 1.553-.841-3.138c7.853-3.583 12.203-12.414 9.895-21.029l-5.796 1.553c1.715 6.402-2.084 12.982-8.485 14.697-6.402 1.715-12.982-2.084-14.697-8.485z"/><path d="m972.425 85.5993c3.2-.8577 5.1-4.1477 4.242-7.3485-.857-3.2008-4.147-5.1003-7.348-4.2426-3.201.8576-5.101 4.1476-4.243 7.3484s4.148 5.1003 7.349 4.2427z"/><path clip-rule="evenodd" d="m993.485 83.0619c1.946 7.2591-1.965 14.1644-5.543 18.7221-1.861 2.372-3.813 4.339-5.29 5.708-.742.687-1.372 1.231-1.822 1.608-.225.188-.406.335-.534.438-.064.051-.114.091-.151.12-.027.021-.527.406-1.056.814-.504-.068-1.01-.129-1.512-.206-.162-.025-.392-.061-.682-.112-.578-.101-1.395-.257-2.381-.481-1.965-.447-4.638-1.175-7.436-2.298-5.377-2.159-12.216-6.184-14.161-13.4428l-6.212-23.1822 11.591-3.1058c1.589-.4258 3.185-1.4396 4.478-2.4852.625-.5048 1.131-.9787 1.478-1.322.172-.1708.302-.3069.385-.3955.042-.0442.071-.0764.088-.0948l1.331-1.5146 1.91.646c.024.0076.066.0207.124.0383.116.0353.297.0881.531.1498.472.1241 1.148.2812 1.941.4062 1.642.2591 3.531.3389 5.121-.0869l11.591-3.1059zm-25.598-14.3987c-.378.3508-.828.7477-1.34 1.1611-1.578 1.2768-3.941 2.8766-6.698 3.6155l-5.796 1.5529 4.659 17.3866c.676 2.5226 2.443 4.615 4.8 6.3241l-.737-2.7539s1.733-5.1231 10.426-7.4525c8.693-2.3293 12.756 1.2409 12.756 1.2409l.738 2.7538c1.187-2.6589 1.671-5.3544.995-7.8769l-4.659-17.3867-5.795 1.5529c-2.758.7389-5.603.5345-7.609.2182-.65-.1025-1.238-.2211-1.74-.336z" fill-rule="evenodd"/><path d="m1048.75 80.6766c.86 3.2008 4.15 5.1003 7.35 4.2427l40.57-10.8704c3.2-.8577 5.1-4.1477 4.24-7.3485l-6.21-23.1822c-.86-3.2008-4.15-5.1003-7.35-4.2426l-20.28 5.4352-7.35-4.2427-14.49 3.8823c-3.2.8577-5.1 4.1477-4.24 7.3485z"/><path clip-rule="evenodd" d="m1151.52 35.3377c.77 2.8628 2.11 5.4163 3.87 7.5686-3 5.0727-4.94 11.6365-2.89 19.287l5.8-1.5529c-1.39-5.189-.37-9.7751 1.67-13.6313 4.64 3.0357 10.5 4.1575 16.28 2.609 10.24-2.7423 16.61-12.9276 14.61-23.3313l-4.42-22.88101-22.02 7.61951c-10.01 3.4645-15.64 14.078-12.9 24.3124zm30.34-23.998-15.48 5.3558c-7.03 2.4352-10.99 9.8955-9.07 17.0893.4 1.4703 1.01 2.8246 1.79 4.0376 2.01-2.2891 4.06-4.0907 5.66-5.3539.91-.7115 1.68-1.2598 2.23-1.6355.28-.188.51-.3333.66-.4346.08-.0507.15-.0905.19-.1191l.01-.0028c.25-.164.54-.2919.85-.3746 1.6-.4288 3.24.5209 3.67 2.1213.36 1.3376-.24 2.7063-1.39 3.3702-.02.0153-.06.0381-.11.0683-.11.0717-.28.1846-.51.3377-.45.3064-1.11.7713-1.89 1.3844-1.46 1.153-3.33 2.8033-5.1 4.8798 3.24 2.0772 7.32 2.8345 11.33 1.7589 7.19-1.9275 11.67-9.0868 10.26-16.3996z" fill-rule="evenodd"/><path clip-rule="evenodd" d="m24.5759 423.055-5.8265-3.364c-1.4349-.828-3.2697-.337-4.0981 1.098l-2.5552 4.418 11.0227 6.364 2.5552-4.418c.8284-1.435.3368-3.27-1.0981-4.098zm-4.4567 13.712-11.02268-6.364-12.90745 22.36 2.33325 8.708 8.67594-2.325z" fill-rule="evenodd"/><path clip-rule="evenodd" d="m122.503 390.981 6.988 26.08-6.364 11.023-26.0803 6.988-9.3175-34.774zm-6.933 20.492-17.3865 4.659 1.553 5.796 17.3865-4.659zm-20.4923-6.932 23.1823-6.212 1.553 5.796-23.1824 6.212z" fill-rule="evenodd"/><path clip-rule="evenodd" d="m190.136 388.387c-2.144-8.002 2.605-16.227 10.607-18.371s16.227 2.605 18.371 10.607c.791 2.954.643 5.939-.261 8.637l10.394 5.997-2.997 5.194-10.393-6.001c-1.885 2.132-4.395 3.752-7.35 4.544-8.002 2.144-16.227-2.605-18.371-10.607zm23.182-6.211c-1.286-4.802-6.221-7.651-11.023-6.364-4.801 1.286-7.65 6.221-6.363 11.022 1.286 4.802 6.221 7.651 11.022 6.364 4.801-1.286 7.651-6.221 6.364-11.022z" fill-rule="evenodd"/><path clip-rule="evenodd" d="m322.269 348.324c1.501 5.601-1.823 11.359-7.425 12.86-.46.123-.922.214-1.382.273l-2.188 3.789-5.795 1.553 1.553 5.796-5.796 1.552 1.553 5.796-8.693 2.329-2.33-8.693 10.673-18.486c-.179-.428-.331-.873-.454-1.334-1.501-5.601 1.823-11.359 7.424-12.86 5.602-1.501 11.359 1.823 12.86 7.425zm-8.305 3.778c1.6-.429 2.55-2.074 2.121-3.674-.429-1.601-2.074-2.55-3.674-2.122-1.6.429-2.55 2.074-2.121 3.675.428 1.6 2.074 2.55 3.674 2.121z" fill-rule="evenodd"/><path clip-rule="evenodd" d="m400.689 316.441c9.603-2.573 19.473 3.125 22.046 12.728 2.573 9.602-3.126 19.472-12.728 22.045-9.603 2.573-19.473-3.125-22.046-12.728-2.573-9.602 3.126-19.472 12.728-22.045zm1.761 18.163 3.106 11.591 5.796-1.553-3.106-11.591zm-3.054-8.499c-.536-2.001.651-4.057 2.652-4.593 2-.536 4.057.651 4.593 2.652.536 2-.651 4.056-2.652 4.592-2 .536-4.057-.651-4.593-2.651z" fill-rule="evenodd"/><path clip-rule="evenodd" d="m513.911 298.527c-1.716-6.402-8.296-10.201-14.697-8.486-6.402 1.716-10.201 8.296-8.486 14.697 1.553 5.796 7.488 12.488 17.803 20.077 5.139-11.73 6.933-20.493 5.38-26.288zm-15.938 4.27c-.643-2.4.781-4.868 3.182-5.511 2.4-.643 4.868.781 5.511 3.182.643 2.4-.781 4.868-3.182 5.511-2.4.643-4.868-.781-5.511-3.182z" fill-rule="evenodd"/><path clip-rule="evenodd" d="m609.329 260.536 2.926 10.908c-1.717-.869-3.716-1.194-5.723-.815l-.669.153-.776-2.898-5.796 1.553 1.37 5.112-.263.426c-1.055 1.829-1.472 4.026-1.038 6.229l.139.601c.643 2.4 2.199 4.313 4.194 5.465.104.06.21.118.313.169-3.761 1.966-5.953 4.56-6.859 7.553l-.164.604 1.379 5.148-8.693 2.33-9.317-34.774zm1.193 27.633c5.795-1.553 10.047-1.14 12.756 1.24l1.164 4.347-23.182 6.212-1.165-4.347c1.156-3.415 4.631-5.899 10.427-7.452zm-19.716-4.035 5.795-1.553 1.553 5.796-5.795 1.553zm15.834-10.454c3.2-.858 6.49 1.042 7.348 4.242.858 3.201-1.042 6.491-4.243 7.349-3.2.858-6.49-1.042-7.348-4.243s1.042-6.491 4.243-7.348zm-18.94-1.137 5.796-1.553 1.553 5.796-5.796 1.552z" fill-rule="evenodd"/><path clip-rule="evenodd" d="m701.987 242.673-2.827-6.207-5.795 1.553.658 6.787c-1.145.804-2.129 1.797-2.918 2.921l-6.794-.655-1.553 5.796 6.209 2.825c.061.679.181 1.361.363 2.042.182.68.42 1.331.706 1.949l-3.964 5.551 4.243 4.243 5.556-3.963c1.246.578 2.594.946 3.988 1.07l2.823 6.207 5.796-1.553-.656-6.789c1.145-.805 2.128-1.797 2.917-2.921l6.792.656 1.553-5.795-6.208-2.829c-.062-.677-.182-1.358-.364-2.038-.182-.679-.419-1.33-.704-1.947l3.963-5.554-4.243-4.242-5.554 3.964c-1.246-.579-2.593-.947-3.987-1.071zm-6.861 13.509c-.858-3.201 1.042-6.491 4.242-7.349 3.201-.857 6.491 1.042 7.349 4.243.857 3.201-1.042 6.491-4.243 7.348-3.201.858-6.491-1.041-7.348-4.242z" fill-rule="evenodd"/><path clip-rule="evenodd" d="m813.727 211.979c-.858-3.201-4.148-5.1-7.349-4.242l-23.182 6.211c-3.201.858-5.1 4.148-4.243 7.349l4.659 17.386c.858 3.201 4.148 5.101 7.349 4.243l20.284-5.435 10.246 3.466zm-17.955 14.129c-.429-1.601.52-3.246 2.121-3.674 1.6-.429 3.245.521 3.674 2.121s-.521 3.245-2.121 3.674c-1.601.429-3.246-.521-3.674-2.121zm-6.572-1.345c-1.601.429-2.551 2.074-2.122 3.674.429 1.601 2.074 2.55 3.674 2.122 1.601-.429 2.551-2.074 2.122-3.675-.429-1.6-2.074-2.55-3.674-2.121zm15.265-.985c-.429-1.6.521-3.245 2.121-3.674 1.601-.429 3.246.521 3.674 2.122.429 1.6-.52 3.245-2.121 3.674-1.6.429-3.245-.521-3.674-2.122z" fill-rule="evenodd"/><path d="m889.069 191.792c-.858-3.201 1.041-6.491 4.242-7.349 3.201-.857 6.491 1.042 7.349 4.243l3.105 11.591c.858 3.201-1.041 6.491-4.242 7.348-3.201.858-6.491-1.041-7.349-4.242z"/><path d="m898.877 216.805c-6.973.43-13.518-4.083-15.396-11.093l5.796-1.553c1.286 4.801 6.221 7.651 11.022 6.364 4.801-1.286 7.651-6.221 6.364-11.023l5.796-1.552c1.878 7.009-1.533 14.19-7.787 17.304l.854 3.188-5.795 1.553z"/><path d="m999.676 169.919c.644 2.4-.781 4.868-3.182 5.511-2.4.643-4.868-.781-5.511-3.182-.643-2.4.781-4.868 3.182-5.511s4.868.781 5.511 3.182z"/><path clip-rule="evenodd" d="m985.531 161.449c1.553-1.164 3.569-2.672 6.305-3.406 2.736-.733 5.235-.434 7.162-.203l.153.018c2.059.246 3.519.39 5.049-.023l2.9-.776 4.66 17.387c1.39 5.201-1.72 9.906-4.17 12.726-1.33 1.516-2.7 2.762-3.73 3.624-.52.434-.96.778-1.28 1.017-.16.12-.28.214-.38.28-.34.249-.69.489-1.04.732l-1.279-.109c-.113-.012-.271-.029-.468-.053-.394-.049-.948-.126-1.615-.242-1.324-.231-3.136-.625-5.038-1.277-3.539-1.213-8.584-3.733-9.978-8.934l-4.659-17.386 2.898-.777c1.538-.412 2.723-1.261 4.387-2.506zm20.429 14.55c.23.847.17 1.783-.15 2.775-1.51-.645-4.55-1.516-8.539-.446-3.994 1.07-6.19 3.344-7.17 4.654-.772-.7-1.297-1.477-1.524-2.325l-3.193-11.919c1.385-.721 2.529-1.577 3.495-2.301l.123-.092c1.664-1.245 2.849-2.094 4.386-2.506 1.538-.412 2.989-.269 5.053-.023l.152.018c1.198.144 2.617.314 4.177.245z" fill-rule="evenodd"/><path d="m1084.41 167.402 28.98-7.765c1.6-.429 2.55-2.074 2.12-3.674l-5.43-20.285c-.43-1.6-2.08-2.55-3.68-2.121l-14.49 3.882-3.67-2.121-11.59 3.106c-1.6.429-2.55 2.074-2.12 3.674l6.21 23.182c.43 1.601 2.07 2.55 3.67 2.122z"/><path clip-rule="evenodd" d="m1178.67 125.064c.69 2.604 1.98 4.895 3.67 6.768-1.74 3.921-2.72 8.393-1.52 12.844l5.79-1.553c-.63-2.347-.28-4.93.68-7.541 3.47 1.719 7.55 2.231 11.58 1.15 8.81-2.359 14.03-11.406 11.67-20.209l-4.27-15.937-15.94 4.27c-8.8 2.359-14.02 11.406-11.66 20.208zm23.36-17.13-10.14 2.718c-5.6 1.501-8.93 7.258-7.43 12.859.25.935.62 1.806 1.09 2.602.17-.26.35-.513.52-.76 1.8-2.546 3.69-4.692 5.12-6.197.72-.755 1.33-1.355 1.76-1.772.22-.208.39-.37.52-.484.06-.056.11-.101.14-.132l.01-.004c.35-.326.78-.573 1.27-.705 1.6-.429 3.24.521 3.67 2.121.31 1.15-.09 2.322-.94 3.051l-.09.088c-.1.088-.25.223-.43.403-.38.359-.92.892-1.57 1.57-1.29 1.361-2.97 3.278-4.55 5.519-.34.47-.66.947-.97 1.427 2.2 1.067 4.77 1.379 7.31.698 5.6-1.501 8.93-7.258 7.43-12.86z" fill-rule="evenodd"/><path d="m44.8666 512.723-16.5341-9.546-9.5459 16.534 5.1961 3 4.4251-7.662 7.8974 29.473 5.7955-1.552-7.8973-29.474 7.6632 4.423z"/><path d="m13.4833 528.897 8.541 31.875 40.5689-10.87-8.541-31.876-11.5911 3.106 1.5529 5.796 5.7955-1.553 5.4352 20.284-28.9777 7.765-5.4352-20.285 5.7955-1.553-1.5529-5.795z"/><path d="m109.11 503.273 7.765 28.978 17.386-4.659-3.882-14.488 11.591-3.106 3.883 14.489 17.386-4.659-7.764-28.978-27.841-11.175z"/><path clip-rule="evenodd" d="m209.159 459.383c-.643-2.4.782-4.868 3.182-5.511 2.401-.643 4.868.781 5.512 3.182l.388 1.449 17.387-4.659-.389-1.449c-.643-2.401.782-4.868 3.182-5.511 2.401-.644 4.868.781 5.512 3.182l.388 1.449 2.898-.777 8.541 31.876-10.607 18.371-26.08 6.988-12.423-46.364 2.898-.777zm35.37 4.499-28.978 7.765 7.765 28.978 17.386-4.659-3.105-11.591 11.591-3.106z" fill-rule="evenodd"/><path clip-rule="evenodd" d="m352.401 426.979c-1.356-2.196-4.037-3.342-6.658-2.64l-40.569 10.87c-2.62.702-4.368 3.034-4.445 5.612l29.296 5.995zm8.455 30.58-6.51-24.288-22.584 20.027-29.576-6.051 6.51 24.289c.858 3.2 4.148 5.1 7.349 4.242l40.569-10.87c3.2-.858 5.1-4.148 4.242-7.349z" fill-rule="evenodd"/><path d="m452.393 405.079-14.697-8.485 2.329 8.693-10.142 2.718-11.175 27.841-10.142 2.718 1.553 5.795 13.04-3.494 11.175-27.841 7.244-1.941 2.329 8.693 2.33 8.694-7.245 1.941-6.391-5.017-2.328 5.8 7.374 5.789 10.143-2.718 2.329 8.693 8.485-14.696-14.697-8.486z"/><path d="m422.769 417.676-2.329 5.8-6.391-5.017-10.142 2.718-1.553-5.796 13.04-3.494z"/><path d="m522.507 376.975-22.197 21.477 29.962 7.501 17.265-16.705 3.019 11.269c.429 1.601 2.074 2.55 3.674 2.122 1.601-.429 2.551-2.074 2.122-3.675l-3.882-14.488z"/><path d="m513.662 413.509-2.477-9.242 19.975 5 14.799-14.318 2.476 9.243s-4.915 10.634-15.057 13.352c-10.143 2.717-19.716-4.035-19.716-4.035z"/><path clip-rule="evenodd" d="m637.643 343.018c3.2-.857 6.49 1.042 7.348 4.243l9.318 34.773c.857 3.201-1.042 6.491-4.243 7.349l-34.773 9.317c-3.201.858-6.491-1.042-7.349-4.242l-9.317-34.774c-.858-3.201 1.041-6.491 4.242-7.348zm-10.399 30.739c-5.506 1.475-8.918 3.791-10.236 6.947l-.19.506 1.164 4.346 23.183-6.211-1.165-4.347c-2.708-2.38-6.96-2.794-12.756-1.241zm-8.125-7.14c-.858-3.201 1.042-6.491 4.243-7.349s6.491 1.042 7.348 4.243c.858 3.201-1.042 6.491-4.242 7.348-3.201.858-6.491-1.042-7.349-4.242z" fill-rule="evenodd"/><path d="m703.723 334.63-1.553-5.795 3.892-1.043c3.074-.824 6.349-.393 9.106 1.199l20.598 11.892c-.554.601-1.02.964-2.081 1.248-1.296.347-1.881.149-2.981-.223l-.016-.005c-1.451-.491-3.429-1.156-6.473-.34-3.044.815-4.424 2.38-5.435 3.531l-.012.012c-.766.873-1.174 1.336-2.47 1.684-1.296.347-1.881.149-2.981-.223l-.016-.005c-.447-.152-.944-.32-1.507-.455l5.073-8.787-5.197-3c-1.378-.796-3.015-1.011-4.552-.599z"/><path d="m737.708 346.243c-.767.873-1.174 1.336-2.47 1.684-1.296.347-1.881.149-2.981-.223l-.016-.006c-1.451-.49-3.429-1.156-6.473-.34s-4.424 2.381-5.435 3.531l-.012.013c-.766.872-1.174 1.336-2.47 1.683-1.296.348-1.881.15-2.981-.222l-.016-.006c-1.451-.491-3.428-1.156-6.473-.34-3.044.816-4.424 2.38-5.435 3.531l-.011.013c-.767.872-1.175 1.336-2.471 1.683l1.553 5.796c3.045-.816 4.425-2.381 5.436-3.531l.011-.013c.767-.873 1.174-1.336 2.47-1.684 1.296-.347 1.881-.149 2.981.223l.016.006c1.451.491 3.429 1.156 6.473.34s4.424-2.381 5.435-3.531l.012-.013c.766-.872 1.174-1.336 2.47-1.683 1.296-.348 1.881-.15 2.981.222l.016.006c1.451.491 3.428 1.156 6.473.34 3.044-.816 4.424-2.38 5.435-3.531l.011-.013c.767-.872 1.175-1.336 2.471-1.683s1.88-.149 2.981.223l.016.005c1.451.491 3.428 1.156 6.472.34l-1.553-5.795c-1.296.347-1.88.149-2.981-.223l-.016-.005c-1.451-.491-3.428-1.156-6.472-.341-3.045.816-4.425 2.381-5.436 3.531z"/><path d="m705.123 374.631c3.045-.816 4.425-2.381 5.436-3.531l.011-.013c.767-.872 1.174-1.336 2.47-1.683 1.296-.348 1.881-.15 2.981.222l.016.006c1.451.491 3.428 1.156 6.473.34 3.044-.816 4.424-2.38 5.435-3.531l.012-.013c.766-.872 1.174-1.336 2.47-1.683s1.88-.15 2.981.223l.016.005c1.451.491 3.428 1.156 6.473.34 3.044-.815 4.424-2.38 5.435-3.531l.011-.012c.767-.873 1.174-1.337 2.47-1.684s1.881-.149 2.981.223l.016.005c1.451.491 3.429 1.156 6.473.34l-1.553-5.795c-1.296.347-1.88.149-2.981-.223l-.016-.005c-1.451-.491-3.428-1.156-6.473-.34-3.044.815-4.424 2.38-5.435 3.53l-.011.013c-.767.873-1.174 1.336-2.47 1.684-1.296.347-1.881.149-2.981-.223l-.017-.006c-1.45-.49-3.428-1.155-6.472-.34-3.045.816-4.425 2.381-5.436 3.531l-.011.013c-.767.872-1.174 1.336-2.47 1.683-1.296.348-1.881.15-2.981-.222l-.016-.006c-1.451-.491-3.429-1.156-6.473-.34s-4.424 2.38-5.435 3.531l-.012.013c-.766.872-1.174 1.336-2.47 1.683z"/><path d="m736.479 335.171c4.001-1.072 6.375-5.185 5.303-9.186s-5.185-6.375-9.186-5.303-6.375 5.184-5.303 9.185 5.185 6.376 9.186 5.304z"/><path clip-rule="evenodd" d="m849.596 311.072c-8.902-10.038-19.148-13.504-30.739-10.398-11.591 3.105-18.731 11.23-21.421 24.374 8.901 10.038 19.147 13.505 30.739 10.399 11.591-3.106 18.731-11.231 21.421-24.375zm-17.139-4.634-.054-.094c3.475.991 6.778 2.947 9.974 5.907l.618.59-.241.82c-2.682 8.67-7.947 13.797-16.132 15.99l-.843.213c-7.833 1.851-14.695-.04-21.124-5.995l-.621-.589.244-.82c1.286-4.16 3.168-7.504 5.682-10.097.009.994.143 2.003.412 3.007 1.715 6.402 8.295 10.201 14.697 8.486 6.401-1.716 10.2-8.296 8.485-14.697-.26-.97-.631-1.88-1.097-2.721z" fill-rule="evenodd"/><path clip-rule="evenodd" d="m923.593 297.457c5.796-1.553 11.014-1.398 15.654.464l1.941 7.244 13.92 5.588-10.87-40.569c-.858-3.201-4.148-5.1-7.348-4.243l-40.569 10.871c-3.201.857-5.101 4.148-4.243 7.348l6.988 26.08c.858 3.201 4.148 5.101 7.349 4.243l5.795-1.553-1.941-7.244.595-.724c3.053-3.548 7.296-6.05 12.729-7.505zm-11.799-9.262c-1.286-4.801 1.563-9.736 6.364-11.023 4.801-1.286 9.736 1.563 11.023 6.364 1.286 4.801-1.563 9.736-6.364 11.023-4.801 1.286-9.736-1.563-11.023-6.364z" fill-rule="evenodd"/><path d="m1026.78 288.443-12.43-46.364-13.5 19.147-8.695 2.33 4.659 17.386 8.696-2.329z"/><path d="m1046.64 258.273c3.17 11.822-3.06 23.948-14.12 28.438l-1.57-5.856c7.86-3.583 12.21-12.414 9.9-21.029s-10.49-14.088-19.08-13.264l-1.57-5.856c11.81-1.639 23.28 5.745 26.44 17.567z"/><path d="m1035.05 261.379c1.45 5.401-1.03 10.929-5.68 13.555l-1.66-6.205c1.46-1.467 2.12-3.652 1.55-5.797-.58-2.145-2.24-3.706-4.24-4.244l-1.67-6.206c5.35-.052 10.26 3.496 11.7 8.897z"/><path clip-rule="evenodd" d="m1095.49 220.338c-3.2.858-5.1 4.148-4.24 7.349l1.55 5.795c.86 3.201 4.15 5.101 7.35 4.243l5.8-1.553c3.2-.858 5.1-4.148 4.24-7.349l-1.55-5.795c-.86-3.201-4.15-5.1-7.35-4.243zm7.35 4.243-5.8 1.553 1.56 5.795 5.79-1.553z" fill-rule="evenodd"/><path clip-rule="evenodd" d="m1124.47 212.574c-3.2.857-5.1 4.147-4.24 7.348l1.55 5.796c.86 3.2 4.15 5.1 7.35 4.242l5.79-1.553c3.2-.857 5.1-4.147 4.25-7.348l-1.56-5.796c-.85-3.2-4.14-5.1-7.35-4.242zm7.35 4.242-5.8 1.553 1.55 5.796 5.8-1.553z" fill-rule="evenodd"/><path clip-rule="evenodd" d="m1099.01 256.664c-.85-3.2 1.05-6.49 4.25-7.348l5.79-1.553c3.2-.858 6.49 1.042 7.35 4.243l1.55 5.795c.86 3.201-1.04 6.491-4.24 7.349l-5.8 1.553c-3.2.857-6.49-1.042-7.34-4.243zm5.8-1.552 5.79-1.553 1.56 5.795-5.8 1.553z" fill-rule="evenodd"/><path d="m1095.13 242.176 5.8-1.553 1.55 5.795-5.8 1.553z"/><path clip-rule="evenodd" d="m1106.72 239.07 1.56 5.795 14.48-3.882 1.56 5.796-5.8 1.552 3.88 14.489 11.59-3.105-1.55-5.796-5.79 1.553-2.33-8.693 5.79-1.553 1.56 5.795 5.79-1.553 2.33 8.694 8.69-2.33-2.33-8.693-8.69 2.329-1.55-5.795 5.79-1.553-1.55-5.796 2.9-.776-1.55-5.796-14.49 3.883 1.55 5.795-5.8 1.553-1.55-5.796zm21.84.36 1.55 5.796 5.8-1.553-1.55-5.796z" fill-rule="evenodd"/><path d="m1118.88 226.494-5.79 1.553 1.55 5.796 5.79-1.553z"/><path d="m1109.98 216.456 5.8-1.553 2.33 8.693-5.8 1.553z"/><path clip-rule="evenodd" d="m1194.02 193.939c-3.21.857-5.11 4.147-4.25 7.348l9.32 34.773c.86 3.201 4.15 5.101 7.35 4.243l34.77-9.318c3.2-.857 5.1-4.147 4.24-7.348l-9.31-34.773c-.86-3.201-4.15-5.101-7.35-4.243zm16.25 14.28-5.8 1.553 4.66 17.387 5.79-1.553zm4.45 5.019 5.79-1.552 3.11 11.591-5.8 1.553zm11.38-15.473-5.8 1.553 6.21 23.182 5.8-1.553z" fill-rule="evenodd"/><path clip-rule="evenodd" d="m65.7543 608.065-11.0227-6.364-6.364 11.023 5.7956-1.553 4.6587 17.387 5.7956-1.553-4.6588-17.387zm-12.1595 12.576-1.553-5.796-8.6933 2.33 6.2117 23.182 28.9777-7.765-6.2116-23.182-8.6934 2.329 1.553 5.796 2.8977-.776 3.1059 11.591-17.3867 4.658-3.1058-11.591z" fill-rule="evenodd"/><path d="m138.975 591.552 6.212 23.182 11.591-3.106-2.329-8.693 11.591-3.106 2.329 8.693 11.591-3.106-6.211-23.182-20.493-6.932z"/><path clip-rule="evenodd" d="m267.046 547.918c-.429-1.601-2.074-2.55-3.674-2.122-1.601.429-2.55 2.074-2.122 3.675l-17.386 4.658c-.429-1.6-2.074-2.55-3.674-2.121-1.601.429-2.551 2.074-2.122 3.674l-2.897.777 8.541 31.875 34.773-9.317-8.541-31.876zm-19.092 33.068-3.882-14.489 23.182-6.212 3.882 14.489z" fill-rule="evenodd"/><path d="m368.468 520.742-34.773 9.317.902 3.366 19.716 4.034 15.057-13.352z"/><path d="m370.672 528.967-15.057 13.352-19.716-4.035 5.56 20.753 34.774-9.318z"/><path d="m457.523 493.774 11.023 6.364-6.364 11.022-1.553-5.795-2.99.801-9.83 21.269-8.602 2.304-1.552-5.795 5.887-1.578 9.83-21.268 5.704-1.529z"/><path d="m465.287 522.751 1.553 5.796 6.364-11.023-11.022-6.364 1.553 5.796-2.99.801-3.89-2.744-2.559 5.537 5.288 3.73z"/><path d="m446.885 507.982-2.559 5.537-3.89-2.744-5.887 1.578-1.553-5.796 8.601-2.305z"/><path clip-rule="evenodd" d="m567.458 475.187-20.104-5.483-14.669 14.801 20.104 5.483 9.78-9.866 1.811 6.76.11.333c.554 1.396 2.078 2.187 3.564 1.788 1.601-.428 2.551-2.073 2.122-3.674zm-13.77 18.156-13.405-3.656 2.468 9.202.752.508c4.019 2.592 8.149 3.319 12.392 2.182 4.508-1.208 7.854-4.175 10.038-8.901l-.21-.776c-.393-.106-.773-.252-1.135-.433-1.339-.672-2.421-1.841-2.957-3.335l-.598-2.205z" fill-rule="evenodd"/><path clip-rule="evenodd" d="m630.045 453.758c-.858-3.2 1.042-6.49 4.242-7.348l23.183-6.212c3.201-.857 6.491 1.042 7.348 4.243l6.212 23.182c.857 3.201-1.042 6.491-4.243 7.349l-23.182 6.211c-3.201.858-6.491-1.042-7.348-4.242zm21.269 9.831c8.693-2.33 12.756 1.24 12.756 1.24l1.164 4.347-23.182 6.212-1.165-4.347s1.733-5.123 10.427-7.452zm3.466-10.247c.858 3.201-1.042 6.491-4.243 7.349-3.2.857-6.49-1.042-7.348-4.243s1.042-6.491 4.243-7.348c3.2-.858 6.49 1.042 7.348 4.242z" fill-rule="evenodd"/><path d="m763.343 418.041c.857 3.201-1.042 6.491-4.243 7.349-3.201.857-6.491-1.042-7.349-4.243-.857-3.201 1.042-6.491 4.243-7.349 3.201-.857 6.491 1.042 7.349 4.243z"/><path d="m768.778 438.325c-1.296.348-1.881.15-2.981-.222l-.016-.006c-1.451-.491-3.429-1.156-6.473-.34s-4.424 2.381-5.435 3.531l-.012.013c-.766.872-1.174 1.336-2.47 1.683-1.296.348-1.881.15-2.981-.223l-.016-.005c-1.451-.491-3.428-1.156-6.473-.34-3.044.816-4.424 2.38-5.435 3.531l-.011.013c-.767.872-1.175 1.336-2.471 1.683l1.553 5.796c3.045-.816 4.425-2.381 5.436-3.531l.011-.013c.767-.873 1.174-1.336 2.47-1.684 1.296-.347 1.881-.149 2.981.223l.016.006c1.451.49 3.429 1.156 6.473.34s4.424-2.381 5.435-3.531l.012-.013c.766-.872 1.174-1.336 2.47-1.683 1.296-.348 1.881-.15 2.981.222l.016.006c1.451.491 3.428 1.156 6.473.34z"/><path d="m727.793 424.461 6.79-1.82c3.074-.823 6.349-.392 9.106 1.199l16.037 9.259c-.493.06-1.02.161-1.583.311-3.044.816-4.424 2.381-5.435 3.531l-.011.013c-.767.873-1.175 1.336-2.471 1.684-1.296.347-1.88.149-2.981-.223l-.016-.006c-1.451-.49-3.428-1.156-6.472-.34-3.045.816-4.425 2.381-5.436 3.531l-.011.013c-.265.302-.488.555-.719.771l7.122-12.336-1.522-.878c-1.378-.796-3.014-1.012-4.551-.6l-6.294 1.686z"/><path clip-rule="evenodd" d="m864.973 403.233c-6.193-7.658-13.154-10.452-20.881-8.381s-12.358 7.97-13.893 17.699c6.193 7.658 13.154 10.452 20.881 8.381 7.728-2.071 12.358-7.97 13.893-17.699zm-26.231 2.437.349-.539.041.178.188.65c1.258 3.713 5.202 5.86 9.043 4.831 4-1.072 6.375-5.185 5.303-9.186l-.103-.346c1.554.732 3.087 1.849 4.625 3.381l.317.327-.111.442c-1.491 5.516-4.378 8.526-8.867 9.728l-.583.144c-4.254.953-8.087-.279-11.96-4.135l-.32-.327.114-.442c.497-1.839 1.149-3.399 1.964-4.706z" fill-rule="evenodd"/><path clip-rule="evenodd" d="m960.391 365.242c-.857-3.201-4.147-5.1-7.348-4.242l-23.182 6.211c-3.201.858-5.101 4.148-4.243 7.349l4.659 17.386c.857 3.201 4.148 5.101 7.348 4.243l2.898-.776-1.553-5.796.322-.514c1.476-2.181 4.007-3.752 7.595-4.713 3.864-1.035 7.02-.846 9.47.568l1.553 5.796 10.246 3.466zm-21.629 12.007c-.858-3.2 1.042-6.49 4.243-7.348s6.491 1.042 7.348 4.243c.858 3.2-1.042 6.49-4.242 7.348-3.201.858-6.491-1.042-7.349-4.243z" fill-rule="evenodd"/><path d="m1039.98 337.706-9.27 11.799-5.79 1.553 4.66 17.387 5.79-1.553 13.92 5.587z"/><path d="m1050.54 365.542 1.59 5.92c7.85-3.582 12.2-12.413 9.89-21.028s-10.49-14.088-19.08-13.264l1.58 5.92c5.35-.053 10.26 3.496 11.71 8.897 1.44 5.401-1.03 10.929-5.69 13.555z"/><path d="m1045.75 347.675c2.86.432 5.33 2.506 6.13 5.477.8 2.97-.31 6.002-2.57 7.806z"/><path clip-rule="evenodd" d="m1122.67 321.76c-.86-3.2 1.04-6.49 4.24-7.348l5.8-1.553c3.2-.858 6.49 1.042 7.34 4.243l1.56 5.795c.85 3.201-1.05 6.491-4.25 7.349l-5.79 1.553c-3.2.857-6.49-1.042-7.35-4.243zm5.79-1.553 5.8-1.552 1.55 5.795-5.79 1.553z" fill-rule="evenodd"/><path d="m1142.59 338.163-1.55-5.796-5.8 1.553 1.56 5.795z"/><path d="m1142.59 338.163 5.8-1.553 1.55 5.795-5.8 1.553z"/><path d="m1153.41 332.159-2.33-8.693 5.79-1.553-1.55-5.796-11.59 3.106 3.88 14.489z"/><path d="m1132.34 334.696-5.79 1.553 3.88 14.489 11.59-3.106-1.55-5.795-5.8 1.553z"/><path d="m1150.09 308.2 5.8-1.553 1.55 5.796-5.8 1.553z"/><path d="m1147.19 308.977-5.79 1.553 1.55 5.795 5.8-1.553z"/><path d="m1161.32 326.932 1.56 5.795-5.8 1.553-1.55-5.795z"/><path d="m1163.65 335.625 1.55 5.796-11.59 3.106-1.55-5.796z"/><path clip-rule="evenodd" d="m1225.43 288.013c-3.2.857-5.1 4.147-4.24 7.348l6.21 23.182c.86 3.201 4.15 5.1 7.35 4.243l23.18-6.212c3.2-.857 5.1-4.147 4.25-7.348l-6.22-23.183c-.85-3.2-4.14-5.1-7.34-4.242zm9.68 12.935-5.79 1.553 3.88 14.489 5.79-1.553zm4.45 5.02 5.8-1.553 2.33 8.693-5.8 1.553zm10.61-18.372-5.8 1.553 6.22 23.183 5.79-1.553z" fill-rule="evenodd"/><path d="m260.797 652.098-9.189-5.316 3-5.196 3.992 2.313 6.543-11.348 5.196 3z"/><path d="m301.154 628.847-26.08 6.988 1.553 5.796 26.08-6.988z"/><path d="m260.926 681.555 9.188 5.316 9.543-16.547-5.196-3-6.543 11.348-3.992-2.313z"/><path d="m265.456 669.484-9.189-5.315 3-5.197 3.992 2.314 6.543-11.348 5.196 3z"/><path d="m284.392 670.609 26.08-6.988 1.553 5.795-26.08 6.988z"/><path d="m305.813 646.234-26.08 6.988 1.553 5.796 26.08-6.989z"/><path clip-rule="evenodd" d="m398.495 619.882c2.459-5.616.355-12.18-4.967-15.253-5.74-3.314-13.079-1.347-16.392 4.392l-4.961 8.588c2.367-1.003 4.975-1.394 7.562-1.1l2.595-4.488.278-.437c1.763-2.529 5.199-3.328 7.918-1.759 2.756 1.591 3.786 5.056 2.365 7.884l-.211.388-7.458 12.915-.278.437c-1.247 1.789-3.332 2.713-5.408 2.544l-.517-.065c-.459-.078-.914-.21-1.356-.4-.216-.093-.428-.2-.637-.32l-.39-.249-.493-.372c-.541-.459-.986-1.001-1.327-1.598l-3.212 5.574c.533.525 1.122 1.005 1.763 1.432l.659.409c.305.176.615.337.928.484l.161.074.664.275.6.21.411.123.624.157c4.982 1.113 10.317-1.061 13.004-5.715l7.5-12.991.294-.541zm-16.805.101-.42-.126c-5.153-1.445-10.825.711-13.624 5.559l-7.5 12.991-.294.541-.281.598c-2.459 5.616-.356 12.18 4.967 15.253l.579.314c2.725 1.383 5.758 1.627 8.527.885l.589-.174c2.728-.882 5.151-2.739 6.697-5.417l4.961-8.587c-.644.272-1.306.5-1.981.681-1.805.483-3.7.632-5.584.418l-2.592 4.488-.278.437c-1.763 2.529-5.199 3.328-7.918 1.759-2.756-1.591-3.786-5.056-2.365-7.884l.211-.388 7.458-12.915.278-.437c1.226-1.759 3.263-2.682 5.304-2.552l.179.015.388.049.237.043.372.088.513.163c.315.117.624.261.925.435l.282.173.184.128.485.379c.511.446.933.968 1.259 1.539l3.212-5.574c-.318-.313-.656-.61-1.012-.889-.224-.176-.456-.344-.696-.506l-.175-.116-.539-.33-.598-.323-.287-.141-.603-.265z" fill-rule="evenodd"/><path clip-rule="evenodd" d="m503.639 596.333c-3.86-14.404-18.665-22.952-33.069-19.092-14.403 3.859-22.951 18.664-19.091 33.068 3.859 14.404 18.664 22.951 33.068 19.092 14.403-3.86 22.951-18.665 19.092-33.068zm-13.141-2.678-5.196-3-9.717 16.891-7.678-4.478-3 5.196 12.86 7.424z" fill-rule="evenodd"/><path clip-rule="evenodd" d="m590.34 579.839c-1.028 4.193-1.986 8.105-.905 12.14l-17.387 4.658c-1.081-4.034-3.867-6.943-6.853-10.061-3.449-3.599-7.164-7.478-8.828-13.689-2.573-9.603 3.125-19.473 12.728-22.046 9.602-2.573 19.472 3.126 22.045 12.728 1.664 6.212.386 11.428-.8 16.27zm-28.178-8.505c-1.715-6.402 2.084-12.982 8.486-14.697 6.401-1.715 12.981 2.083 14.697 8.485 1.135 4.238.476 7.891-.598 12.327-.085.353-.177.721-.272 1.103-.195.778-.403 1.613-.6 2.493l-12.478 3.344c-.612-.664-1.209-1.283-1.766-1.86-.274-.283-.537-.555-.788-.819-3.148-3.304-5.545-6.139-6.681-10.376z" fill-rule="evenodd"/><path d="m577.275 604.554-1.553-5.795 11.592-3.106 1.552 5.795z"/><path d="m663.53 578.336 15.396-53.818 6.758-1.811-15.395 53.818z"/><path clip-rule="evenodd" d="m654.579 527.936c-5.601 1.501-8.925 7.258-7.424 12.86l.776 2.897c1.501 5.602 7.258 8.926 12.86 7.425 5.601-1.501 8.925-7.258 7.425-12.86l-.777-2.898c-1.501-5.601-7.258-8.925-12.86-7.424zm-1.629 11.307c-.643-2.401.782-4.868 3.182-5.512 2.401-.643 4.868.782 5.511 3.182l.777 2.898c.643 2.401-.781 4.868-3.182 5.511-2.401.644-4.868-.781-5.511-3.182z" fill-rule="evenodd"/><path clip-rule="evenodd" d="m688.424 549.925c-5.602 1.501-8.926 7.259-7.425 12.86l.777 2.898c1.501 5.601 7.258 8.925 12.859 7.425 5.602-1.501 8.926-7.259 7.425-12.86l-.776-2.898c-1.501-5.601-7.259-8.926-12.86-7.425zm-1.629 11.307c-.644-2.4.781-4.868 3.182-5.511 2.4-.643 4.868.781 5.511 3.182l.777 2.898c.643 2.4-.782 4.868-3.182 5.511-2.401.643-4.869-.781-5.512-3.182z" fill-rule="evenodd"/><path clip-rule="evenodd" d="m799.212 517.134c3.86 14.404-4.688 29.209-19.092 33.068-14.403 3.86-29.208-4.688-33.068-19.092-3.859-14.403 4.688-29.208 19.092-33.068 14.404-3.859 29.209 4.688 33.068 19.092zm-37.103.624c-1.286-4.801 1.563-9.736 6.364-11.023 4.802-1.286 9.737 1.563 11.023 6.364l-5.796 1.553c-.428-1.6-2.073-2.55-3.674-2.121-1.6.429-2.55 2.074-2.121 3.674.384 1.435 1.059 2.234 2.154 3.469l.061.069c.434.489.926 1.043 1.409 1.703l6.622-1.775 1.553 5.796-5.841 1.565c.384 1.907.579 4.067.348 6.119l9.944-2.665 1.553 5.796-17.387 4.658-1.553-5.795c.562-.151 1.148-.595 1.423-2.249.209-1.257.132-2.799-.139-4.307l-5.735 1.537-1.552-5.796 4.368-1.17c-1.065-1.222-2.34-2.851-3.024-5.402z" fill-rule="evenodd"/><path d="m840.141 484.426 31.876-8.541 1.553 5.796-31.876 8.541z"/><path d="m886.714 484.371-43.467 11.646 1.553 5.796 43.467-11.647z"/><path d="m884.024 497.515-37.671 10.093 1.553 5.796 37.671-10.094z"/><path d="m901.619 505.223-52.16 13.977 1.553 5.795 52.16-13.976z"/><path d="m968.628 465.528-1.553-5.796-5.795 1.553 1.553 5.795-5.796 1.553 1.553 5.796 5.796-1.553 1.553 5.796 5.795-1.553-1.553-5.796 5.796-1.553-1.553-5.795z"/><path clip-rule="evenodd" d="m971.942 489.486c-11.203 3.002-22.718-3.646-25.719-14.849-3.002-11.203 3.646-22.718 14.849-25.72 11.203-3.001 22.718 3.647 25.719 14.85 1.221 4.556.846 9.164-.783 13.23l12.469 7.199-2.996 5.195-12.471-7.2c-2.707 3.444-6.511 6.074-11.068 7.295zm-19.924-16.402c2.144 8.002 10.369 12.751 18.371 10.607s12.751-10.37 10.607-18.372c-2.144-8.001-10.369-12.75-18.371-10.606s-12.751 10.369-10.607 18.371z" fill-rule="evenodd"/><path clip-rule="evenodd" d="m1067.51 417.291-11.59 3.106 1.55 5.795-14.48 3.882 1.55 5.796 40.57-10.87-1.56-5.796-14.48 3.882zm22.67 49.83-6.42-35.549-34.77 9.317 12.21 33.997z" fill-rule="evenodd"/><path d="m1152.25 422.539 23.67-6.344c4.8-1.286 9.74 1.563 11.03 6.364l3.1 11.591 5.8-1.553-3.11-11.591c-2.14-8.002-10.37-12.751-18.37-10.607l-23.68 6.345 7.61-13.175-5.2-3-12.73 22.046 22.05 12.728 3-5.197z"/><path d="m690.064 661.296 10.553-40.098 6.675-1.788-10.553 40.097z"/><path clip-rule="evenodd" d="m683.877 625.684c-4.001 1.072-6.376 5.185-5.303 9.186l.776 2.897c1.072 4.001 5.185 6.376 9.186 5.304s6.375-5.185 5.303-9.186l-.777-2.898c-1.072-4.001-5.184-6.375-9.185-5.303zm.492 7.633c-.214-.801.261-1.623 1.061-1.837.8-.215 1.622.26 1.837 1.06l.776 2.898c.215.8-.26 1.623-1.06 1.837-.801.215-1.623-.26-1.837-1.061z" fill-rule="evenodd"/><path clip-rule="evenodd" d="m708.82 637.635c-4.001 1.073-6.375 5.185-5.303 9.186l.776 2.898c1.072 4.001 5.185 6.375 9.186 5.303s6.375-5.184 5.303-9.185l-.776-2.898c-1.072-4.001-5.185-6.376-9.186-5.304zm.492 7.633c-.214-.8.261-1.623 1.061-1.837s1.623.26 1.837 1.061l.776 2.897c.215.801-.26 1.623-1.06 1.838-.8.214-1.623-.261-1.837-1.061z" fill-rule="evenodd"/><path clip-rule="evenodd" d="m814.589 609.295c2.573 9.602-3.126 19.472-12.728 22.045-9.603 2.573-19.473-3.125-22.046-12.728-2.572-9.602 3.126-19.472 12.728-22.045 9.603-2.573 19.473 3.125 22.046 12.728zm-13.144-2.69c-.858-3.201-4.148-5.1-7.349-4.243-3.2.858-5.1 4.148-4.242 7.349.507 1.892 1.825 3.048 2.79 3.896l.088.076c.486.428.886.789 1.201 1.147l-2.526.676.776 2.898 2.883-.772c.284 1.192.524 2.506.489 3.693-.025.834-.185 1.474-.457 1.925-.245.407-.634.755-1.362.95l.776 2.898 11.592-3.106-.777-2.898-6.951 1.863c.11-.517.162-1.039.177-1.543.047-1.569-.267-3.226-.587-4.559l2.91-.78-.776-2.898-3.085.827c-.628-1.104-1.514-1.882-2.215-2.497l-.088-.077c-1.059-.931-1.706-1.547-1.961-2.496-.428-1.6.521-3.245 2.122-3.674 1.6-.429 3.245.521 3.674 2.121z" fill-rule="evenodd"/><path clip-rule="evenodd" d="m907.886 574.978-1.553-5.795-31.875 8.541 1.552 5.795zm4.451 5.019 1.553 5.796-34.774 9.317-1.553-5.795zm-11.383 15.474 1.553 5.795-20.285 5.435-1.553-5.795z" fill-rule="evenodd"/><path clip-rule="evenodd" d="m976.088 562.915c2.144 8.002 10.369 12.751 18.371 10.607 2.954-.792 5.465-2.412 7.351-4.544l10.39 6.001 3-5.194-10.39-6c.9-2.698 1.05-5.681.26-8.634-2.15-8.002-10.374-12.751-18.376-10.607s-12.75 10.369-10.606 18.371zm16.61-7.556-1.553-5.796-5.795 1.553 1.553 5.796-5.796 1.552 1.553 5.796 5.795-1.553 1.553 5.796 5.796-1.553-1.553-5.796 5.799-1.553-1.556-5.795z" fill-rule="evenodd"/><path clip-rule="evenodd" d="m1094.69 518.713-.78-2.898-11.59 3.106.78 2.898-8.7 2.329 1.56 5.796 28.97-7.765-1.55-5.795zm12.4 30.84-4.28-23.7-23.18 6.212 8.14 22.665z" fill-rule="evenodd"/><path d="m1185.79 512.939 9.18-2.463c4.81-1.286 9.74 1.563 11.03 6.364l.77 2.898 5.8-1.553-.78-2.898c-2.14-8.002-10.37-12.75-18.37-10.606l-9.19 2.462 5.49-9.5-5.2-3-10.61 18.371 18.37 10.606 3-5.196z"/></g></svg>