<svg fill="none" height="1049" viewBox="0 0 1602 1049" width="1602" xmlns="http://www.w3.org/2000/svg"><g fill="#352c15"><path clip-rule="evenodd" d="m58.1479 393.673 3.8823 14.489c.8577 3.201-1.0418 6.491-4.2426 7.348l-40.5689 10.871c-3.2008.857-6.4908-1.042-7.34848-4.243l-3.88229-14.489.36036-21.837 40.56891-10.871zm-46.1325 12.361 14.257-3.82.7764 2.898c.8577 3.201 4.1477 5.1 7.3485 4.242 3.2008-.857 5.1003-4.147 4.2426-7.348l-.7764-2.898 14.257-3.82-8.022-13.38-31.8257 8.528z" fill-rule="evenodd"/><path d="m156.672 367.274-14.849 25.719-5.196-3 9.726-16.849-41.064 11.004-1.553-5.796 41.064-11.003-16.847-9.729 3-5.196z"/><path d="m249.762 320.589-52.16 13.976 2.329 8.694 52.16-13.976z"/><path clip-rule="evenodd" d="m203.605 345.38 46.365-12.423 7.764 28.978-46.364 12.423zm19.716 4.035c-.429-1.601.521-3.246 2.122-3.675l5.795-1.552c1.6-.429 3.245.52 3.674 2.121.429 1.6-.521 3.245-2.121 3.674l-5.796 1.553c-1.6.429-3.245-.521-3.674-2.121z" fill-rule="evenodd"/><path clip-rule="evenodd" d="m328.002 299.625c-.858-3.201-4.148-5.1-7.349-4.243-3.201.858-5.1 4.148-4.243 7.349.858 3.201 4.148 5.1 7.349 4.242 3.201-.857 5.1-4.147 4.243-7.348zm6.667 13.277c4.409-1.693 8.345-3.679 11.804-5.963l-3.306-5.007-1.088.697c-4.796 2.974-10.642 5.393-17.544 7.242-7.432 1.992-14.134 2.799-20.104 2.441l-.36 5.989 1.341.063c3.744.127 7.699-.142 11.864-.802l8.66 32.31 5.796-1.553-3.883-14.489 5.796-1.553 3.882 14.489 5.796-1.553z" fill-rule="evenodd"/><path clip-rule="evenodd" d="m421.507 271.878c.523.137 1 .412 1.38.796l34.014 34.316c1.176 1.186 1.167 3.102-.021 4.278-.374.37-.838.637-1.346.773l-46.313 12.409c-1.615.433-3.274-.525-3.706-2.138-.137-.508-.138-1.043-.004-1.552l12.299-46.726c.426-1.615 2.081-2.581 3.697-2.156zm7.57 34.052c-2 .536-3.187 2.592-2.651 4.593.536 2 2.592 3.187 4.593 2.651 2-.536 3.187-2.592 2.651-4.592-.536-2.001-2.592-3.188-4.593-2.652zm-8.138-18.784 5.795-1.553 3.882 14.489-5.795 1.553z" fill-rule="evenodd"/><path clip-rule="evenodd" d="m498.61 275.652c-3.859-14.403 4.689-29.208 19.092-33.068 14.404-3.859 29.209 4.688 33.068 19.092 3.86 14.404-4.688 29.209-19.092 33.068-14.403 3.86-29.208-4.688-33.068-19.092zm5.796-1.553c-.699-2.607-.875-5.231-.592-7.761 2.356 1.2 6.501 3.072 8.509 2.534l5.795-1.553c2.898-.776 3.765-3.338 4.631-5.899.867-2.562 1.733-5.123 4.631-5.9 1.449-.388 2.51-2.225 2.121-3.674l-1.03-3.844c7.726 1.42 14.336 7.135 16.504 15.227 1.155 4.31.881 8.666-.53 12.565l-5.058 1.355c-1.665.447-2.999-1.657-4.296-3.702-1.227-1.934-2.42-3.815-3.829-3.438l-11.591 3.106c-5.225 1.4-.979 5.101 2.657 8.269 1.814 1.581 3.477 3.03 3.735 3.994l1.11 4.142c-10.207 1.228-20.029-5.202-22.767-15.421z" fill-rule="evenodd"/><path clip-rule="evenodd" d="m598.356 242.22 18.647-23.138 27.718 10.715 7.888 29.438-46.365 12.423zm25.635 2.942c3.201-.858 5.1-4.148 4.243-7.349-.858-3.2-4.148-5.1-7.349-4.242-3.2.857-5.1 4.147-4.242 7.348.857 3.201 4.147 5.1 7.348 4.243zm13.532 4.138s-4.062-3.57-12.755-1.24c-8.694 2.329-10.427 7.452-10.427 7.452l1.941 7.245 23.183-6.212z" fill-rule="evenodd"/><path d="m748.599 211.787-8.485 14.697-14.697-8.485 3-5.196 5.826 3.362-.913-3.405c-1.715-6.402-8.295-10.201-14.697-8.486l-2.897.777-1.553-5.796 2.897-.776c9.603-2.573 19.473 3.125 22.046 12.728l.912 3.405 3.365-5.825z"/><path d="m718.065 213.744-14.697-8.485-8.485 14.697 5.196 3 3.364-5.825.91 3.393c2.573 9.602 12.443 15.301 22.045 12.728l2.898-.776-1.553-5.796-2.898.776c-6.402 1.716-12.982-2.083-14.697-8.485l-.909-3.393 5.826 3.362z"/><path clip-rule="evenodd" d="m806.967 220.981 5.587-6.156 7.917 2.538 5.587-6.156 7.917 2.537 5.616-6.163 7.945 2.529-10.87-40.568-14.697-8.486-28.978 7.765zm-1.4-40.001 23.182-6.211 1.553 5.795-23.182 6.212zm20.492 6.933-17.386 4.658 1.552 5.796 17.387-4.659z" fill-rule="evenodd"/><path d="m926.89 149.248c.069-1.24-.054-2.512-.393-3.777-1.715-6.401-8.295-10.2-14.697-8.485s-10.201 8.296-8.485 14.697c.339 1.265.867 2.428 1.547 3.467-3.334 2.497-4.993 6.857-3.849 11.126 1.501 5.601 7.259 8.926 12.86 7.425 1.556-.417 2.935-1.162 4.085-2.141l3.367 12.567-17.386 4.659 1.553 5.795 40.569-10.87-1.553-5.796-17.387 4.659-3.367-12.567c1.485.273 3.052.228 4.608-.189 5.601-1.501 8.925-7.258 7.424-12.859-1.143-4.27-4.76-7.216-8.896-7.711z"/><path clip-rule="evenodd" d="m1021.35 116.951c9.6-2.573 19.47 3.125 22.04 12.728 2.58 9.602-3.12 19.472-12.73 22.045-3.16.848-6.36.797-9.31.003-2.16 2.164-4.9 3.807-8.07 4.656-9.6 2.573-19.474-3.126-22.047-12.728-2.573-9.603 3.125-19.473 12.727-22.046 3.17-.849 6.37-.797 9.32-.002 2.16-2.166 4.9-3.808 8.07-4.656zm-15.84 10.454c-6.398 1.715-10.197 8.295-8.482 14.697 1.715 6.401 8.292 10.2 14.702 8.485 1.35-.363 2.59-.944 3.68-1.695-3.21-2.34-5.68-5.755-6.79-9.896s-.68-8.332.94-11.966c-1.33-.104-2.69.012-4.05.375zm13.7-2.964c1.1-.751 2.34-1.332 3.69-1.695 6.4-1.715 12.98 2.084 14.7 8.485 1.71 6.402-2.09 12.982-8.49 14.697-1.35.363-2.72.479-4.04.375 1.62-3.634 2.05-7.825.94-11.966s-3.58-7.556-6.8-9.896z" fill-rule="evenodd"/><path clip-rule="evenodd" d="m1114.64 82.634 18.38 10.6066 10.09 37.6714-40.57 10.87-13.98-52.1599zm-7.86 51.8 28.98-7.765-7.76-28.9778-11.59 3.1058-3.11-11.591-17.39 4.6587z" fill-rule="evenodd"/><path clip-rule="evenodd" d="m1240.44 76.8792c3.86 14.4035-4.69 29.2088-19.09 33.0678-14.4 3.86-29.21-4.688-33.07-19.0916s4.69-29.2087 19.09-33.0681c14.41-3.8595 29.21 4.6883 33.07 19.0919zm-18.39 14.8894 3-5.1961-8.11-4.682-4.34-16.1863-5.8 1.5529 4.99 18.5869z" fill-rule="evenodd"/><path clip-rule="evenodd" d="m1332.35 47.6293c2.46-5.6164.35-12.1802-4.97-15.2531-5.74-3.3137-13.08-1.3472-16.39 4.3923l-4.96 8.5874c2.36-1.0033 4.97-1.3933 7.56-1.0998l2.59-4.4876.28-.4373c1.76-2.5286 5.2-3.3285 7.92-1.7589 2.75 1.591 3.79 5.0558 2.36 7.8834l-.21.3885-7.45 12.9147-.28.4373c-1.25 1.7891-3.34 2.7127-5.41 2.544l-.52-.0647c-.46-.0781-.91-.2108-1.35-.4008-.22-.0928-.43-.1993-.64-.3197l-.39-.2487-.49-.3722c-.55-.4586-.99-1.0014-1.33-1.5976l-3.21 5.5735c.53.5247 1.12 1.0051 1.76 1.4322l.66.409c.3.1761.61.3373.93.4837l.16.074.66.2751.6.2099.41.1235.63.1571c4.98 1.1121 10.31-1.0611 13-5.7156l7.5-12.9904.29-.5413zm-16.81.1007-.42-.1262c-5.15-1.4449-10.82.7111-13.62 5.5595l-7.5 12.9904-.3.5413-.28.5979c-2.46 5.6164-.35 12.1802 4.97 15.2531l.58.3139c2.72 1.3829 5.76 1.6268 8.52.8849l.59-.174c2.73-.8819 5.16-2.7386 6.7-5.4171l4.96-8.5871c-.64.2729-1.3.5004-1.98.6812-1.8.4837-3.7.6321-5.58.4181l-2.59 4.4878-.28.4374c-1.77 2.5286-5.2 3.3284-7.92 1.7588-2.76-1.591-3.79-5.0558-2.37-7.8834l.22-.3884 7.45-12.9148.28-.4373c1.23-1.7591 3.26-2.6816 5.31-2.5516l.17.0142.39.0492.24.0431.37.0877.51.1638c.32.1165.63.2612.93.4348l.28.1733.18.1281.49.3781c.51.446.93.968 1.26 1.539l3.21-5.5735c-.32-.3129-.65-.6101-1.01-.8891-.22-.1756-.46-.3442-.7-.5061l-.17-.1155-.54-.3305-.6-.3232-.29-.1403-.6-.265z" fill-rule="evenodd"/><path clip-rule="evenodd" d="m1398.27 28.3785-2.33-8.6933c-1.72-6.4016 2.08-12.98167 8.48-14.69697s12.98 2.08369 14.7 8.48527l2.33 8.6933 5.79-1.5529 8.54 31.8756-34.77 9.3175-8.54-31.8756zm15.05-13.3521 2.33 8.6934-11.59 3.1058-2.33-8.6933c-.86-3.2008 1.04-6.4909 4.24-7.3485 3.21-.85767 6.5 1.0418 7.35 4.2426zm3.8 25.7497 1.85 6.9023-5.8 1.5529-1.85-6.9023c-1.1-.5576-1.97-1.5643-2.32-2.8516-.64-2.4006.79-4.8682 3.19-5.5114s4.86.7814 5.51 3.182c.34 1.2873.09 2.5939-.58 3.6281z" fill-rule="evenodd"/><path clip-rule="evenodd" d="m73.5248 485.834 3.1058 11.591c.4288 1.6-.5209 3.245-2.1213 3.674l-28.9778 7.764c-1.6004.429-3.2454-.52-3.6742-2.121l-3.1059-11.591.4644-15.654 26.08-6.988zm-28.7226 7.696 6.9892-1.873.3883 1.449c.6432 2.4 3.1107 3.825 5.5113 3.182s3.8252-3.111 3.182-5.512l-.3882-1.448 6.9892-1.873-4.9374-7.995-17.4558 4.678z" fill-rule="evenodd"/><path d="m172.049 459.434-10.606 18.371-5.197-3 5.484-9.5-23.678 6.344-1.553-5.795 23.678-6.345-9.499-5.485 3-5.197z"/><path clip-rule="evenodd" d="m268.244 424.341-1.553-5.796-34.773 9.318 1.553 5.795zm-2.121 3.674 5.435 20.285-28.978 7.764-5.435-20.284zm-8.589 8.513-8.694 2.33c-.8.214-1.275 1.037-1.06 1.837.19.711.861 1.165 1.57 1.107l.267-.047 8.693-2.329c.8-.214 1.275-1.037 1.061-1.837-.215-.8-1.037-1.275-1.837-1.061z" fill-rule="evenodd"/><path clip-rule="evenodd" d="m352.564 397.089c-.643-2.4-3.111-3.825-5.511-3.182-2.401.644-3.825 3.111-3.182 5.512.643 2.4 3.111 3.825 5.511 3.182 2.401-.644 3.825-3.111 3.182-5.512zm12.021 7.576-2.773-5.321-1.466.74c-3.434 1.675-6.958 2.996-10.576 3.966-4.134 1.107-8.393 1.756-12.781 1.945l.259 5.995 1.802-.102c2.161-.151 4.295-.405 6.403-.762l5.122 19.108 4.346-1.165-2.329-8.693 2.898-.777 2.329 8.693 4.347-1.164-5.121-19.108c2.56-.951 5.073-2.07 7.54-3.355z" fill-rule="evenodd"/><path clip-rule="evenodd" d="m447.42 368.627c.504.137.964.402 1.335.771l21.173 21.085c1.174 1.169 1.178 3.068.009 4.242-.373.375-.838.644-1.349.781l-28.968 7.762c-1.601.429-3.246-.521-3.675-2.121-.137-.511-.136-1.049.002-1.559l7.795-28.847c.432-1.6 2.079-2.546 3.678-2.114zm4.175 21.339c-2.001.536-3.188 2.592-2.652 4.592.536 2.001 2.592 3.188 4.593 2.652 2-.536 3.188-2.592 2.652-4.593-.536-2-2.593-3.187-4.593-2.651zm-6.586-12.988 5.795-1.553 2.718 10.142-5.796 1.553z" fill-rule="evenodd"/><path clip-rule="evenodd" d="m553.419 375.882c9.603-2.573 15.301-12.443 12.728-22.046-2.573-9.602-12.443-15.301-22.045-12.728-9.603 2.573-15.301 12.443-12.728 22.046 2.573 9.602 12.443 15.301 22.045 12.728zm6.935-14.282c.529-1.969.563-4.1-.003-6.211-1.149-4.29-4.484-7.412-8.485-8.487l.361 1.347c.388 1.449-.673 3.286-2.122 3.674s-1.979 1.307-2.509 2.225c-.531.919-1.061 1.837-2.51 2.226l-4.347 1.164c-.888.238-2.611-.466-3.813-1.048-.281 1.651-.219 3.387.243 5.111 1.447 5.401 6.357 8.949 11.702 8.896l-.679-2.532c-.165-.617-.926-1.507-1.767-2.491-1.983-2.322-4.417-5.17-.562-6.203l7.244-1.941c.724-.194 1.837 1.061 2.95 2.316s2.225 2.509 2.95 2.315z" fill-rule="evenodd"/><path clip-rule="evenodd" d="m642.626 314.708 20.788 8.037 5.916 22.078-8.693 2.329-1.553-5.795s-3.674-2.121-9.47-.569c-5.795 1.553-7.917 5.228-7.917 5.228l1.553 5.795-8.693 2.33-5.916-22.079zm10.454 15.834c.858 3.201-1.042 6.491-4.242 7.349-3.201.857-6.491-1.042-7.349-4.243-.857-3.201 1.042-6.491 4.243-7.348 3.201-.858 6.491 1.041 7.348 4.242z" fill-rule="evenodd"/><path d="m757.608 314.957 6.364-11.023-5.795 1.553-1.553-5.796c-1.287-4.801-6.222-7.65-11.023-6.364l-5.796 1.553 7.349 4.243c1.6-.429 3.245.521 3.674 2.121l1.553 5.796-5.796 1.553z"/><path d="m740.79 310.146-1.553-5.796 5.796-1.553-11.023-6.364-6.364 11.023 5.795-1.553 1.553 5.796c1.287 4.801 6.222 7.65 11.023 6.364l5.796-1.553-7.349-4.243c-1.6.429-3.245-.521-3.674-2.121z"/><path clip-rule="evenodd" d="m837.401 299.789 4.631-5.9 6.96 2.794 4.631-5.899 6.961 2.793-7.377-27.529-9.185-5.303-15.938 4.271zm-1.192-27.633 11.591-3.106 1.553 5.796-11.591 3.106zm11.022 6.364-8.693 2.329 1.553 5.796 8.693-2.329z" fill-rule="evenodd"/><path d="m947.642 242.827c.006-.664-.077-1.34-.257-2.013-1.072-4.001-5.185-6.376-9.186-5.304s-6.375 5.185-5.303 9.186c.18.673.447 1.3.784 1.872-2.416 1.777-3.624 4.914-2.801 7.986 1.072 4.001 5.184 6.375 9.185 5.303.497-.133.968-.312 1.41-.533l1.592 5.941-11.591 3.105 1.553 5.796 28.978-7.765-1.553-5.795-11.591 3.106-1.592-5.941c.494-.03.991-.11 1.488-.243 4.001-1.072 6.375-5.185 5.303-9.186-.823-3.071-3.438-5.184-6.419-5.515z"/><g clip-rule="evenodd" fill-rule="evenodd"><path d="m1044.07 213.352c6.4-1.715 12.98 2.084 14.7 8.486 1.71 6.401-2.08 12.981-8.49 14.697-2.11.565-4.24.531-6.21.002-1.44 1.441-3.26 2.537-5.38 3.103-6.4 1.716-12.98-2.083-14.69-8.485-1.72-6.402 2.08-12.982 8.48-14.697 2.11-.566 4.25-.531 6.22-.001 1.43-1.444 3.26-2.539 5.37-3.105zm-10.04 8.902c-3.2.857-5.1 4.147-4.24 7.348s4.15 5.1 7.35 4.243c.5-.135.97-.329 1.4-.573-1.37-1.415-2.41-3.187-2.95-5.223-.55-2.035-.54-4.089-.06-5.999-.49.003-.99.069-1.5.204zm10.19-2.534c.43-.244.9-.438 1.41-.572 3.2-.858 6.49 1.042 7.34 4.243.86 3.2-1.04 6.49-4.24 7.348-.5.134-1 .201-1.49.203.47-1.909.48-3.963-.06-5.999-.55-2.035-1.58-3.808-2.96-5.223z"/><path d="m1148.78 186.85-9.19-5.304-15.93 4.271 9.31 34.773 23.19-6.211zm-17.77 3.21 7.74-2.074 4.88 2.819 5.18 19.331-11.59 3.106z"/><path d="m1255.82 169.039c-2.57-9.602-12.44-15.3-22.05-12.728-9.6 2.573-15.3 12.443-12.73 22.046 2.58 9.602 12.45 15.301 22.05 12.728s15.3-12.443 12.73-22.046zm-19.96 6.636-3.43-12.792 5.79-1.552 2.79 10.39 8.11 4.682-3 5.197z"/><path d="m1351.66 142.816c2.48-4.933.71-11.004-4.14-13.8-5.02-2.899-11.44-1.179-14.34 3.843l-1.87 3.234c2.32-.891 4.87-1.141 7.35-.672 1.35-1.809 3.86-2.363 5.86-1.209s2.78 3.61 1.89 5.678l-.1.202-.14.267-4.5 7.795-.25.387c-1.08 1.494-2.95 2.157-4.69 1.742l-.3-.084-.5-.188-.41-.21-.43-.285c-.28-.205-.52-.436-.74-.689l-3.07 5.328c.39.305.8.587 1.24.842l.47.256.57.27.32.132c4.77 1.914 10.34.08 12.99-4.501l4.5-7.795zm-11.29-3.741-.32-.132c-4.77-1.914-10.34-.08-12.99 4.501l-4.5 7.794-.29.543c-2.48 4.933-.71 11.004 4.13 13.8 5.03 2.9 11.45 1.179 14.35-3.843l1.87-3.233c-2.32.891-4.87 1.141-7.36.672-1.34 1.809-3.86 2.362-5.86 1.208s-2.77-3.61-1.88-5.678l.09-.202.15-.267 4.5-7.794.25-.387c1.07-1.494 2.94-2.157 4.68-1.742l.31.084.49.188.41.21.44.285c.27.204.52.436.74.688l3.07-5.327c-.39-.306-.81-.588-1.25-.842-.15-.09-.31-.175-.47-.256l-.12-.065z"/><path d="m1441.84 109.876c-1.28-4.801-6.22-7.65-11.02-6.364-4.8 1.287-7.65 6.222-6.36 11.023l1.55 5.796-2.9.776 5.44 20.284 23.18-6.211-5.44-20.285-2.89.777zm-11.66 2.763c-.22-1.486.71-2.933 2.19-3.331l.35-.071c1.48-.219 2.93.706 3.33 2.192l1.55 5.796-5.79 1.553-1.56-5.796zm8.97 16.177.88 3.286-2.89.776-.88-3.285c-1-.269-1.84-1.049-2.12-2.122-.43-1.6.52-3.245 2.12-3.674s3.24.521 3.67 2.121c.29 1.073-.04 2.165-.78 2.898z"/><path d="m71.3074 570.285-6.0036-10.814-14.4889 3.882.2533.91c3.276 11.346 10.3997 20.58 19.5641 26.658l-8.492 14.699 5.1925 3 30.9437-53.596-5.1946-2.996-17.9418 31.078c-2.8645-1.96-5.4742-4.304-7.7431-6.983l-.6909-.839zm34.4126 12.52-12.3672.208-2.025 6.485-1.2198-.205c-1.3986-.259-2.7774-.594-4.1307-1.001l-4.6006 7.967c8.7864 3.072 18.5571 3.626 28.2263 1.035z"/><path d="m195.37 530.078-4.304-2.486c-2.87-1.657-6.539-.673-8.196 2.196l-3 5.197 14.693 8.483 3.004-5.194c1.656-2.87.673-6.54-2.197-8.196zm-3.806 18.588-14.697-8.485-18.211 31.546 3.106 11.591 11.591-3.106z"/><path d="m247.863 510.554 46.365-12.424 9.317 34.774-8.485 14.697-34.773 9.317zm14.697 8.485 23.183-6.212 1.552 5.796-23.182 6.212zm20.493 6.932-17.387 4.659 1.553 5.796 17.387-4.659z"/><path d="m351.047 501.541c-2.573-9.602 3.125-19.472 12.727-22.045 9.603-2.573 19.473 3.125 22.046 12.727 1.006 3.756.747 7.552-.515 10.936l18.773 10.839-2.997 5.195-18.776-10.838c-2.3 2.785-5.458 4.908-9.213 5.914-9.602 2.573-19.472-3.126-22.045-12.728zm28.977-7.765c-1.715-6.401-8.295-10.2-14.697-8.485-6.401 1.715-10.2 8.295-8.485 14.697s8.295 10.201 14.697 8.485c6.402-1.715 10.201-8.295 8.485-14.697z"/><path d="m497.669 457.595c2.358 8.803-2.865 17.85-11.668 20.209-1.335.358-2.677.541-3.999.564l-2.469 4.275-5.795 1.552 1.553 5.796-5.796 1.553 1.553 5.795-5.795 1.553 1.552 5.796-11.591 3.106-3.105-11.591 15.196-26.321c-.642-1.157-1.154-2.41-1.512-3.746-2.358-8.802 2.865-17.849 11.667-20.208 8.803-2.358 17.85 2.865 20.209 11.667zm-8.409-2.405c.643 2.4-.782 4.868-3.182 5.511-2.401.643-4.869-.781-5.512-3.182-.643-2.4.782-4.868 3.182-5.511 2.401-.643 4.868.781 5.512 3.182z"/><path d="m565.843 422.246c14.403-3.859 29.208 4.689 33.068 19.092 3.859 14.404-4.689 29.209-19.092 33.068-14.404 3.86-29.209-4.688-33.068-19.092-3.86-14.403 4.688-29.208 19.092-33.068zm3.313 23.959 4.659 17.387 5.796-1.553-4.659-17.387zm-3.053-8.499c-.536-2.001.651-4.057 2.651-4.593 2.001-.536 4.057.651 4.593 2.652.536 2-.651 4.056-2.652 4.592-2 .536-4.056-.651-4.592-2.651z"/><path d="m686.413 408.575c3.105 11.591-8.07 39.432-8.07 39.432s-23.598-18.524-26.704-30.115c-2.573-9.602 3.126-19.472 12.728-22.045 9.603-2.573 19.473 3.125 22.046 12.728zm-11.592 3.105c.858 3.201-1.041 6.491-4.242 7.349-3.201.857-6.491-1.042-7.349-4.243-.857-3.201 1.042-6.491 4.243-7.348 3.201-.858 6.491 1.042 7.348 4.242z"/><path d="m769.464 370.792 6.028 22.497c-1.352 2.069-1.852 4.682-1.162 7.257.676 2.52 2.357 4.503 4.496 5.632-3.422 1.777-5.707 4.166-6.741 7.223l-.291.86 1.399 5.224-20.284 5.436-12.423-46.365zm15.889 36.118c5.795-1.553 10.047-1.14 12.756 1.241l1.164 4.346-23.182 6.212-1.165-4.347c1.156-3.415 4.631-5.899 10.427-7.452zm-31.307-.929 5.795-1.553 1.553 5.796-5.795 1.553zm17.386-4.659-5.795 1.553 1.553 5.796 5.795-1.553zm17.387-4.658c-.858-3.201-4.148-5.101-7.348-4.243-3.201.858-5.101 4.148-4.243 7.348.858 3.201 4.148 5.101 7.348 4.243 3.201-.858 5.101-4.148 4.243-7.348zm-32.084-3.827-5.795 1.553 1.553 5.795 5.795-1.552zm5.796-1.553 5.796-1.553 1.552 5.796-5.795 1.553zm-8.901-10.038-5.796 1.553 1.553 5.795 5.796-1.553zm5.795-1.553 5.796-1.553 1.553 5.796-5.796 1.553z"/><path d="m870.789 351.281-2.801-6.889-11.591 3.106 1.02 7.365c-1.235.952-2.332 2.056-3.27 3.275l-7.372-1.018-3.106 11.591 6.892 2.803c.102.757.253 1.515.456 2.272s.451 1.49.741 2.196l-4.567 5.873 8.485 8.486 5.876-4.568c1.421.586 2.921.993 4.466 1.2l2.802 6.89 11.591-3.106-1.016-7.369c1.233-.952 2.329-2.053 3.266-3.271l7.372 1.018 3.106-11.592-6.892-2.803c-.102-.756-.254-1.515-.456-2.271-.203-.757-.451-1.49-.741-2.196l4.567-5.874-8.485-8.485-5.876 4.568c-1.421-.587-2.922-.993-4.467-1.201zm-11.078 20.176c-1.287-4.801 1.562-9.736 6.363-11.023 4.802-1.286 9.737 1.563 11.023 6.364 1.287 4.801-1.563 9.736-6.364 11.023-4.801 1.286-9.736-1.563-11.022-6.364z"/><path d="m941.209 327.878c-3.201.858-5.101 4.148-4.243 7.349l6.988 26.08c.858 3.201 4.148 5.1 7.348 4.242l34.774-9.317 13.92 5.587-10.87-40.569c-.858-3.2-4.148-5.1-7.349-4.242zm29.678 12.236c.643 2.401-.782 4.868-3.182 5.511-2.401.643-4.868-.781-5.512-3.182-.643-2.4.782-4.868 3.182-5.511 2.401-.643 4.868.781 5.512 3.182zm-16.222 9.005c2.4-.643 3.825-3.11 3.182-5.511-.644-2.401-3.111-3.825-5.512-3.182-2.4.643-3.825 3.111-3.182 5.511.644 2.401 3.111 3.826 5.512 3.182zm29.262-12.499c.643 2.4-.782 4.868-3.182 5.511-2.401.643-4.868-.781-5.512-3.182-.643-2.4.782-4.868 3.182-5.511 2.401-.643 4.868.781 5.512 3.182z"/></g><path d="m1058.46 290.248c-4.8 1.287-7.65 6.222-6.36 11.023l4.66 17.387c1.29 4.801 6.22 7.65 11.02 6.364 4.8-1.287 7.65-6.222 6.37-11.023l-4.66-17.387c-1.29-4.801-6.22-7.65-11.03-6.364z"/><path d="m1048.07 320.987c2.3 8.615 10.49 14.088 19.08 13.264l.84 3.138-5.8 1.553 1.56 5.796 17.38-4.659-1.55-5.795-5.79 1.552-.84-3.138c7.85-3.583 12.2-12.413 9.89-21.028l-5.8 1.553c1.72 6.401-2.08 12.981-8.48 14.697-6.4 1.715-12.98-2.084-14.7-8.486z"/><path d="m1163.98 289.929c3.2-.858 5.1-4.148 4.24-7.348-.86-3.201-4.15-5.101-7.35-4.243s-5.1 4.148-4.24 7.348c.86 3.201 4.15 5.101 7.35 4.243z"/><path clip-rule="evenodd" d="m1185.04 287.392c1.94 7.259-1.97 14.164-5.54 18.722-1.87 2.372-3.82 4.339-5.3 5.708-.74.687-1.37 1.231-1.82 1.608-.22.188-.4.335-.53.437-.06.052-.12.092-.15.12-.03.022-.53.407-1.06.815-.5-.068-1.01-.129-1.51-.206-.16-.025-.39-.062-.68-.112-.58-.101-1.4-.257-2.38-.482-1.97-.447-4.64-1.174-7.44-2.297-5.38-2.159-12.22-6.184-14.16-13.443l-6.21-23.182 11.59-3.106c1.59-.426 3.18-1.44 4.48-2.485.62-.505 1.13-.979 1.47-1.322.18-.171.31-.307.39-.396.04-.044.07-.076.09-.094l1.33-1.515 1.91.646c.02.008.06.021.12.038.12.036.3.088.53.15.48.124 1.15.281 1.94.406 1.65.259 3.54.339 5.13-.087l11.59-3.106zm-25.6-14.399c-.38.351-.83.748-1.34 1.161-1.58 1.277-3.94 2.877-6.7 3.616l-5.79 1.553 4.65 17.386c.68 2.523 2.45 4.615 4.81 6.324l-.74-2.754s1.73-5.123 10.42-7.452c8.7-2.329 12.76 1.241 12.76 1.241l.74 2.754c1.18-2.659 1.67-5.355.99-7.877l-4.66-17.387-5.79 1.553c-2.76.739-5.6.534-7.61.218-.65-.102-1.24-.221-1.74-.336z" fill-rule="evenodd"/><path d="m1240.3 285.006c.86 3.201 4.15 5.1 7.35 4.242l40.57-10.87c3.2-.858 5.1-4.148 4.24-7.348l-6.21-23.183c-.86-3.2-4.15-5.1-7.35-4.242l-20.28 5.435-7.35-4.243-14.49 3.883c-3.2.857-5.1 4.147-4.24 7.348z"/><path clip-rule="evenodd" d="m1343.07 239.668c.77 2.863 2.11 5.416 3.88 7.568-3.01 5.073-4.94 11.637-2.89 19.287l5.79-1.552c-1.39-5.189-.37-9.776 1.67-13.632 4.64 3.036 10.51 4.158 16.29 2.609 10.23-2.742 16.6-12.927 14.6-23.331l-4.41-22.881-22.02 7.619c-10.02 3.465-15.65 14.078-12.91 24.313zm30.35-23.998-15.48 5.356c-7.04 2.435-11 9.895-9.07 17.089.39 1.47 1 2.824 1.79 4.037 2-2.289 4.05-4.09 5.66-5.353.9-.712 1.67-1.26 2.23-1.636.27-.188.5-.333.66-.435.08-.05.14-.09.19-.119v-.002c.26-.164.54-.292.85-.375 1.6-.429 3.25.521 3.67 2.121.36 1.338-.24 2.707-1.38 3.37-.03.016-.07.039-.11.069-.12.071-.29.184-.52.337-.45.307-1.1.772-1.88 1.385-1.47 1.153-3.34 2.803-5.11 4.88 3.24 2.077 7.32 2.834 11.33 1.759 7.2-1.928 11.68-9.087 10.27-16.4z" fill-rule="evenodd"/><path d="m1447.54 189.101 4.66 17.386-5.79 1.553-1.92-7.168c-2.75 4.201-3.68 9.455-2.33 14.517 2.58 9.602 12.45 15.3 22.05 12.728 9.6-2.573 15.3-12.444 12.73-22.046-2.52-9.384-12-15.04-21.39-12.89l-.66.162-1.55-5.795c12.8-3.431 25.96 4.167 29.39 16.97s-4.16 25.963-16.97 29.394c-12.8 3.431-25.96-4.167-29.39-16.971-1.82-6.802-.55-13.867 3.19-19.49l-7.85 2.104-1.55-5.796z"/><path clip-rule="evenodd" d="m98.2543 663.098-4.4299-8.777-11.5911 3.106.2478.881c2.4063 8.161 7.4723 14.85 13.9923 19.373l-6.0198 10.425 5.1917 2.997 22.4587-38.899-5.195-2.996-13.4231 23.255c-1.9552-1.405-3.7465-3.047-5.3254-4.899l-.5953-.72zm24.9637 8.194-9.812.552-.899 5.934c-.685-.104-1.365-.232-2.038-.383l-3.119 5.401c6.002 1.677 12.518 1.817 18.974.087z" fill-rule="evenodd"/><path clip-rule="evenodd" d="m216.129 627.385-5.827-3.364c-1.435-.828-3.269-.337-4.098 1.098l-2.555 4.418 11.023 6.364 2.555-4.418c.828-1.435.337-3.27-1.098-4.098zm-4.457 13.712-11.023-6.364-12.907 22.36 2.333 8.708 8.676-2.325z" fill-rule="evenodd"/><path clip-rule="evenodd" d="m314.055 595.31 6.989 26.08-6.364 11.023-26.08 6.988-9.318-34.773zm-6.932 20.493-17.387 4.659 1.553 5.795 17.387-4.659zm-20.492-6.932 23.182-6.212 1.553 5.795-23.183 6.212z" fill-rule="evenodd"/><path clip-rule="evenodd" d="m381.689 592.717c-2.144-8.002 2.604-16.227 10.606-18.371s16.227 2.605 18.372 10.607c.791 2.954.643 5.939-.261 8.637l10.393 5.997-2.996 5.194-10.393-6.001c-1.885 2.132-4.396 3.752-7.35 4.544-8.002 2.144-16.227-2.605-18.371-10.607zm23.182-6.211c-1.286-4.801-6.221-7.651-11.023-6.364-4.801 1.286-7.65 6.221-6.364 11.022 1.287 4.802 6.222 7.651 11.023 6.364 4.801-1.286 7.65-6.221 6.364-11.022z" fill-rule="evenodd"/><path clip-rule="evenodd" d="m513.822 552.654c1.501 5.601-1.823 11.359-7.425 12.86-.46.123-.922.214-1.382.273l-2.188 3.789-5.795 1.553 1.553 5.796-5.796 1.553 1.553 5.795-8.693 2.329-2.33-8.693 10.673-18.485c-.179-.429-.331-.874-.454-1.335-1.501-5.601 1.823-11.359 7.424-12.86 5.602-1.501 11.359 1.823 12.86 7.425zm-8.305 3.778c1.6-.429 2.55-2.074 2.121-3.674-.429-1.601-2.074-2.55-3.674-2.121-1.6.428-2.55 2.073-2.121 3.674.428 1.6 2.073 2.55 3.674 2.121z" fill-rule="evenodd"/><path clip-rule="evenodd" d="m592.242 520.771c9.603-2.573 19.473 3.125 22.046 12.728 2.572 9.602-3.126 19.472-12.728 22.045-9.603 2.573-19.473-3.125-22.046-12.728-2.573-9.602 3.126-19.472 12.728-22.045zm1.761 18.163 3.106 11.591 5.795-1.553-3.105-11.591zm-3.054-8.499c-.536-2.001.651-4.057 2.652-4.593 2-.536 4.057.651 4.593 2.652.536 2-.651 4.056-2.652 4.592-2 .537-4.057-.651-4.593-2.651z" fill-rule="evenodd"/><path clip-rule="evenodd" d="m705.464 502.857c-1.716-6.402-8.296-10.201-14.697-8.486-6.402 1.716-10.201 8.296-8.486 14.697 1.553 5.796 7.488 12.488 17.803 20.077 5.139-11.73 6.932-20.493 5.38-26.288zm-15.938 4.27c-.643-2.401.781-4.868 3.182-5.511 2.4-.644 4.868.781 5.511 3.182.643 2.4-.781 4.868-3.182 5.511-2.4.643-4.868-.781-5.511-3.182z" fill-rule="evenodd"/><path clip-rule="evenodd" d="m800.882 464.866 2.926 10.908c-1.717-.869-3.717-1.193-5.723-.815l-.669.153-.777-2.898-5.795 1.553 1.37 5.112-.263.426c-1.056 1.829-1.472 4.027-1.038 6.229l.139.601c.643 2.4 2.199 4.313 4.193 5.465.105.06.21.118.314.169-3.761 1.966-5.953 4.561-6.859 7.553l-.164.604 1.379 5.148-8.693 2.33-9.318-34.774zm1.193 27.633c5.795-1.553 10.047-1.14 12.755 1.241l1.165 4.346-23.182 6.212-1.165-4.347c1.156-3.415 4.631-5.899 10.427-7.452zm-19.716-4.035 5.795-1.553 1.553 5.796-5.795 1.553zm15.833-10.454c3.201-.858 6.491 1.042 7.349 4.242.857 3.201-1.042 6.491-4.243 7.349s-6.491-1.042-7.348-4.243c-.858-3.201 1.042-6.491 4.242-7.348zm-18.939-1.137 5.795-1.553 1.553 5.796-5.795 1.553z" fill-rule="evenodd"/><path clip-rule="evenodd" d="m893.54 447.003-2.827-6.207-5.796 1.553.659 6.787c-1.146.804-2.129 1.797-2.919 2.921l-6.793-.655-1.553 5.796 6.208 2.825c.062.679.182 1.361.364 2.042.182.68.42 1.331.706 1.95l-3.964 5.551 4.242 4.242 5.557-3.963c1.245.578 2.593.946 3.987 1.07l2.824 6.207 5.796-1.553-.656-6.789c1.145-.804 2.128-1.797 2.917-2.921l6.792.656 1.553-5.795-6.209-2.828c-.061-.678-.181-1.359-.363-2.039-.182-.679-.419-1.329-.704-1.947l3.962-5.554-4.242-4.242-5.554 3.964c-1.246-.579-2.593-.947-3.987-1.071zm-6.862 13.509c-.857-3.201 1.042-6.491 4.243-7.349 3.201-.857 6.491 1.042 7.349 4.243.857 3.201-1.042 6.491-4.243 7.349-3.201.857-6.491-1.042-7.349-4.243z" fill-rule="evenodd"/><path clip-rule="evenodd" d="m1005.28 416.31c-.86-3.201-4.15-5.101-7.349-4.243l-23.182 6.212c-3.201.857-5.101 4.147-4.243 7.348l4.659 17.387c.857 3.201 4.147 5.1 7.348 4.242l20.287-5.435 10.24 3.466zm-17.956 14.128c-.429-1.6.521-3.245 2.122-3.674 1.6-.429 3.245.521 3.674 2.121.429 1.601-.521 3.246-2.121 3.674-1.601.429-3.246-.52-3.675-2.121zm-6.572-1.345c-1.6.429-2.55 2.074-2.121 3.675.429 1.6 2.074 2.55 3.674 2.121 1.601-.429 2.55-2.074 2.122-3.674-.429-1.601-2.074-2.551-3.675-2.122zm15.266-.984c-.429-1.601.521-3.246 2.121-3.674 1.6-.429 3.241.52 3.671 2.121.43 1.6-.52 3.245-2.118 3.674-1.601.429-3.246-.521-3.674-2.121z" fill-rule="evenodd"/><path d="m1080.62 396.121c-.86-3.2 1.04-6.49 4.24-7.348 3.21-.858 6.5 1.042 7.35 4.243l3.11 11.591c.86 3.201-1.04 6.491-4.24 7.348-3.2.858-6.49-1.042-7.35-4.242z"/><path d="m1090.43 421.135c-6.97.43-13.52-4.083-15.4-11.093l5.8-1.553c1.29 4.801 6.22 7.65 11.02 6.364s7.65-6.222 6.37-11.023l5.79-1.553c1.88 7.01-1.53 14.191-7.78 17.305l.85 3.188-5.8 1.553z"/><path d="m1191.23 374.249c.64 2.4-.78 4.868-3.18 5.511s-4.87-.781-5.51-3.182c-.65-2.4.78-4.868 3.18-5.511s4.87.781 5.51 3.182z"/><path clip-rule="evenodd" d="m1177.08 365.779c1.56-1.164 3.57-2.672 6.31-3.405 2.73-.734 5.23-.434 7.16-.204l.15.018c2.07.247 3.52.39 5.06-.022l2.89-.777 4.66 17.387c1.4 5.201-1.71 9.906-4.17 12.726-1.32 1.516-2.7 2.762-3.73 3.624-.52.434-.96.778-1.27 1.017-.16.12-.29.214-.38.281-.35.248-.7.488-1.05.731l-1.28-.109c-.11-.012-.27-.029-.46-.053-.4-.049-.95-.126-1.62-.242-1.32-.231-3.13-.625-5.04-1.277-3.54-1.213-8.58-3.733-9.97-8.934l-4.66-17.386 2.89-.777c1.54-.412 2.73-1.261 4.39-2.506zm20.44 14.55c.22.847.16 1.783-.16 2.775-1.5-.645-4.54-1.516-8.54-.446-3.99 1.07-6.19 3.344-7.17 4.654-.77-.7-1.29-1.477-1.52-2.325l-3.19-11.919c1.38-.721 2.53-1.577 3.49-2.301l.13-.092c1.66-1.244 2.84-2.094 4.38-2.506s2.99-.269 5.05-.023l.16.018c1.19.144 2.61.314 4.17.246z" fill-rule="evenodd"/><path d="m1275.97 371.732 28.97-7.765c1.6-.429 2.55-2.074 2.12-3.674l-5.43-20.285c-.43-1.6-2.07-2.55-3.68-2.121l-14.48 3.882-3.68-2.121-11.59 3.106c-1.6.429-2.55 2.074-2.12 3.674l6.21 23.182c.43 1.601 2.07 2.55 3.68 2.122z"/><path clip-rule="evenodd" d="m1370.22 329.395c.7 2.603 1.98 4.894 3.67 6.768-1.74 3.921-2.71 8.392-1.52 12.844l5.79-1.553c-.63-2.348-.28-4.931.68-7.541 3.47 1.718 7.55 2.23 11.59 1.149 8.8-2.359 14.02-11.406 11.66-20.208l-4.27-15.938-15.93 4.27c-8.81 2.359-14.03 11.407-11.67 20.209zm23.36-17.131-10.14 2.718c-5.6 1.501-8.93 7.258-7.43 12.86.26.934.62 1.805 1.09 2.601.18-.259.35-.513.53-.76 1.79-2.546 3.68-4.692 5.11-6.196.72-.755 1.33-1.356 1.76-1.772.22-.209.4-.371.52-.484.06-.057.11-.101.14-.133l.01-.004c.35-.326.78-.573 1.27-.705 1.6-.429 3.25.521 3.68 2.122.3 1.149-.1 2.322-.94 3.05l-.1.088c-.1.088-.24.224-.43.403-.38.359-.92.892-1.56 1.57-1.3 1.361-2.98 3.278-4.56 5.519-.33.471-.65.947-.96 1.427 2.19 1.067 4.76 1.379 7.3.698 5.61-1.5 8.93-7.258 7.43-12.859z" fill-rule="evenodd"/><path d="m1476.06 283.951 3.89 14.489-6.72-3.879c-1.54 2.66-2.06 5.905-1.2 9.106 1.71 6.402 8.29 10.201 14.7 8.486 6.4-1.716 10.2-8.296 8.48-14.697-1.45-5.401-6.35-8.949-11.7-8.897l-1.58-5.921c8.59-.822 16.77 4.65 19.08 13.265 2.57 9.602-3.13 19.472-12.73 22.045s-19.47-3.125-22.05-12.728c-1.28-4.801-.5-9.67 1.8-13.659l-6.45-3.728z"/><path d="m121.361 733.906-22.1981 21.477 29.9621 7.501 22.198-21.477z"/><path d="m107.352 762.056-5.083 4.918 29.962 7.501 22.198-21.477-6.862-1.718-5.078 4.914.006.001-12.04 11.65-16.252-4.069.004-.004z"/><path d="m110.458 773.647-5.083 4.918 29.962 7.501 22.198-21.477-6.862-1.718-5.079 4.914.007.002-12.041 11.649-16.252-4.068.005-.005z"/><path d="m236.419 717.053-16.534-9.546-9.546 16.534 5.196 3 4.425-7.662 7.898 29.473 5.795-1.553-7.897-29.473 7.663 4.423z"/><path d="m205.036 733.226 8.541 31.876 40.569-10.871-8.541-31.875-11.591 3.106 1.553 5.795 5.795-1.553 5.435 20.285-28.977 7.764-5.436-20.284 5.796-1.553-1.553-5.795z"/><path d="m300.662 707.602 7.765 28.978 17.387-4.658-3.883-14.489 11.591-3.106 3.883 14.489 17.386-4.659-7.764-28.978-27.841-11.175z"/><path clip-rule="evenodd" d="m400.712 663.713c-.643-2.401.781-4.868 3.182-5.512 2.401-.643 4.868.782 5.511 3.182l.389 1.449 17.386-4.658-.388-1.449c-.643-2.401.781-4.868 3.182-5.512 2.401-.643 4.868.782 5.511 3.182l.389 1.449 2.897-.776 8.541 31.875-10.606 18.371-26.08 6.989-12.424-46.365 2.898-.776zm35.37 4.499-28.978 7.764 7.764 28.978 17.387-4.659-3.106-11.591 11.591-3.106z" fill-rule="evenodd"/><path clip-rule="evenodd" d="m543.953 631.308c-1.356-2.195-4.036-3.342-6.657-2.64l-40.569 10.871c-2.62.702-4.368 3.033-4.446 5.612l29.297 5.995zm8.456 30.581-6.51-24.289-22.585 20.028-29.575-6.052 6.51 24.289c.857 3.201 4.147 5.1 7.348 4.243l40.569-10.871c3.201-.857 5.1-4.147 4.243-7.348z" fill-rule="evenodd"/><path d="m643.945 609.409-14.697-8.485 2.33 8.693-10.143 2.718-11.175 27.841-10.142 2.717 1.553 5.796 13.04-3.494 11.175-27.841 7.244-1.941 2.33 8.693 2.329 8.693-7.244 1.941-6.391-5.016-2.329 5.8 7.375 5.788 10.142-2.717 2.329 8.693 8.486-14.697-14.697-8.485z"/><path d="m614.321 622.005-2.328 5.801-6.391-5.017-10.143 2.717-1.553-5.795 13.04-3.494z"/><path d="m714.06 581.303-22.198 21.477 29.963 7.501 17.264-16.704 3.02 11.269c.429 1.6 2.074 2.55 3.674 2.121 1.601-.429 2.55-2.074 2.122-3.674l-3.883-14.489z"/><path d="m705.214 617.838-2.476-9.242 19.975 5 14.798-14.318 2.477 9.242s-4.915 10.635-15.058 13.352c-10.142 2.718-19.716-4.034-19.716-4.034z"/><path clip-rule="evenodd" d="m829.195 547.348c3.201-.858 6.491 1.042 7.348 4.243l9.318 34.773c.857 3.201-1.042 6.491-4.243 7.348l-34.773 9.318c-3.201.857-6.491-1.042-7.349-4.243l-9.317-34.773c-.858-3.201 1.042-6.491 4.242-7.349zm-10.399 30.739c-5.506 1.475-8.917 3.791-10.236 6.947l-.19.505 1.164 4.347 23.183-6.212-1.165-4.347c-2.708-2.38-6.96-2.793-12.756-1.24zm-8.125-7.141c-.857-3.201 1.042-6.491 4.243-7.348 3.201-.858 6.491 1.042 7.348 4.242.858 3.201-1.041 6.491-4.242 7.349-3.201.857-6.491-1.042-7.349-4.243z" fill-rule="evenodd"/><path d="m895.275 538.959-1.553-5.796 3.892-1.043c3.074-.823 6.35-.392 9.106 1.199l20.599 11.893c-.555.601-1.02.963-2.082 1.248-1.296.347-1.88.149-2.981-.223l-.016-.006c-1.451-.49-3.428-1.156-6.472-.34-3.045.816-4.425 2.381-5.436 3.531l-.011.013c-.767.872-1.174 1.336-2.47 1.683-1.296.348-1.881.15-2.981-.222l-.016-.006c-.448-.151-.945-.319-1.508-.455l5.073-8.786-5.196-3c-1.378-.796-3.016-1.012-4.553-.6z"/><path d="m929.26 550.572c-.766.872-1.174 1.336-2.47 1.683s-1.88.15-2.981-.223l-.016-.005c-1.451-.491-3.428-1.156-6.473-.34-3.044.816-4.424 2.38-5.435 3.531l-.011.013c-.767.872-1.174 1.336-2.47 1.683s-1.881.149-2.981-.223l-.017-.005c-1.45-.491-3.428-1.156-6.472-.34-3.045.815-4.425 2.38-5.436 3.53l-.011.013c-.767.873-1.174 1.336-2.47 1.684l1.553 5.795c3.044-.816 4.424-2.38 5.435-3.531l.011-.013c.767-.872 1.175-1.336 2.471-1.683s1.88-.149 2.981.223l.016.005c1.451.491 3.428 1.156 6.473.34 3.044-.815 4.424-2.38 5.435-3.53l.011-.013c.767-.873 1.174-1.336 2.47-1.684 1.296-.347 1.881-.149 2.981.223l.016.006c1.451.49 3.429 1.155 6.473.34 3.045-.816 4.424-2.381 5.436-3.531l.011-.013c.767-.872 1.174-1.336 2.47-1.683 1.296-.348 1.881-.15 2.981.222l.016.006c1.451.491 3.428 1.156 6.473.34l-1.553-5.796c-1.296.348-1.881.15-2.981-.222l-.016-.006c-1.451-.491-3.429-1.156-6.473-.34s-4.424 2.38-5.435 3.531z"/><path d="m896.676 578.959c3.044-.815 4.424-2.38 5.435-3.531l.011-.012c.767-.873 1.175-1.337 2.471-1.684s1.88-.149 2.981.223l.016.005c1.451.491 3.428 1.156 6.472.341 3.045-.816 4.425-2.381 5.436-3.531l.011-.013c.767-.873 1.174-1.336 2.47-1.684 1.296-.347 1.881-.149 2.981.223l.016.006c1.451.49 3.429 1.156 6.473.34s4.424-2.381 5.435-3.531l.012-.013c.766-.872 1.174-1.336 2.47-1.683 1.296-.348 1.881-.15 2.981.222l.016.006c1.451.491 3.428 1.156 6.473.34l-1.553-5.795c-1.296.347-1.881.149-2.981-.223l-.016-.006c-1.451-.49-3.429-1.156-6.473-.34s-4.424 2.381-5.435 3.531l-.012.013c-.766.872-1.174 1.336-2.47 1.683-1.296.348-1.881.15-2.981-.222l-.016-.006c-1.451-.491-3.428-1.156-6.473-.34-3.044.816-4.424 2.38-5.435 3.531l-.011.013c-.767.872-1.175 1.336-2.471 1.683s-1.88.149-2.981-.223l-.016-.005c-1.451-.491-3.428-1.156-6.472-.34-3.045.815-4.425 2.38-5.436 3.531l-.011.012c-.767.873-1.174 1.337-2.47 1.684z"/><path d="m928.031 539.499c4.001-1.072 6.375-5.184 5.303-9.185s-5.184-6.376-9.185-5.303c-4.001 1.072-6.376 5.184-5.303 9.185 1.072 4.001 5.184 6.375 9.185 5.303z"/><path clip-rule="evenodd" d="m1041.15 515.403c-8.9-10.039-19.15-13.505-30.74-10.399-11.591 3.106-18.732 11.231-21.421 24.375 8.901 10.038 19.151 13.504 30.741 10.398 11.59-3.105 18.73-11.23 21.42-24.374zm-17.14-4.634-.05-.094c3.47.991 6.77 2.947 9.97 5.907l.62.589-.24.82c-2.69 8.67-7.95 13.798-16.14 15.991l-.84.212c-7.83 1.851-14.69-.04-21.122-5.994l-.621-.589.243-.821c1.287-4.159 3.168-7.503 5.68-10.096.01.994.15 2.002.41 3.007 1.72 6.402 8.3 10.201 14.7 8.485 6.4-1.715 10.2-8.295 8.49-14.697-.26-.97-.63-1.88-1.1-2.72z" fill-rule="evenodd"/><path clip-rule="evenodd" d="m1115.15 501.785c5.79-1.553 11.01-1.398 15.65.465l1.94 7.244 13.92 5.588-10.87-40.569c-.86-3.201-4.15-5.101-7.35-4.243l-40.57 10.87c-3.2.858-5.1 4.148-4.24 7.349l6.99 26.08c.86 3.201 4.15 5.1 7.35 4.243l5.79-1.553-1.94-7.245.6-.723c3.05-3.548 7.29-6.05 12.73-7.506zm-11.8-9.261c-1.29-4.802 1.56-9.737 6.36-11.023 4.8-1.287 9.74 1.563 11.02 6.364 1.29 4.801-1.56 9.736-6.36 11.022-4.8 1.287-9.74-1.562-11.02-6.363z" fill-rule="evenodd"/><path d="m1218.33 492.773-12.42-46.365-13.51 19.148-8.69 2.329 4.66 17.387 8.69-2.329z"/><path d="m1238.2 462.603c3.17 11.822-3.07 23.948-14.12 28.438l-1.57-5.857c7.85-3.583 12.2-12.413 9.89-21.028s-10.49-14.088-19.08-13.264l-1.57-5.857c11.82-1.638 23.28 5.746 26.45 17.568z"/><path d="m1226.61 465.709c1.44 5.401-1.03 10.929-5.69 13.555l-1.66-6.206c1.46-1.466 2.13-3.651 1.55-5.796-.57-2.146-2.24-3.706-4.24-4.244l-1.66-6.206c5.34-.053 10.25 3.496 11.7 8.897z"/><path clip-rule="evenodd" d="m1287.04 424.668c-3.2.857-5.1 4.147-4.24 7.348l1.55 5.796c.86 3.201 4.15 5.1 7.35 4.242l5.8-1.552c3.2-.858 5.1-4.148 4.24-7.349l-1.55-5.795c-.86-3.201-4.15-5.101-7.35-4.243zm7.35 4.242-5.79 1.553 1.55 5.796 5.79-1.553z" fill-rule="evenodd"/><path clip-rule="evenodd" d="m1316.02 416.903c-3.2.858-5.1 4.148-4.24 7.349l1.55 5.795c.86 3.201 4.15 5.101 7.35 4.243l5.8-1.553c3.2-.858 5.1-4.148 4.24-7.349l-1.55-5.795c-.86-3.201-4.15-5.1-7.35-4.243zm7.35 4.243-5.8 1.553 1.56 5.795 5.79-1.553z" fill-rule="evenodd"/><path clip-rule="evenodd" d="m1290.57 460.994c-.86-3.201 1.04-6.491 4.24-7.348l5.79-1.553c3.2-.858 6.49 1.041 7.35 4.242l1.56 5.796c.85 3.201-1.05 6.491-4.25 7.348l-5.79 1.553c-3.2.858-6.49-1.042-7.35-4.242zm5.79-1.553 5.8-1.553 1.55 5.796-5.8 1.553z" fill-rule="evenodd"/><path d="m1286.68 446.505 5.8-1.553 1.55 5.796-5.79 1.553z"/><path clip-rule="evenodd" d="m1298.27 443.399 1.56 5.796 14.49-3.882 1.55 5.795-5.8 1.553 3.89 14.489 11.59-3.106-1.56-5.795-5.79 1.552-2.33-8.693 5.79-1.553 1.56 5.796 5.79-1.553 2.33 8.693 8.7-2.329-2.33-8.694-8.7 2.33-1.55-5.796 5.8-1.553-1.56-5.795 2.9-.777-1.55-5.795-14.49 3.882 1.55 5.796-5.79 1.553-1.56-5.796zm21.84.361 1.55 5.795 5.8-1.553-1.55-5.795z" fill-rule="evenodd"/><path d="m1310.43 430.824-5.79 1.553 1.55 5.795 5.8-1.553z"/><path d="m1301.53 420.786 5.8-1.553 2.33 8.693-5.8 1.553z"/><path clip-rule="evenodd" d="m1385.57 398.268c-3.2.858-5.1 4.148-4.24 7.349l9.31 34.773c.86 3.201 4.15 5.1 7.35 4.243l34.77-9.318c3.21-.857 5.1-4.147 4.25-7.348l-9.32-34.773c-.86-3.201-4.15-5.101-7.35-4.243zm16.25 14.281-5.8 1.553 4.66 17.387 5.8-1.553zm4.45 5.019 5.79-1.553 3.11 11.592-5.8 1.552zm11.38-15.473-5.79 1.553 6.21 23.182 5.79-1.553z" fill-rule="evenodd"/><path clip-rule="evenodd" d="m1489.11 367.418c-4.8 1.287-7.65 6.222-6.36 11.023l9.32 34.773c1.28 4.801 6.22 7.651 11.02 6.364l31.87-8.541-13.97-52.16zm27.63-1.192-26.08 6.988c-1.6.429-2.55 2.074-2.12 3.674s2.08 2.55 3.68 2.121l26.08-6.988zm-22.97 18.579c-1.02.272-2.04.359-3.03.282l7.12 26.574c.43 1.601 2.07 2.55 3.67 2.122l26.08-6.988-7.76-28.978-5.8 1.553 3.89 14.489-5.13-1.734-3.57 4.063-3.88-14.489z" fill-rule="evenodd"/><path d="m147.76 832.431-15.057 13.352 19.716 4.034 15.057-13.352z"/><path d="m139.756 850.288 13.531 2.769 10.334-9.164 6.185 1.266-15.058 13.352-19.716-4.035z"/><path d="m142.085 858.981 13.531 2.769 10.334-9.163 6.185 1.265-15.057 13.352-19.716-4.034z"/><path clip-rule="evenodd" d="m257.307 812.395-11.022-6.364-6.364 11.023 5.795-1.553 4.659 17.387 5.796-1.553-4.659-17.387zm-12.159 12.576-1.553-5.796-8.693 2.33 6.211 23.182 28.978-7.765-6.212-23.182-8.693 2.329 1.553 5.796 2.898-.776 3.106 11.591-17.387 4.658-3.106-11.591z" fill-rule="evenodd"/><path d="m330.528 795.881 6.212 23.182 11.591-3.105-2.329-8.694 11.591-3.106 2.329 8.694 11.591-3.106-6.211-23.182-20.493-6.933z"/><path clip-rule="evenodd" d="m458.599 752.247c-.429-1.6-2.074-2.55-3.674-2.121-1.601.429-2.551 2.074-2.122 3.674l-17.386 4.659c-.429-1.6-2.074-2.55-3.675-2.121-1.6.429-2.55 2.074-2.121 3.674l-2.898.776 8.541 31.876 34.774-9.318-8.541-31.875zm-19.092 33.068-3.882-14.488 23.182-6.212 3.882 14.489z" fill-rule="evenodd"/><path d="m560.021 725.071-34.773 9.318.902 3.365 19.716 4.035 15.057-13.352z"/><path d="m562.225 733.297-15.057 13.352-19.716-4.035 5.56 20.752 34.774-9.317z"/><path d="m649.076 698.104 11.022 6.364-6.364 11.022-1.552-5.795-2.99.801-9.83 21.269-8.602 2.305-1.553-5.796 5.888-1.577 9.83-21.269 5.704-1.529z"/><path d="m656.84 727.081 1.553 5.796 6.364-11.023-11.023-6.364 1.553 5.796-2.989.801-3.89-2.744-2.559 5.538 5.287 3.729z"/><path d="m638.438 712.312-2.559 5.537-3.89-2.744-5.887 1.578-1.553-5.796 8.601-2.304z"/><path clip-rule="evenodd" d="m759.011 679.517-20.104-5.484-14.669 14.801 20.104 5.484 9.78-9.867 1.811 6.761.11.332c.554 1.397 2.078 2.187 3.564 1.789 1.601-.429 2.55-2.074 2.122-3.674zm-13.77 18.155-13.405-3.655 2.468 9.202.752.508c4.019 2.591 8.149 3.318 12.392 2.182 4.507-1.208 7.854-4.175 10.038-8.902l-.21-.776c-.393-.106-.774-.251-1.135-.433-1.34-.672-2.421-1.841-2.957-3.335l-.599-2.204z" fill-rule="evenodd"/><path clip-rule="evenodd" d="m821.597 658.088c-.857-3.201 1.042-6.491 4.243-7.348l23.182-6.212c3.201-.858 6.491 1.042 7.349 4.243l6.211 23.182c.858 3.201-1.041 6.491-4.242 7.348l-23.182 6.212c-3.201.858-6.491-1.042-7.349-4.243zm21.269 9.83c8.694-2.329 12.756 1.241 12.756 1.241l1.165 4.347-23.182 6.211-1.165-4.346s1.733-5.123 10.426-7.453zm3.467-10.246c.857 3.201-1.042 6.491-4.243 7.348-3.201.858-6.491-1.041-7.349-4.242-.857-3.201 1.042-6.491 4.243-7.349 3.201-.857 6.491 1.042 7.349 4.243z" fill-rule="evenodd"/><path d="m954.895 622.371c.858 3.201-1.042 6.491-4.242 7.349-3.201.857-6.491-1.042-7.349-4.243s1.042-6.491 4.243-7.349c3.201-.857 6.491 1.042 7.348 4.243z"/><path d="m960.33 642.656c-1.296.347-1.88.149-2.981-.223l-.016-.006c-1.451-.49-3.428-1.156-6.472-.34-3.045.816-4.425 2.381-5.436 3.531l-.011.013c-.767.872-1.174 1.336-2.47 1.683-1.296.348-1.881.15-2.981-.222l-.016-.006c-1.451-.491-3.429-1.156-6.473-.34s-4.424 2.38-5.435 3.531l-.012.013c-.766.872-1.174 1.336-2.47 1.683l1.553 5.796c3.044-.816 4.424-2.381 5.435-3.531l.012-.013c.766-.873 1.174-1.336 2.47-1.684 1.296-.347 1.881-.149 2.981.223l.016.006c1.451.491 3.428 1.156 6.473.34 3.044-.816 4.424-2.381 5.435-3.531l.011-.013c.767-.872 1.175-1.336 2.471-1.683 1.296-.348 1.88-.15 2.981.222l.016.006c1.451.491 3.428 1.156 6.472.34z"/><path d="m919.345 628.791 6.79-1.82c3.074-.823 6.35-.392 9.106 1.199l16.037 9.259c-.493.06-1.019.161-1.582.312-3.044.815-4.424 2.38-5.435 3.53l-.012.013c-.766.873-1.174 1.336-2.47 1.684-1.296.347-1.881.149-2.981-.223l-.016-.006c-1.451-.49-3.428-1.155-6.473-.34-3.044.816-4.424 2.381-5.435 3.531l-.011.013c-.266.302-.488.555-.719.771l7.122-12.336-1.522-.878c-1.378-.796-3.014-1.012-4.551-.6l-6.295 1.686z"/><path clip-rule="evenodd" d="m1056.53 607.562c-6.2-7.658-13.16-10.451-20.89-8.381-7.72 2.071-12.35 7.97-13.89 17.699 6.2 7.658 13.16 10.452 20.88 8.381 7.73-2.07 12.36-7.97 13.9-17.699zm-26.24 2.437.35-.539.04.178.19.65c1.26 3.713 5.2 5.86 9.05 4.831 4-1.072 6.37-5.185 5.3-9.186l-.1-.345c1.55.731 3.08 1.848 4.62 3.381l.32.326-.11.442c-1.49 5.516-4.38 8.526-8.87 9.729l-.58.143c-4.26.953-8.09-.279-11.96-4.135l-.32-.326.11-.443c.5-1.838 1.15-3.399 1.96-4.706z" fill-rule="evenodd"/><path clip-rule="evenodd" d="m1151.94 569.572c-.85-3.201-4.14-5.1-7.34-4.243l-23.19 6.212c-3.2.857-5.1 4.148-4.24 7.348l4.66 17.387c.86 3.201 4.15 5.1 7.35 4.243l2.9-.777-1.56-5.795.32-.514c1.48-2.181 4.01-3.752 7.6-4.714 3.86-1.035 7.02-.845 9.47.569l1.55 5.795 10.25 3.467zm-21.63 12.007c-.85-3.201 1.05-6.491 4.25-7.348 3.2-.858 6.49 1.041 7.35 4.242.85 3.201-1.05 6.491-4.25 7.349-3.2.857-6.49-1.042-7.35-4.243z" fill-rule="evenodd"/><path d="m1231.53 542.036-9.26 11.799-5.8 1.553 4.66 17.386 5.8-1.553 13.92 5.588z"/><path d="m1242.09 569.872 1.59 5.92c7.85-3.583 12.2-12.413 9.89-21.028-2.3-8.616-10.49-14.088-19.08-13.264l1.59 5.92c5.34-.053 10.25 3.495 11.7 8.896s-1.03 10.929-5.69 13.556z"/><path d="m1237.31 552.004c2.85.432 5.33 2.506 6.12 5.477.8 2.971-.31 6.003-2.56 7.806z"/><path clip-rule="evenodd" d="m1314.22 526.09c-.86-3.2 1.04-6.49 4.24-7.348l5.8-1.553c3.2-.858 6.49 1.042 7.35 4.243l1.55 5.795c.86 3.201-1.04 6.491-4.24 7.349l-5.8 1.553c-3.2.857-6.49-1.042-7.35-4.243zm5.8-1.552 5.79-1.553 1.55 5.795-5.79 1.553z" fill-rule="evenodd"/><path d="m1334.14 542.493-1.55-5.796-5.79 1.553 1.55 5.796z"/><path d="m1334.14 542.493 5.8-1.553 1.55 5.795-5.79 1.553z"/><path d="m1344.96 536.489-2.33-8.693 5.79-1.553-1.55-5.796-11.59 3.106 3.88 14.489z"/><path d="m1323.9 539.026-5.8 1.553 3.88 14.489 11.6-3.106-1.56-5.795-5.79 1.553z"/><path d="m1341.64 512.53 5.8-1.553 1.55 5.796-5.79 1.553z"/><path d="m1338.75 513.307-5.8 1.553 1.55 5.795 5.8-1.553z"/><path d="m1352.88 531.262 1.55 5.795-5.8 1.553-1.55-5.795z"/><path d="m1355.2 539.955 1.56 5.796-11.59 3.106-1.56-5.796z"/><path clip-rule="evenodd" d="m1416.99 492.343c-3.2.857-5.1 4.147-4.25 7.348l6.22 23.182c.85 3.201 4.14 5.101 7.34 4.243l23.19-6.212c3.2-.857 5.1-4.147 4.24-7.348l-6.21-23.182c-.86-3.201-4.15-5.101-7.35-4.243zm9.67 12.936-5.79 1.552 3.88 14.489 5.8-1.553zm4.46 5.019 5.79-1.553 2.33 8.693-5.8 1.553zm10.6-18.372-5.79 1.553 6.21 23.183 5.79-1.553z" fill-rule="evenodd"/><path clip-rule="evenodd" d="m1518.41 465.166c-3.2.858-5.1 4.148-4.24 7.349l6.21 23.182c.86 3.201 4.15 5.1 7.35 4.243l23.18-6.212-9.32-34.773zm18.94 1.137-17.39 4.659c.43 1.599 2.08 2.55 3.68 2.121l14.48-3.882zm-11.18 27.841-4.01-14.983c.99.077 2.01-.01 3.03-.282l5.79-1.553 1.56 5.795 2.51-2.225 3.28.672-1.55-5.795 2.9-.777 3.88 14.489z" fill-rule="evenodd"/><path d="m158.118 929.042c-.429-1.601.521-3.246 2.121-3.675 1.601-.428 3.246.521 3.674 2.122l.777 2.897 5.795-1.552-.776-2.898c-1.286-4.801-6.222-7.651-11.023-6.364-4.801 1.286-7.65 6.221-6.364 11.023l3.107 11.595-5.795 1.553 15.341 17.298c1.508 1.7 3.846 2.402 6.041 1.815l21.816-5.842c2.195-.588 3.87-2.366 4.326-4.593l4.636-22.654-40.569 10.87z"/><path d="m263.936 941.064 15.396-53.818 6.759-1.811-15.396 53.818z"/><path clip-rule="evenodd" d="m254.985 890.663c-5.601 1.501-8.925 7.259-7.424 12.86l.776 2.898c1.501 5.601 7.259 8.925 12.86 7.424 5.602-1.5 8.926-7.258 7.425-12.859l-.777-2.898c-1.501-5.602-7.258-8.926-12.86-7.425zm-1.629 11.307c-.643-2.4.782-4.868 3.182-5.511 2.401-.643 4.869.781 5.512 3.182l.776 2.898c.643 2.4-.781 4.868-3.182 5.511-2.4.643-4.868-.781-5.511-3.182z" fill-rule="evenodd"/><path clip-rule="evenodd" d="m288.83 912.653c-5.601 1.501-8.925 7.258-7.425 12.86l.777 2.898c1.501 5.601 7.258 8.925 12.86 7.424 5.601-1.501 8.925-7.258 7.424-12.86l-.776-2.897c-1.501-5.602-7.259-8.926-12.86-7.425zm-1.629 11.307c-.643-2.401.781-4.868 3.182-5.512 2.401-.643 4.868.782 5.511 3.182l.777 2.898c.643 2.401-.782 4.868-3.182 5.512-2.401.643-4.868-.782-5.512-3.182z" fill-rule="evenodd"/><path d="m354.959 863.875s1.695 3.428 4.45 5.019c2.756 1.591 6.572 1.345 6.572 1.345s-3.428 1.695-5.019 4.451c-1.591 2.755-1.345 6.572-1.345 6.572s-1.695-3.428-4.45-5.019c-2.756-1.591-6.572-1.345-6.572-1.345s3.428-1.695 5.019-4.451 1.345-6.572 1.345-6.572z"/><path d="m378.245 863.847s3.108 6.285 8.16 9.202 12.048 2.465 12.048 2.465-6.285 3.108-9.201 8.16c-2.917 5.052-2.466 12.049-2.466 12.049s-3.108-6.285-8.16-9.202-12.048-2.466-12.048-2.466 6.285-3.107 9.201-8.159c2.917-5.052 2.466-12.049 2.466-12.049z"/><path d="m367.174 897.872c-4.134-2.387-6.676-7.529-6.676-7.529s.369 5.725-2.017 9.858c-2.387 4.134-7.529 6.676-7.529 6.676s5.725-.369 9.858 2.018c4.134 2.386 6.676 7.528 6.676 7.528s-.369-5.724 2.017-9.858c2.387-4.133 7.529-6.676 7.529-6.676s-5.724.369-9.858-2.017z"/><path d="m452.35 856.428-9.189-5.316 3-5.196 3.992 2.314 6.543-11.348 5.196 3z"/><path d="m492.707 833.178-26.08 6.988 1.553 5.795 26.08-6.988z"/><path d="m452.478 885.886 9.189 5.315 9.543-16.546-5.197-3-6.543 11.348-3.992-2.313z"/><path d="m457.008 873.815-9.189-5.316 3-5.196 3.993 2.313 6.543-11.348 5.196 3z"/><path d="m475.945 874.939 26.08-6.988 1.552 5.796-26.08 6.988z"/><path d="m497.366 850.564-26.08 6.989 1.553 5.795 26.08-6.988z"/><path d="m559.564 827.687 1.553 5.795 17.387-4.659-1.553-5.795z"/><path d="m564.223 845.073-1.553-5.795 11.591-3.106 1.553 5.795z"/><path clip-rule="evenodd" d="m557.803 809.523 11.591-3.105.777 2.897 8.693-2.329c3.201-.858 6.491 1.042 7.349 4.243l10.094 37.671c.857 3.201-1.042 6.491-4.243 7.348l-28.978 7.765c-3.201.857-6.491-1.042-7.348-4.243l-10.094-37.671c-.858-3.201 1.042-6.491 4.242-7.348l8.694-2.33zm2.33 8.694-8.694 2.329 10.094 37.671 28.978-7.764-10.094-37.671-8.693 2.329.776 2.898-11.591 3.106z" fill-rule="evenodd"/><path clip-rule="evenodd" d="m695.191 800.663c-3.859-14.404-18.664-22.951-33.068-19.092-14.403 3.859-22.951 18.664-19.092 33.068 3.86 14.404 18.665 22.951 33.068 19.092 14.404-3.859 22.952-18.665 19.092-33.068zm-13.14-2.678-5.197-3-9.716 16.891-7.678-4.478-3 5.196 12.859 7.425z" fill-rule="evenodd"/><path clip-rule="evenodd" d="m781.893 784.169c-1.027 4.193-1.986 8.105-.905 12.14l-17.387 4.658c-1.081-4.034-3.867-6.943-6.853-10.06-3.449-3.6-7.164-7.479-8.828-13.69-2.573-9.603 3.125-19.473 12.728-22.046 9.602-2.573 19.472 3.126 22.045 12.728 1.665 6.212.386 11.428-.8 16.27zm-28.178-8.505c-1.715-6.402 2.084-12.982 8.486-14.697 6.401-1.715 12.981 2.084 14.697 8.485 1.135 4.238.476 7.891-.598 12.327-.085.353-.177.721-.272 1.103-.195.779-.403 1.613-.6 2.493l-12.478 3.344c-.612-.664-1.209-1.282-1.766-1.86-.273-.282-.537-.555-.788-.819-3.148-3.304-5.545-6.139-6.681-10.376z" fill-rule="evenodd"/><path d="m768.828 808.884-1.552-5.795 11.591-3.106 1.553 5.795z"/><path clip-rule="evenodd" d="m867.361 731.934-8.189-3.162-5.511 6.833-8.484 2.256-.442 8.767-5.538 6.811 4.795 7.353-.476 8.766 8.201 3.13 4.767 7.371 8.475-2.288 8.189 3.161 5.512-6.832 8.483-2.256.443-8.767 5.537-6.812-4.795-7.353.476-8.765-8.201-3.13-4.767-7.371zm6.542 10.253 5.197 3-12.732 22.033-12.859-7.424 3-5.197 7.678 4.478z" fill-rule="evenodd"/><path d="m933.169 715.155 31.876-8.541 1.553 5.796-31.876 8.541z"/><path d="m979.742 715.1-43.467 11.646 1.553 5.796 43.467-11.647z"/><path d="m977.052 728.244-37.671 10.093 1.553 5.796 37.671-10.094z"/><path d="m994.647 735.952-52.16 13.977 1.553 5.795 52.16-13.976z"/><path d="m1053.32 676.749 5.8-1.553 2.33 8.694-5.8 1.553z"/><path d="m1067.3 728.909-2.33-8.693 5.8-1.553 2.32 8.693z"/><path d="m1088.51 692.167-8.69 2.329 1.55 5.796 8.7-2.33z"/><path d="m1036.35 706.143 8.7-2.329 1.55 5.795-8.69 2.33z"/><path d="m1049.38 690.606-7.79-4.5-3 5.196 7.79 4.5z"/><path d="m1080.04 708.29 7.79 4.5-3 5.196-7.79-4.5z"/><path d="m1073.95 677.435-4.5 7.794 5.19 3 4.5-7.794z"/><path d="m1047.26 723.687 4.5-7.795 5.2 3-4.5 7.795z"/><path d="m1067.09 716.542c8-2.144 12.75-10.369 10.61-18.371-2.15-8.002-10.37-12.751-18.37-10.607-8.01 2.144-12.75 10.369-10.61 18.371s10.37 12.751 18.37 10.607z"/><path d="m1160.18 669.857-1.55-5.795-5.8 1.552 1.56 5.796-5.8 1.553 1.55 5.796 5.8-1.553 1.55 5.795 5.8-1.553-1.56-5.795 5.8-1.553-1.55-5.796z"/><path clip-rule="evenodd" d="m1163.49 693.816c-11.2 3.002-22.71-3.647-25.72-14.849-3-11.203 3.65-22.718 14.85-25.72 11.21-3.002 22.72 3.646 25.72 14.849 1.22 4.557.85 9.165-.78 13.231l12.47 7.199-3 5.194-12.47-7.2c-2.7 3.445-6.51 6.075-11.07 7.296zm-19.92-16.402c2.14 8.002 10.37 12.75 18.37 10.606s12.75-10.369 10.61-18.371c-2.15-8.002-10.37-12.751-18.37-10.607-8.01 2.145-12.75 10.37-10.61 18.372z" fill-rule="evenodd"/><path clip-rule="evenodd" d="m1259.07 621.621-11.6 3.106 1.56 5.795-14.49 3.882 1.55 5.796 40.57-10.87-1.55-5.796-14.49 3.882zm22.66 49.83-6.41-35.549-34.78 9.317 12.22 33.997z" fill-rule="evenodd"/><path d="m1343.8 626.869 23.68-6.345c4.8-1.286 9.73 1.563 11.02 6.364l3.1 11.591 5.8-1.553-3.11-11.591c-2.14-8.002-10.37-12.751-18.37-10.606l-23.68 6.344 7.61-13.175-5.2-3-12.72 22.046 22.04 12.728 3-5.196z"/><path d="m1441.63 572.704 5.79-1.553 2.33 8.693-5.8 1.553z"/><path d="m1483.39 589.467-44.45-3.619 25.35 36.687 3.41-16.618 18.58 10.728 3-5.196-18.58-10.728z"/><path d="m1437.59 592.42-8.69 2.329 1.55 5.796 8.69-2.329z"/><path d="m1433.76 586.325-8.42-4.864 3-5.196 8.42 4.864z"/><path d="m1536.32 578.387c-3-11.202 3.65-22.717 14.85-25.719 11.21-3.002 22.72 3.646 25.72 14.849 1.22 4.556.85 9.164-.78 13.23l5.24 3.024c2.37-5.418 2.99-11.649 1.34-17.807-3.86-14.403-18.67-22.951-33.07-19.092-14.4 3.86-22.95 18.665-19.09 33.068 1.65 6.158 5.3 11.246 10.06 14.751l3.03-5.238c-3.45-2.706-6.08-6.509-7.3-11.066z"/><path d="m1556.61 584.549c3.2.858 6.49-1.042 7.35-4.242.86-3.201-.36-21.838-.36-21.838s-10.37 15.531-11.23 18.732 1.04 6.491 4.24 7.348z"/><path d="m188.656 1014.03c3.841-1.03 7.785 1.12 9.043 4.83l.143.48.388 1.45-5.796 1.55-.388-1.45c-.214-.8-1.037-1.27-1.837-1.06-.711.19-1.165.86-1.107 1.57l.046.27 2.719 10.14 26.08-6.98-3.03 13.05c-.502 2.16-2.152 3.86-4.293 4.44l-12.365 3.31c-2.14.57-4.421-.08-5.934-1.7l-9.151-9.79 2.898-.77-2.719-10.15c-1.072-4 1.302-8.11 5.303-9.19z"/><path d="m290.47 1024.02 10.553-40.095 6.675-1.788-10.553 40.093z"/><path clip-rule="evenodd" d="m284.283 988.411c-4.001 1.072-6.376 5.185-5.303 9.186l.776 2.893c1.072 4.01 5.185 6.38 9.186 5.31s6.375-5.19 5.303-9.188l-.777-2.898c-1.072-4.001-5.184-6.375-9.185-5.303zm.492 7.633c-.214-.8.261-1.623 1.061-1.837.8-.215 1.622.26 1.837 1.06l.776 2.898c.215.8-.26 1.623-1.06 1.835-.801.22-1.623-.258-1.837-1.059z" fill-rule="evenodd"/><path clip-rule="evenodd" d="m309.226 1000.36c-4.001 1.07-6.375 5.19-5.303 9.19l.776 2.9c1.072 4 5.185 6.37 9.186 5.3s6.375-5.19 5.303-9.19l-.776-2.89c-1.072-4.01-5.185-6.38-9.186-5.31zm.492 7.64c-.214-.81.261-1.63 1.061-1.84.8-.22 1.623.26 1.837 1.06l.776 2.9c.215.8-.26 1.62-1.06 1.83-.8.22-1.623-.26-1.837-1.06z" fill-rule="evenodd"/><path d="m384.256 961.623s1.13 2.285 2.967 3.346 4.382.896 4.382.896-2.286 1.13-3.347 2.968c-1.06 1.837-.896 4.381-.896 4.381s-1.13-2.286-2.967-3.346c-1.837-1.061-4.382-.897-4.382-.897s2.286-1.13 3.347-2.967c1.06-1.837.896-4.381.896-4.381z"/><path d="m398.073 961.026s2.542 5.143 6.676 7.529c4.133 2.387 9.858 2.017 9.858 2.017s-5.143 2.543-7.529 6.676c-2.387 4.134-2.017 9.858-2.017 9.858s-2.543-5.142-6.676-7.528c-4.134-2.387-9.858-2.017-9.858-2.017s5.142-2.543 7.528-6.676c2.387-4.134 2.018-9.859 2.018-9.859z"/><path d="m391.951 986.478c-2.296-1.326-3.709-4.183-3.709-4.183s.205 3.181-1.12 5.477c-1.326 2.297-4.183 3.709-4.183 3.709s3.18-.205 5.477 1.121c2.296 1.326 3.709 4.182 3.709 4.182s-.205-3.18 1.12-5.476c1.326-2.297 4.183-3.709 4.183-3.709s-3.18.205-5.477-1.121z"/><path d="m487.443 952.623-9.189-5.316 3-5.196 3.992 2.313 6.543-11.348 5.196 3z"/><path d="m492.101 970.01-9.189-5.316 3-5.196 3.992 2.313 6.544-11.348 5.196 3z"/><path d="m495.785 944.163 16.181-4.336-1.553-5.796-10.391 2.785z"/><path d="m516.625 957.214-16.182 4.335 4.237-7.347 10.392-2.784z"/><path clip-rule="evenodd" d="m596.57 907.84-.776-2.898-11.591 3.106.776 2.897-2.897.777c-3.201.857-5.101 4.147-4.243 7.348l5.435 20.285c.858 3.201 4.148 5.1 7.349 4.242l17.386-4.658c3.201-.858 5.101-4.148 4.243-7.349l-5.435-20.284c-.858-3.201-4.148-5.101-7.349-4.243zm1.553 5.795 2.898-.776 5.435 20.284-17.386 4.659-5.436-20.285 2.898-.776.777 2.898 11.591-3.106z" fill-rule="evenodd"/><path clip-rule="evenodd" d="m710.568 892.823c2.573 9.602-3.125 19.473-12.728 22.045-9.602 2.573-19.472-3.125-22.045-12.727-2.573-9.603 3.125-19.473 12.728-22.046 9.602-2.573 19.472 3.126 22.045 12.728zm-17.952 14.141-9.188-5.316 3-5.196 3.992 2.313 6.543-11.348 5.196 3z" fill-rule="evenodd"/><path clip-rule="evenodd" d="m800.747 872.248c-.755 2.16-1.424 4.077-.916 5.975l-11.591 3.105c-.509-1.897-2.047-3.222-3.781-4.716-2.239-1.928-4.803-4.137-5.897-8.22-1.715-6.401 2.084-12.981 8.485-14.697 6.402-1.715 12.982 2.084 14.697 8.486 1.094 4.082-.022 7.277-.997 10.067zm-16.389-5.409c-.858-3.2 1.041-6.49 4.242-7.348s6.491 1.042 7.349 4.243c.503 1.88.198 3.41-.554 5.632-.067.198-.148.429-.238.685-.336.961-.793 2.264-1.077 3.438l-.016.067-3.163.848-.047-.05c-.834-.875-1.88-1.775-2.652-2.439-.206-.177-.392-.337-.549-.475-1.762-1.548-2.792-2.72-3.295-4.601z" fill-rule="evenodd"/><path d="m802.16 886.916-1.553-5.796-11.591 3.106 1.553 5.796z"/><path clip-rule="evenodd" d="m892.11 830.406-6.538-3.11-4.108 5.962-6.822 2.425 1.312 7.12-3.11 6.538 5.962 4.108 2.424 6.822 7.121-1.312 6.538 3.11 4.108-5.962 6.822-2.424-1.312-7.121 3.11-6.538-5.962-4.108-2.425-6.822zm-2.445 23.758-9.189-5.315 3-5.196 3.993 2.313 6.543-11.348 5.196 3z" fill-rule="evenodd"/><path clip-rule="evenodd" d="m1000.91 805.707-1.549-5.795-31.875 8.541 1.553 5.795zm4.45 5.019 1.56 5.796-34.776 9.317-1.552-5.795zm-11.378 15.474 1.553 5.795-20.285 5.435-1.553-5.795z" fill-rule="evenodd"/><path d="m1079.72 775.273 5.8-1.552 1.55 5.795-5.79 1.553z"/><path d="m1089.04 810.047-1.55-5.796 5.79-1.553 1.56 5.796z"/><path d="m1074.91 792.092-5.79 1.553 1.55 5.795 5.79-1.553z"/><path d="m1098.09 785.88 5.8-1.553 1.55 5.796-5.79 1.553z"/><path d="m1078.2 783.179-5.19-3-3 5.196 5.19 3z"/><path d="m1078.57 800.956 5.2 3-3 5.196-5.2-3z"/><path d="m1104.56 798.384-5.19-3-3 5.197 5.19 3z"/><path d="m1093.8 774.607 5.2 3-3 5.197-5.2-3z"/><path d="m1089.61 800.577c4.8-1.286 7.65-6.221 6.36-11.023-1.28-4.801-6.22-7.65-11.02-6.364-4.8 1.287-7.65 6.222-6.36 11.023 1.28 4.801 6.22 7.65 11.02 6.364z"/><path clip-rule="evenodd" d="m1167.64 767.245c2.14 8.002 10.37 12.75 18.37 10.606 2.96-.791 5.47-2.411 7.35-4.543l10.39 6.001 3-5.195-10.39-6c.9-2.697 1.05-5.681.26-8.634-2.15-8.002-10.37-12.751-18.37-10.606-8 2.144-12.75 10.369-10.61 18.371zm16.61-7.557-1.55-5.795-5.8 1.553 1.56 5.795-5.8 1.553 1.55 5.796 5.8-1.553 1.55 5.795 5.8-1.553-1.56-5.795 5.8-1.553-1.55-5.796z" fill-rule="evenodd"/><path clip-rule="evenodd" d="m1286.24 723.043-.78-2.898-11.59 3.106.78 2.897-8.69 2.33 1.55 5.795 28.98-7.764-1.56-5.796zm12.41 30.84-4.28-23.7-23.19 6.212 8.15 22.664z" fill-rule="evenodd"/><path d="m1377.34 717.268 9.19-2.462c4.8-1.287 9.73 1.563 11.02 6.364l.78 2.898 5.79-1.553-.78-2.898c-2.14-8.002-10.36-12.751-18.37-10.607l-9.19 2.463 5.49-9.501-5.2-3-10.6 18.371 18.37 10.607 3-5.196z"/><path d="m1459.33 673.558 37.88 2.273-11.52 9.48 16.63 9.605-3 5.196-16.63-9.605-2.45 14.718z"/><path d="m1569.79 667.839c-.28-.618-.52-1.269-.7-1.95-1.72-6.402 2.08-12.982 8.48-14.697s12.98 2.084 14.7 8.485c.18.681.3 1.364.36 2.042l5.99 2.561c.17-2.014 0-4.091-.56-6.156-2.57-9.602-12.44-15.301-22.04-12.728s-15.3 12.443-12.73 22.046c.55 2.064 1.44 3.949 2.6 5.609z"/><path d="m1582.02 656.211 3.5 13.04c.64 2.401-.78 4.868-3.19 5.511-2.4.644-4.86-.781-5.51-3.182-.24-.911-.19-1.832.1-2.659l.02-.035c.03-.096.07-.19.11-.283z"/></g></svg>