<svg fill="none" height="960" viewBox="0 0 1024 960" width="1024" xmlns="http://www.w3.org/2000/svg" xmlns:xlink="http://www.w3.org/1999/xlink"><clipPath id="a"><path d="m0 0h1024v960h-1024z"/></clipPath><clipPath id="b"><path d="m0 0h54v54h-54z" transform="matrix(.96592583 -.25881905 .25881905 .96592583 61.0488 42.1726)"/></clipPath><clipPath id="c"><path d="m0 0h54v54h-54z" transform="matrix(.96592583 -.25881905 .25881905 .96592583 356.622 -37.0261)"/></clipPath><clipPath id="d"><path d="m0 0h36v36h-36z" transform="matrix(.96592583 -.25881905 .25881905 .96592583 391.715 59.1691)"/></clipPath><clipPath id="e"><path d="m0 0h36v36h-36z" transform="matrix(.96592583 -.25881905 .25881905 .96592583 490.239 32.7695)"/></clipPath><clipPath id="f"><path d="m0 0h36v36h-36z" transform="matrix(.96592583 -.25881905 .25881905 .96592583 687.288 -20.0295)"/></clipPath><clipPath id="g"><path d="m0 0h54v54h-54z" transform="matrix(.96592583 -.25881905 .25881905 .96592583 10.6648 248.234)"/></clipPath><clipPath id="h"><path d="m0 0h54v54h-54z" transform="matrix(.96592583 -.25881905 .25881905 .96592583 207.714 195.435)"/></clipPath><clipPath id="i"><path d="m0 0h54v54h-54z" transform="matrix(.96592583 -.25881905 .25881905 .96592583 404.762 142.636)"/></clipPath><clipPath id="j"><path d="m0 0h54v54h-54z" transform="matrix(.96592583 -.25881905 .25881905 .96592583 503.287 116.237)"/></clipPath><clipPath id="k"><path d="m0 0h54v54h-54z" transform="matrix(.96592583 -.25881905 .25881905 .96592583 700.336 63.4376)"/></clipPath><clipPath id="l"><path d="m0 0h54v54h-54z" transform="matrix(.96592583 -.25881905 .25881905 .96592583 798.86 37.0381)"/></clipPath><clipPath id="m"><path d="m0 0h36v36h-36z" transform="matrix(.96592583 -.25881905 .25881905 .96592583 538.38 212.432)"/></clipPath><clipPath id="n"><path d="m0 0h36v36h-36z" transform="matrix(.96592583 -.25881905 .25881905 .96592583 735.429 159.633)"/></clipPath><clipPath id="o"><path d="m0 0h36v36h-36z" transform="matrix(.96592583 -.25881905 .25881905 .96592583 833.953 133.233)"/></clipPath><clipPath id="p"><path d="m0 0h54v54h-54z" transform="matrix(.96592583 -.25881905 .25881905 .96592583 157.33 401.497)"/></clipPath><clipPath id="q"><path d="m0 0h54v54h-54z" transform="matrix(.96592583 -.25881905 .25881905 .96592583 551.427 295.899)"/></clipPath><clipPath id="r"><path d="m0 0h54v54h-54z" transform="matrix(.96592583 -.25881905 .25881905 .96592583 847.001 216.7)"/></clipPath><clipPath id="s"><path d="m0 0h54v54h-54z" transform="matrix(.96592583 -.25881905 .25881905 .96592583 945.525 190.301)"/></clipPath><clipPath id="t"><path d="m0 0h36v36h-36z" transform="matrix(.96592583 -.25881905 .25881905 .96592583 980.618 286.496)"/></clipPath><clipPath id="u"><path d="m0 0h54v54h-54z" transform="matrix(.96592583 -.25881905 .25881905 .96592583 8.42114 633.958)"/></clipPath><clipPath id="v"><path d="m0 0h54v54h-54z" transform="matrix(.96592583 -.25881905 .25881905 .96592583 106.946 607.559)"/></clipPath><clipPath id="w"><path d="m0 0h54v54h-54z" transform="matrix(.96592583 -.25881905 .25881905 .96592583 303.994 554.76)"/></clipPath><clipPath id="x"><path d="m0 0h54v54h-54z" transform="matrix(.96592583 -.25881905 .25881905 .96592583 501.043 501.961)"/></clipPath><clipPath id="y"><path d="m0 0h54v54h-54z" transform="matrix(.96592583 -.25881905 .25881905 .96592583 599.568 475.561)"/></clipPath><clipPath id="z"><path d="m0 0h54v54h-54z" transform="matrix(.96592583 -.25881905 .25881905 .96592583 796.617 422.762)"/></clipPath><clipPath id="A"><path d="m0 0h36v36h-36z" transform="matrix(.96592583 -.25881905 .25881905 .96592583 43.5139 730.153)"/></clipPath><clipPath id="B"><path d="m0 0h36v36h-36z" transform="matrix(.96592583 -.25881905 .25881905 .96592583 536.136 598.156)"/></clipPath><clipPath id="C"><path d="m0 0h36v36h-36z" transform="matrix(.96592583 -.25881905 .25881905 .96592583 831.709 518.957)"/></clipPath><clipPath id="D"><path d="m0 0h54v54h-54z" transform="matrix(.96592583 -.25881905 .25881905 .96592583 56.5613 813.62)"/></clipPath><clipPath id="E"><path d="m0 0h54v54h-54z" transform="matrix(.96592583 -.25881905 .25881905 .96592583 155.086 787.221)"/></clipPath><clipPath id="F"><path d="m0 0h54v54h-54z" transform="matrix(.96592583 -.25881905 .25881905 .96592583 352.135 734.422)"/></clipPath><clipPath id="G"><path d="m0 0h54v54h-54z" transform="matrix(.96592583 -.25881905 .25881905 .96592583 647.708 655.223)"/></clipPath><clipPath id="H"><path d="m0 0h54v54h-54z" transform="matrix(.96592583 -.25881905 .25881905 .96592583 746.232 628.824)"/></clipPath><clipPath id="I"><path d="m0 0h54v54h-54z" transform="matrix(.96592583 -.25881905 .25881905 .96592583 844.757 602.424)"/></clipPath><clipPath id="J"><path d="m0 0h54v54h-54z" transform="matrix(.96592583 -.25881905 .25881905 .96592583 943.281 576.025)"/></clipPath><clipPath id="K"><path d="m0 0h36v36h-36z" transform="matrix(.96592583 -.25881905 .25881905 .96592583 190.179 883.416)"/></clipPath><clipPath id="L"><path d="m0 0h36v36h-36z" transform="matrix(.96592583 -.25881905 .25881905 .96592583 387.228 830.617)"/></clipPath><clipPath id="M"><path d="m0 0h36v36h-36z" transform="matrix(.96592583 -.25881905 .25881905 .96592583 781.325 725.019)"/></clipPath><clipPath id="N"><path d="m0 0h36v36h-36z" transform="matrix(.96592583 -.25881905 .25881905 .96592583 879.85 698.619)"/></clipPath><clipPath id="O"><path d="m0 0h54v54h-54z" transform="matrix(.96592583 -.25881905 .25881905 .96592583 203.226 966.883)"/></clipPath><clipPath id="P"><path d="m0 0h54v54h-54z" transform="matrix(.96592583 -.25881905 .25881905 .96592583 301.75 940.484)"/></clipPath><clipPath id="Q"><path d="m0 0h54v54h-54z" transform="matrix(.96592583 -.25881905 .25881905 .96592583 400.275 914.084)"/></clipPath><clipPath id="R"><path d="m0 0h54v54h-54z" transform="matrix(.96592583 -.25881905 .25881905 .96592583 597.324 861.285)"/></clipPath><clipPath id="S"><path d="m0 0h54v54h-54z" transform="matrix(.96592583 -.25881905 .25881905 .96592583 695.848 834.885)"/></clipPath><clipPath id="T"><path d="m0 0h54v54h-54z" transform="matrix(.96592583 -.25881905 .25881905 .96592583 892.897 782.086)"/></clipPath><clipPath id="U"><path d="m0 0h54v54h-54z" transform="matrix(.96592583 -.25881905 .25881905 .96592583 991.421 755.687)"/></clipPath><clipPath id="V"><path d="m0 0h36v36h-36z" transform="matrix(.96592583 -.25881905 .25881905 .96592583 927.99 878.281)"/></clipPath><g clip-path="url(#a)"><path d="m21.6723 80.676-14.8492 25.72-5.19615-3 9.72625-16.8492-41.0644 11.0032-1.5529-5.7955 41.06439-11.0032-16.84759-9.7284 3-5.1961z" fill="#352c15"/><g clip-path="url(#b)" fill="#352c15"><path d="m114.762 33.992-52.1604 13.9763 2.3293 8.6933 52.1601-13.9762z"/><path clip-rule="evenodd" d="m68.6052 58.7829 46.3648-12.4233 7.764 28.9778-46.3643 12.4233zm19.716 4.0346c-.4288-1.6004.5209-3.2454 2.1213-3.6742l5.7956-1.5529c1.6004-.4289 3.2454.5209 3.6742 2.1213.4287 1.6004-.5209 3.2454-2.1213 3.6742l-5.7956 1.5529c-1.6004.4288-3.2454-.5209-3.6742-2.1213z" fill-rule="evenodd"/></g><path clip-rule="evenodd" d="m193.002 13.0276c-.858-3.2008-4.148-5.10029-7.349-4.24264-3.2.85765-5.1 4.14764-4.242 7.34844.857 3.2008 4.147 5.1003 7.348 4.2427 3.201-.8577 5.101-4.1477 4.243-7.3485zm6.667 13.2769c4.41-1.6924 8.345-3.6784 11.804-5.9623l-3.306-5.0071-1.088.6963c-4.796 2.9746-10.642 5.3933-17.543 7.2424-7.432 1.9915-14.135 2.799-20.105 2.4406l-.359 5.9893 1.34.0628c3.744.1267 7.699-.1415 11.864-.8016l8.66 32.3094 5.796-1.5529-3.882-14.4889 5.795-1.5529 3.882 14.4889 5.796-1.5529z" fill="#352c15" fill-rule="evenodd"/><path clip-rule="evenodd" d="m286.507-14.7201c.523.1374 1 .4124 1.38.7964l34.014 34.3157c1.176 1.1867 1.167 3.1019-.021 4.2779-.374.3704-.838.6369-1.347.7731l-46.312 12.4095c-1.615.4326-3.274-.5248-3.707-2.1384-.136-.5083-.137-1.0433-.003-1.5522l12.299-46.7253c.425-1.6157 2.081-2.5813 3.697-2.1567zm7.57 34.0522c-2 .5361-3.187 2.5923-2.651 4.5928s2.592 3.1877 4.592 2.6517c2.001-.536 3.188-2.5923 2.652-4.5928s-2.592-3.1877-4.593-2.6517zm-8.139-18.783497 5.796-1.552913 3.882 14.48891-5.795 1.5529z" fill="#352c15" fill-rule="evenodd"/><g clip-path="url(#c)"><path clip-rule="evenodd" d="m363.61-10.9461c-3.859-14.4036 4.688-29.2086 19.092-33.0681 14.404-3.8594 29.209 4.6883 33.068 19.0919 3.86 14.4036-4.688 29.20869-19.092 33.06812-14.403 3.85938-29.208-4.6883-33.068-19.09192zm5.796-1.5529c-.699-2.6072-.875-5.2314-.592-7.7612 2.356 1.2004 6.501 3.0721 8.509 2.5341l5.795-1.5529c2.898-.7765 3.764-3.3381 4.631-5.8996.867-2.5616 1.733-5.1231 4.631-5.8996 1.449-.3882 2.509-2.2253 2.121-3.6742l-1.03-3.8436c7.726 1.4193 14.335 7.1349 16.504 15.2266 1.154 4.3097.881 8.6657-.53 12.5653l-5.058 1.3552c-1.665.44616-2.999-1.6574-4.296-3.7024-1.227-1.9339-2.42-3.8154-3.829-3.438l-11.591 3.1058c-5.225 1.4001-.979 5.10076 2.657 8.26962 1.814 1.5809 3.476 3.02944 3.735 3.99393l1.11 4.14125c-10.207 1.22789-20.029-5.20135-22.767-15.4203z" fill="#352c15" fill-rule="evenodd"/></g><path d="m37.0492 172.836-10.6066 18.372-5.1962-3 5.4836-9.501-23.6777 6.345-1.55292-5.796 23.67772-6.344-9.4991-5.486 3-5.196z" fill="#352c15"/><path clip-rule="evenodd" d="m133.244 137.744-1.553-5.796-34.773 9.318 1.5529 5.795zm-2.121 3.674 5.435 20.284-28.978 7.765-5.435-20.285zm-8.589 8.513-8.694 2.329c-.8.215-1.275 1.037-1.06 1.837.19.712.861 1.166 1.57 1.108l.267-.047 8.693-2.329c.8-.215 1.275-1.037 1.061-1.837-.215-.801-1.037-1.275-1.837-1.061z" fill="#352c15" fill-rule="evenodd"/><path clip-rule="evenodd" d="m217.564 110.492c-.643-2.401-3.111-3.826-5.512-3.182-2.4.643-3.825 3.11-3.182 5.511.644 2.401 3.111 3.825 5.512 3.182 2.4-.643 3.825-3.111 3.182-5.511zm12.021 7.575-2.773-5.321-1.466.74c-3.434 1.675-6.959 2.997-10.576 3.966-4.134 1.107-8.393 1.756-12.781 1.946l.259 5.994 1.802-.102c2.161-.151 4.295-.405 6.402-.762l5.122 19.108 4.347-1.165-2.329-8.693 2.897-.777 2.33 8.694 4.346-1.165-5.121-19.108c2.56-.951 5.074-2.069 7.541-3.355z" fill="#352c15" fill-rule="evenodd"/><path clip-rule="evenodd" d="m312.42 82.0294c.504.1363.964.4018 1.334.7704l21.174 21.0852c1.174 1.169 1.178 3.068.009 4.243-.373.374-.839.644-1.349.78l-28.969 7.762c-1.6.429-3.245-.521-3.674-2.121-.137-.511-.136-1.048.002-1.559l7.794-28.847c.433-1.5995 2.08-2.5457 3.679-2.1136zm4.175 21.3386c-2.001.536-3.188 2.592-2.652 4.593.536 2 2.592 3.187 4.593 2.651 2-.536 3.188-2.592 2.651-4.593-.536-2-2.592-3.187-4.592-2.651zm-6.586-12.9883 5.795-1.5529 2.718 10.1422-5.796 1.553z" fill="#352c15" fill-rule="evenodd"/><g clip-path="url(#d)"><path clip-rule="evenodd" d="m418.419 89.2837c9.602-2.573 15.301-12.4431 12.728-22.0455-2.573-9.6023-12.443-15.3008-22.045-12.7279-9.603 2.573-15.301 12.443-12.728 22.0454s12.443 15.3009 22.045 12.728zm6.935-14.2815c.529-1.9691.563-4.0998-.003-6.211-1.149-4.2904-4.484-7.4117-8.486-8.4876l.361 1.3471c.389 1.4489-.672 3.286-2.121 3.6743-1.449.3882-1.979 1.3068-2.509 2.2253-.531.9186-1.061 1.8371-2.51 2.2254l-4.347 1.1647c-.888.2379-2.611-.4668-3.813-1.048-.281 1.6508-.219 3.3871.243 5.1104 1.447 5.401 6.357 8.9494 11.701 8.8966l-.678-2.5326c-.165-.6165-.926-1.5065-1.767-2.4912-1.984-2.3214-4.417-5.1694-.563-6.2022l7.245-1.9411c.724-.1941 1.837 1.0607 2.95 2.3154 1.112 1.2548 2.225 2.5096 2.949 2.3155z" fill="#352c15" fill-rule="evenodd"/></g><g clip-path="url(#e)"><path clip-rule="evenodd" d="m507.626 28.1108 20.788 8.0364 5.916 22.0782-8.693 2.3293-1.553-5.7955s-3.674-2.1213-9.47-.5684-7.917 5.2271-7.917 5.2271l1.553 5.7956-8.693 2.3294-5.916-22.0782zm10.454 15.8337c.858 3.2008-1.042 6.4909-4.242 7.3485-3.201.8577-6.491-1.0418-7.349-4.2426s1.042-6.4909 4.243-7.3485c3.201-.8577 6.491 1.0418 7.348 4.2426z" fill="#352c15" fill-rule="evenodd"/></g><path d="m622.608 28.3598 6.364-11.0227-5.795 1.5529-1.553-5.7956c-1.287-4.80118-6.222-7.65043-11.023-6.36395l-5.795 1.55291 7.348 4.24264c1.6-.4288 3.245.5209 3.674 2.1213l1.553 5.7956-5.795 1.5529z" fill="#352c15"/><path d="m605.79 23.5487-1.553-5.7955 5.796-1.553-11.023-6.36392-6.364 11.02272 5.796-1.5529 1.552 5.7955c1.287 4.8012 6.222 7.6505 11.023 6.364l5.796-1.5529-7.349-4.2427c-1.6.4289-3.245-.5209-3.674-2.1213z" fill="#352c15"/><g clip-path="url(#f)"><path clip-rule="evenodd" d="m702.401 13.1911 4.631-5.89963 6.961 2.79373 4.63-5.89956 6.961 2.79376-7.377-27.5289-9.185-5.3033-15.938 4.2705zm-1.192-27.633 11.591-3.1058 1.553 5.7956-11.591 3.1058zm11.023 6.364-8.694 2.32937 1.553 5.7955599 8.694-2.3293699z" fill="#352c15" fill-rule="evenodd"/></g><g clip-path="url(#g)"><path clip-rule="evenodd" d="m69.8129 260.338c3.8594 14.404-4.6883 29.209-19.0919 33.068-14.4036 3.86-29.2087-4.688-33.0681-19.092-3.8594-14.403 4.6883-29.208 19.0919-33.068 14.4036-3.859 29.2087 4.689 33.0681 19.092zm-18.3944 14.89 3-5.197-8.1094-4.681-4.3372-16.187-5.7955 1.553 4.9803 18.587z" fill="#352c15" fill-rule="evenodd"/></g><path clip-rule="evenodd" d="m161.718 231.089c2.46-5.617.356-12.181-4.967-15.254-5.739-3.313-13.078-1.347-16.392 4.393l-4.961 8.587c2.367-1.003 4.976-1.393 7.562-1.1l2.595-4.487.278-.438c1.763-2.528 5.199-3.328 7.918-1.758 2.756 1.591 3.786 5.055 2.365 7.883l-.211.388-7.458 12.915-.278.437c-1.247 1.789-3.332 2.713-5.408 2.544l-.517-.064c-.459-.078-.914-.211-1.356-.401-.216-.093-.428-.199-.637-.32l-.39-.249-.493-.372c-.541-.458-.986-1.001-1.326-1.597l-3.213 5.573c.533.525 1.122 1.005 1.763 1.432l.659.409c.305.177.615.338.928.484l.161.074.664.275.6.21.412.124.624.157c4.982 1.112 10.316-1.061 13.003-5.716l7.5-12.99.294-.542zm-16.805.1-.42-.126c-5.153-1.445-10.825.711-13.624 5.56l-7.5 12.99-.294.541-.281.598c-2.459 5.617-.355 12.18 4.967 15.253l.579.314c2.725 1.383 5.758 1.627 8.527.885l.589-.174c2.728-.882 5.151-2.739 6.697-5.417l4.961-8.587c-.644.273-1.306.5-1.981.681-1.805.484-3.7.632-5.584.418l-2.592 4.488-.278.437c-1.763 2.529-5.199 3.329-7.918 1.759-2.756-1.591-3.786-5.056-2.365-7.883l.211-.389 7.458-12.914.278-.438c1.226-1.759 3.263-2.681 5.304-2.551l.18.014.387.049.237.043.372.088.513.164c.315.116.624.261.925.434l.282.174.184.128.485.378c.511.446.933.968 1.259 1.539l3.212-5.574c-.318-.312-.656-.61-1.012-.889-.224-.175-.456-.344-.696-.506l-.174-.115-.54-.331-.598-.323-.287-.14-.603-.265z" fill="#352c15" fill-rule="evenodd"/><g clip-path="url(#h)"><path clip-rule="evenodd" d="m227.637 211.837-2.329-8.693c-1.715-6.402 2.084-12.982 8.485-14.697 6.402-1.715 12.982 2.084 14.697 8.485l2.33 8.694 5.795-1.553 8.541 31.875-34.773 9.318-8.541-31.876zm15.058-13.352 2.329 8.694-11.591 3.105-2.329-8.693c-.858-3.201 1.042-6.491 4.242-7.348 3.201-.858 6.491 1.041 7.349 4.242zm3.794 25.75 1.849 6.902-5.796 1.553-1.849-6.902c-1.103-.558-1.972-1.564-2.317-2.852-.643-2.4.781-4.868 3.182-5.511s4.868.781 5.511 3.182c.345 1.287.096 2.594-.58 3.628z" fill="#352c15" fill-rule="evenodd"/></g><path d="m339.306 188.128c3.201-.858 5.1-4.148 4.243-7.349-.858-3.201-4.148-5.1-7.349-4.243-3.2.858-5.1 4.148-4.242 7.349.857 3.201 4.147 5.1 7.348 4.243z" fill="#352c15"/><path clip-rule="evenodd" d="m360.367 185.59c1.945 7.259-1.965 14.165-5.543 18.723-1.862 2.371-3.813 4.338-5.29 5.707-.742.688-1.372 1.232-1.822 1.608-.226.189-.406.335-.534.438-.064.051-.115.091-.151.12-.027.021-.527.406-1.056.814-.504-.067-1.01-.129-1.513-.205-.162-.025-.392-.062-.681-.113-.578-.1-1.396-.257-2.382-.481-1.964-.447-4.637-1.175-7.435-2.298-5.378-2.158-12.217-6.183-14.162-13.442l-6.211-23.183 11.591-3.105c1.589-.426 3.185-1.44 4.478-2.486.624-.504 1.131-.978 1.477-1.322.173-.17.303-.307.386-.395.041-.044.071-.077.087-.095l1.332-1.515 1.91.646c.024.008.065.021.123.039.116.035.297.088.532.15.472.124 1.147.281 1.94.406 1.643.259 3.532.339 5.121-.087l11.591-3.106zm-25.599-14.398c-.378.35-.828.747-1.339 1.161-1.579 1.276-3.941 2.876-6.698 3.615l-5.796 1.553 4.659 17.387c.676 2.522 2.442 4.615 4.8 6.324l-.738-2.754s1.733-5.123 10.427-7.453c8.693-2.329 12.755 1.241 12.755 1.241l.738 2.754c1.188-2.659 1.671-5.354.995-7.877l-4.658-17.387-5.796 1.553c-2.757.739-5.603.535-7.609.218-.649-.102-1.237-.221-1.74-.335z" fill="#352c15" fill-rule="evenodd"/><g clip-path="url(#i)"><path d="m415.633 183.205c.857 3.201 4.147 5.101 7.348 4.243l40.569-10.871c3.201-.857 5.1-4.147 4.243-7.348l-6.212-23.182c-.858-3.201-4.148-5.101-7.348-4.243l-20.285 5.435-7.348-4.242-14.489 3.882c-3.201.858-5.101 4.148-4.243 7.348z" fill="#352c15"/></g><g clip-path="url(#j)"><path clip-rule="evenodd" d="m518.4 137.867c.767 2.863 2.113 5.416 3.877 7.568-3.009 5.073-4.942 11.637-2.892 19.287l5.795-1.553c-1.39-5.189-.367-9.775 1.668-13.631 4.642 3.036 10.508 4.158 16.287 2.609 10.234-2.742 16.609-12.927 14.603-23.331l-4.412-22.881-22.022 7.619c-10.013 3.465-15.646 14.078-12.904 24.313zm30.345-23.998-15.479 5.356c-7.038 2.435-10.998 9.895-9.07 17.089.394 1.47 1.005 2.824 1.789 4.037 2.002-2.289 4.056-4.09 5.661-5.353.904-.712 1.676-1.26 2.23-1.636.277-.188.501-.333.661-.435.079-.05.143-.09.189-.119l.005-.002c.255-.164.539-.292.848-.375 1.6-.429 3.245.521 3.674 2.121.358 1.338-.246 2.707-1.389 3.37-.024.016-.061.039-.108.069-.113.071-.287.184-.513.337-.452.307-1.107.772-1.887 1.385-1.465 1.153-3.334 2.803-5.106 4.88 3.244 2.077 7.318 2.834 11.332 1.759 7.194-1.928 11.675-9.087 10.265-16.4z" fill="#352c15" fill-rule="evenodd"/></g><path d="m622.873 87.2999 4.658 17.3871-5.795 1.552-1.92-7.1672c-2.748 4.2012-3.679 9.4542-2.323 14.5162 2.573 9.602 12.443 15.301 22.046 12.728 9.602-2.573 15.301-12.443 12.728-22.046-2.515-9.3837-11.999-15.0394-21.391-12.8901l-.655.1626-1.553-5.7955c12.803-3.4306 25.964 4.1673 29.394 16.971 3.431 12.803-4.167 25.963-16.97 29.393-12.804 3.431-25.964-4.167-29.394-16.97-1.823-6.803-.546-13.868 3.187-19.4906l-7.846 2.1038-1.553-5.7956z" fill="#352c15"/><g clip-path="url(#k)" fill="#352c15"><path d="m739.616 105.712-12.424-46.3647-13.504 19.1477-8.693 2.3293 4.658 17.3867 8.694-2.3294z"/><path d="m759.484 75.5418c3.168 11.8218-3.067 23.9479-14.121 28.4382l-1.569-5.8567c7.853-3.583 12.203-12.4135 9.894-21.0286-2.308-8.6151-10.49-14.0878-19.083-13.264l-1.569-5.8566c11.818-1.6381 23.28 5.7459 26.448 17.5677z"/><path d="m747.893 78.6476c1.447 5.401-1.031 10.929-5.685 13.5553l-1.663-6.2057c1.464-1.4663 2.127-3.6515 1.552-5.7967-.574-2.1451-2.242-3.7058-4.243-4.2437l-1.662-6.2058c5.344-.0528 10.254 3.4956 11.701 8.8966z"/></g><g clip-path="url(#l)" fill="#352c15"><g clip-rule="evenodd" fill-rule="evenodd"><path d="m808.33 37.6066c-3.2.8577-5.1 4.1477-4.242 7.3485l1.553 5.7956c.857 3.2008 4.147 5.1002 7.348 4.2426l5.796-1.5529c3.201-.8577 5.1-4.1477 4.242-7.3485l-1.553-5.7955c-.857-3.2008-4.147-5.1003-7.348-4.2427zm7.349 4.2427-5.796 1.5529 1.553 5.7955 5.796-1.5529z"/><path d="m837.308 29.8421c-3.201.8576-5.1 4.1476-4.242 7.3484l1.553 5.7956c.857 3.2008 4.147 5.1003 7.348 4.2426l5.796-1.5529c3.2-.8576 5.1-4.1477 4.242-7.3485l-1.553-5.7955c-.857-3.2008-4.147-5.1003-7.348-4.2427zm7.349 4.2426-5.796 1.5529 1.553 5.7956 5.796-1.5529z"/><path d="m811.852 73.9329c-.857-3.2008 1.042-6.4908 4.243-7.3485l5.796-1.5529c3.2-.8577 6.49 1.0418 7.348 4.2426l1.553 5.7956c.858 3.2008-1.042 6.4908-4.243 7.3485l-5.795 1.5529c-3.201.8576-6.491-1.0419-7.349-4.2427zm5.796-1.5529 5.796-1.553 1.552 5.7956-5.795 1.5529z"/></g><path d="m807.97 59.444 5.796-1.5529 1.553 5.7955-5.796 1.5529z"/><path clip-rule="evenodd" d="m819.561 56.3382 1.553 5.7955 14.489-3.8823 1.553 5.7956-5.796 1.5529 3.883 14.4889 11.591-3.1058-1.553-5.7956-5.796 1.5529-2.329-8.6933 5.795-1.5529 1.553 5.7955 5.796-1.5529 2.329 8.6933 8.694-2.3293-2.33-8.6934-8.693 2.3294-1.553-5.7955 5.796-1.553-1.553-5.7955 2.897-.7765-1.552-5.7955-14.489 3.8823 1.553 5.7955-5.796 1.5529-1.553-5.7955zm21.838.3603 1.552 5.7956 5.796-1.5529-1.553-5.7956z" fill-rule="evenodd"/><path d="m831.721 43.7625-5.796 1.553 1.553 5.7955 5.796-1.5529z"/><path d="m822.819 33.7243 5.796-1.5529 2.329 8.6934-5.795 1.5529z"/></g><path clip-rule="evenodd" d="m906.854 11.207c-3.201.8576-5.1 4.1476-4.242 7.3484l9.317 34.7734c.858 3.2008 4.148 5.1003 7.348 4.2426l34.774-9.3175c3.201-.8576 5.1-4.1476 4.242-7.3484l-9.317-34.77337c-.858-3.2008-4.148-5.10029-7.349-4.24264zm16.25 14.2808-5.796 1.5529 4.659 17.3867 5.796-1.5529zm4.451 5.0191 5.795-1.5529 3.106 11.5911-5.795 1.5529zm11.383-15.4734-5.796 1.5529 6.212 23.1822 5.795-1.5529z" fill="#352c15" fill-rule="evenodd"/><path clip-rule="evenodd" d="m85.1896 352.499c-2.5729-9.603-12.443-15.301-22.0454-12.728s-15.3008 12.443-12.7279 22.045c2.573 9.602 12.443 15.301 22.0454 12.728s15.3009-12.443 12.7279-22.045zm-19.9628 6.635-3.4274-12.791 5.7955-1.553 2.7842 10.391 8.1095 4.682-3 5.196z" fill="#352c15" fill-rule="evenodd"/><path clip-rule="evenodd" d="m181.031 326.275c2.479-4.933.706-11.004-4.137-13.8-5.022-2.899-11.443-1.179-14.343 3.844l-1.868 3.233c2.318-.891 4.868-1.141 7.352-.672 1.344-1.809 3.861-2.363 5.859-1.209 1.999 1.154 2.778 3.611 1.883 5.678l-.093.202-.142.268-4.5 7.794-.251.387c-1.077 1.494-2.945 2.157-4.687 1.742l-.305-.084-.494-.188-.411-.21-.434-.285c-.276-.205-.522-.436-.738-.689l-3.074 5.328c.39.305.805.587 1.246.842l.471.256.568.27.314.132c4.771 1.914 10.346.08 12.991-4.501l4.5-7.794zm-11.294-3.741-.314-.132c-4.771-1.914-10.346-.08-12.991 4.501l-4.5 7.794-.293.543c-2.48 4.934-.707 11.005 4.136 13.801 5.022 2.899 11.444 1.178 14.343-3.844l1.869-3.233c-2.318.891-4.868 1.141-7.353.672-1.344 1.809-3.86 2.362-5.859 1.208s-2.777-3.61-1.882-5.677l.092-.202.143-.268 4.5-7.794.25-.387c1.078-1.494 2.946-2.157 4.688-1.742l.305.084.494.188.41.21.435.285c.275.204.522.436.738.688l3.073-5.327c-.389-.306-.805-.588-1.246-.842-.155-.09-.312-.175-.47-.256l-.128-.065z" fill="#352c15" fill-rule="evenodd"/><path clip-rule="evenodd" d="m271.216 293.336c-1.287-4.801-6.222-7.651-11.023-6.364-4.801 1.286-7.65 6.221-6.364 11.023l1.553 5.795-2.898.777 5.436 20.284 23.182-6.212-5.435-20.284-2.898.776zm-11.662 2.762c-.219-1.486.706-2.932 2.192-3.331l.343-.071c1.486-.218 2.933.707 3.331 2.193l1.553 5.795-5.795 1.553-1.553-5.795zm8.972 16.178.881 3.285-2.898.777-.88-3.286c-1.001-.269-1.835-1.049-2.122-2.122-.429-1.6.521-3.245 2.121-3.674 1.601-.429 3.246.521 3.675 2.122.287 1.072-.045 2.165-.777 2.898z" fill="#352c15" fill-rule="evenodd"/><path d="m366.558 272.447c.643 2.401-.782 4.869-3.182 5.512-2.401.643-4.868-.782-5.511-3.182-.644-2.401.781-4.868 3.182-5.511 2.4-.644 4.868.781 5.511 3.181z" fill="#352c15"/><path clip-rule="evenodd" d="m352.412 263.977c1.554-1.163 3.569-2.672 6.305-3.405s5.236-.434 7.163-.203l.153.018c2.063.246 3.514.389 5.052-.023l2.898-.776 4.658 17.386c1.394 5.201-1.716 9.906-4.174 12.726-1.322 1.516-2.694 2.763-3.725 3.625-.519.434-.96.778-1.277 1.017-.159.12-.287.214-.379.28-.347.248-.699.489-1.049.732l-1.274-.109c-.113-.012-.271-.029-.468-.054-.395-.048-.949-.125-1.615-.242-1.325-.231-3.136-.624-5.038-1.276-3.539-1.213-8.585-3.733-9.979-8.934l-4.658-17.387 2.898-.776c1.537-.412 2.722-1.262 4.386-2.506zm20.434 14.55c.227.848.161 1.783-.158 2.776-1.503-.645-4.542-1.516-8.536-.446-3.993 1.07-6.189 3.343-7.169 4.654-.772-.7-1.297-1.478-1.524-2.325l-3.194-11.919c1.385-.721 2.529-1.578 3.495-2.301l.123-.092c1.664-1.245 2.849-2.094 4.387-2.506s2.989-.269 5.052-.023l.153.018c1.198.143 2.617.313 4.177.245z" fill="#352c15" fill-rule="evenodd"/><path d="m451.294 269.93 28.978-7.764c1.6-.429 2.55-2.074 2.121-3.674l-5.435-20.285c-.429-1.6-2.074-2.55-3.674-2.121l-14.489 3.882-3.675-2.121-11.591 3.106c-1.6.428-2.55 2.074-2.121 3.674l6.212 23.182c.429 1.601 2.074 2.55 3.674 2.121z" fill="#352c15"/><g clip-path="url(#m)"><path clip-rule="evenodd" d="m545.548 227.593c.698 2.604 1.981 4.894 3.669 6.768-1.735 3.921-2.713 8.393-1.52 12.844l5.796-1.553c-.629-2.348-.285-4.931.674-7.541 3.47 1.719 7.555 2.23 11.589 1.149 8.802-2.358 14.026-11.406 11.667-20.208l-4.27-15.938-15.938 4.271c-8.802 2.358-14.026 11.406-11.667 20.208zm23.362-17.13-10.142 2.717c-5.601 1.501-8.925 7.259-7.425 12.86.251.935.62 1.806 1.086 2.601.176-.259.351-.512.525-.76 1.796-2.546 3.683-4.691 5.115-6.196.718-.755 1.328-1.356 1.764-1.772.217-.208.392-.371.515-.484.062-.057.111-.101.146-.132l.005-.005c.348-.325.778-.572 1.271-.704 1.6-.429 3.245.521 3.674 2.121.308 1.149-.095 2.322-.94 3.05l-.096.088c-.096.088-.242.224-.43.403-.375.36-.917.893-1.562 1.571-1.295 1.361-2.978 3.278-4.558 5.518-.332.471-.654.947-.962 1.428 2.193 1.067 4.766 1.379 7.307.698 5.602-1.501 8.926-7.259 7.425-12.86z" fill="#352c15" fill-rule="evenodd"/></g><path d="m651.393 182.15 3.882 14.489-6.717-3.879c-1.536 2.659-2.057 5.905-1.199 9.106 1.715 6.402 8.295 10.201 14.697 8.485 6.401-1.715 10.2-8.295 8.485-14.697-1.447-5.4-6.356-8.948-11.699-8.896l-1.586-5.921c8.591-.822 16.772 4.65 19.08 13.264 2.573 9.603-3.125 19.473-12.728 22.046-9.602 2.573-19.472-3.126-22.045-12.728-1.286-4.801-.505-9.67 1.798-13.659l-6.457-3.728z" fill="#352c15"/><g clip-path="url(#n)" fill="#352c15"><path d="m752.815 154.974-9.261 11.799-5.796 1.553 4.659 17.387 5.795-1.553 13.921 5.587z"/><path d="m763.38 182.81 1.586 5.92c7.854-3.583 12.203-12.413 9.895-21.028-2.309-8.615-10.491-14.088-19.083-13.264l1.586 5.92c5.344-.053 10.254 3.496 11.701 8.897s-1.031 10.929-5.685 13.555z"/><path d="m758.592 164.943c2.858.432 5.331 2.506 6.127 5.476.796 2.971-.308 6.003-2.567 7.807z"/></g><g clip-path="url(#o)" fill="#352c15"><path clip-rule="evenodd" d="m835.506 139.029c-.858-3.201 1.042-6.491 4.243-7.349l5.795-1.553c3.201-.857 6.491 1.042 7.349 4.243l1.553 5.796c.857 3.2-1.042 6.49-4.243 7.348l-5.796 1.553c-3.2.858-6.49-1.042-7.348-4.243zm5.796-1.553 5.795-1.553 1.553 5.795-5.795 1.553z" fill-rule="evenodd"/><path d="m855.43 155.431-1.553-5.796-5.795 1.553 1.553 5.796z"/><path d="m855.43 155.431 5.796-1.553 1.553 5.796-5.796 1.552z"/><path d="m866.245 149.427-2.33-8.693 5.796-1.553-1.553-5.796-11.591 3.106 3.882 14.489z"/><path d="m845.184 151.965-5.796 1.553 3.883 14.488 11.591-3.105-1.553-5.796-5.796 1.553z"/><path d="m862.931 125.469 5.795-1.553 1.553 5.795-5.795 1.553z"/><path d="m860.033 126.245-5.795 1.553 1.552 5.796 5.796-1.553z"/><path d="m874.162 144.2 1.553 5.796-5.796 1.553-1.553-5.796z"/><path d="m876.491 152.893 1.553 5.796-11.591 3.106-1.553-5.796z"/></g><path clip-rule="evenodd" d="m938.273 105.281c-3.201.857-5.1 4.147-4.243 7.348l6.212 23.182c.858 3.201 4.148 5.101 7.349 4.243l23.182-6.212c3.201-.857 5.1-4.147 4.242-7.348l-6.211-23.182c-.858-3.201-4.148-5.1007-7.349-4.2431zm9.678 12.936-5.796 1.552 3.883 14.489 5.795-1.553zm4.451 5.019 5.795-1.553 2.33 8.693-5.796 1.553zm10.606-18.372-5.795 1.553 6.211 23.183 5.796-1.553z" fill="#352c15" fill-rule="evenodd"/><path clip-rule="evenodd" d="m-15.5522 463.35-6.0036-10.815-14.4889 3.883.2533.91c3.276 11.345 10.3997 20.579 19.564 26.658l-8.4919 14.699 5.1925 3 30.9437-53.596-5.19459-2.997-17.94181 31.079c-2.8645-1.96-5.4742-4.304-7.7431-6.983l-.6909-.839zm34.413 12.52-12.36758.208-2.02502 6.485-1.21983-.206c-1.39859-.259-2.7774-.593-4.130715-1.001l-4.600565 7.967c8.78639 3.072 18.55711 3.627 28.22601 1.036z" fill="#352c15" fill-rule="evenodd"/><path clip-rule="evenodd" d="m108.511 423.142-4.304-2.485c-2.87-1.657-6.5397-.674-8.1966 2.196l-3 5.196 14.6936 8.483 3.003-5.194c1.657-2.87.674-6.539-2.196-8.196zm-3.806 18.588-14.697-8.485-18.2108 31.546 3.1059 11.592 11.5911-3.106z" fill="#352c15" fill-rule="evenodd"/><g clip-path="url(#p)"><path clip-rule="evenodd" d="m161.004 403.619 46.365-12.424 9.317 34.774-8.485 14.696-34.774 9.318zm14.697 8.485 23.182-6.212 1.553 5.796-23.182 6.211zm20.493 6.932-17.387 4.659 1.553 5.795 17.386-4.658z" fill="#352c15" fill-rule="evenodd"/></g><path clip-rule="evenodd" d="m264.187 394.606c-2.573-9.603 3.126-19.473 12.728-22.046 9.603-2.573 19.473 3.126 22.046 12.728 1.006 3.755.747 7.552-.516 10.936l18.773 10.839-2.996 5.194-18.776-10.838c-2.3 2.786-5.458 4.908-9.213 5.915-9.603 2.573-19.473-3.126-22.046-12.728zm28.978-7.765c-1.715-6.402-8.295-10.2-14.697-8.485-6.401 1.715-10.2 8.295-8.485 14.697 1.715 6.401 8.295 10.2 14.697 8.485 6.401-1.715 10.2-8.295 8.485-14.697z" fill="#352c15" fill-rule="evenodd"/><path clip-rule="evenodd" d="m410.809 350.66c2.358 8.802-2.865 17.849-11.667 20.208-1.336.358-2.677.541-4 .564l-2.468 4.275-5.796 1.553 1.553 5.795-5.796 1.553 1.553 5.796-5.795 1.553 1.553 5.795-11.591 3.106-3.106-11.591 15.196-26.321c-.642-1.156-1.154-2.41-1.512-3.745-2.358-8.803 2.865-17.85 11.668-20.209 8.802-2.358 17.849 2.865 20.208 11.668zm-8.409-2.406c.643 2.401-.782 4.868-3.182 5.511-2.401.644-4.868-.781-5.512-3.182-.643-2.4.782-4.868 3.182-5.511 2.401-.643 4.869.781 5.512 3.182z" fill="#352c15" fill-rule="evenodd"/><path clip-rule="evenodd" d="m478.983 315.31c14.403-3.859 29.209 4.689 33.068 19.092 3.859 14.404-4.688 29.209-19.092 33.068-14.404 3.86-29.209-4.688-33.068-19.092-3.859-14.403 4.688-29.208 19.092-33.068zm3.314 23.959 4.658 17.387 5.796-1.553-4.659-17.387zm-3.054-8.499c-.536-2.001.651-4.057 2.652-4.593 2-.536 4.056.651 4.592 2.652.536 2-.651 4.056-2.651 4.592-2.001.536-4.057-.651-4.593-2.651z" fill="#352c15" fill-rule="evenodd"/><g clip-path="url(#q)"><path clip-rule="evenodd" d="m599.552 301.639c3.106 11.591-8.069 39.432-8.069 39.432s-23.598-18.524-26.704-30.115c-2.573-9.602 3.126-19.472 12.728-22.045s19.472 3.125 22.045 12.728zm-11.591 3.105c.858 3.201-1.042 6.491-4.242 7.349-3.201.858-6.491-1.042-7.349-4.243-.857-3.201 1.042-6.491 4.243-7.348 3.201-.858 6.491 1.042 7.348 4.242z" fill="#352c15" fill-rule="evenodd"/></g><path clip-rule="evenodd" d="m682.605 263.856 6.028 22.498c-1.352 2.068-1.852 4.682-1.162 7.257.675 2.52 2.356 4.503 4.496 5.631-3.423 1.778-5.707 4.167-6.741 7.224l-.292.86 1.4 5.224-20.284 5.435-12.424-46.364zm15.889 36.118c5.795-1.552 10.047-1.139 12.756 1.241l1.164 4.347-23.182 6.212-1.165-4.347c1.156-3.415 4.631-5.9 10.427-7.453zm-31.307-.928 5.795-1.553 1.553 5.795-5.795 1.553zm17.386-4.659-5.795 1.553 1.553 5.795 5.795-1.552zm17.387-4.659c-.858-3.201-4.148-5.1-7.349-4.242-3.2.857-5.1 4.147-4.242 7.348.857 3.201 4.147 5.1 7.348 4.243 3.201-.858 5.101-4.148 4.243-7.349zm-32.084-3.826-5.795 1.553 1.553 5.795 5.795-1.553zm5.796-1.553 5.795-1.553 1.553 5.795-5.795 1.553zm-8.902-10.038-5.795 1.552 1.553 5.796 5.795-1.553zm5.796-1.553 5.796-1.553 1.553 5.795-5.796 1.553z" fill="#352c15" fill-rule="evenodd"/><path clip-rule="evenodd" d="m783.93 244.346-2.801-6.89-11.592 3.106 1.021 7.365c-1.235.953-2.332 2.056-3.27 3.275l-7.373-1.018-3.105 11.591 6.892 2.804c.102.756.253 1.515.456 2.271.203.757.451 1.49.741 2.196l-4.567 5.874 8.485 8.485 5.876-4.568c1.421.587 2.921.993 4.466 1.201l2.802 6.889 11.591-3.106-1.016-7.369c1.233-.951 2.329-2.053 3.266-3.271l7.372 1.018 3.106-11.591-6.892-2.803c-.102-.757-.254-1.515-.457-2.272-.202-.757-.451-1.49-.74-2.196l4.567-5.873-8.485-8.486-5.876 4.568c-1.422-.586-2.922-.993-4.467-1.2zm-11.079 20.175c-1.286-4.801 1.563-9.736 6.364-11.023 4.802-1.286 9.737 1.563 11.023 6.364 1.287 4.801-1.563 9.736-6.364 11.023-4.801 1.286-9.736-1.563-11.023-6.364z" fill="#352c15" fill-rule="evenodd"/><g clip-path="url(#r)"><path clip-rule="evenodd" d="m854.349 220.943c-3.201.858-5.1 4.148-4.243 7.349l6.988 26.08c.858 3.2 4.148 5.1 7.349 4.242l34.773-9.317 13.921 5.587-10.871-40.569c-.857-3.2-4.147-5.1-7.348-4.242zm29.678 12.236c.643 2.4-.781 4.868-3.182 5.511-2.4.643-4.868-.781-5.511-3.182s.781-4.868 3.182-5.511c2.4-.643 4.868.781 5.511 3.182zm-16.222 9.005c2.401-.643 3.825-3.111 3.182-5.511-.643-2.401-3.111-3.825-5.511-3.182-2.401.643-3.825 3.111-3.182 5.511.643 2.401 3.111 3.825 5.511 3.182zm29.262-12.499c.643 2.4-.781 4.868-3.182 5.511-2.4.643-4.868-.781-5.511-3.182s.781-4.868 3.182-5.511c2.4-.644 4.868.781 5.511 3.182z" fill="#352c15" fill-rule="evenodd"/></g><g clip-path="url(#s)" fill="#352c15"><path d="m971.605 183.312c-4.801 1.287-7.65 6.222-6.364 11.023l4.659 17.387c1.287 4.801 6.222 7.65 11.023 6.364 4.801-1.287 7.65-6.222 6.364-11.023l-4.659-17.387c-1.286-4.801-6.221-7.65-11.023-6.364z"/><path d="m961.207 214.051c2.308 8.615 10.49 14.088 19.083 13.264l.841 3.138-5.796 1.553 1.553 5.796 17.387-4.659-1.553-5.795-5.795 1.552-.841-3.138c7.853-3.583 12.203-12.413 9.894-21.028l-5.795 1.553c1.715 6.401-2.084 12.981-8.486 14.697-6.401 1.715-12.981-2.084-14.697-8.486z"/></g><path clip-rule="evenodd" d="m11.3945 556.162-4.42986-8.777-11.5911 3.106.24781.881c2.40626 8.16 7.47232 14.85 13.99231 19.373l-6.01977 10.425 5.19169 2.997 22.45842-38.899-5.1946-2.996-13.4233 23.255c-1.9552-1.405-3.74644-3.047-5.32536-4.899l-.59531-.721zm24.964 8.194-9.8123.552-.8993 5.934c-.6851-.104-1.3646-.232-2.0375-.383l-3.1193 5.401c6.0021 1.677 12.5184 1.817 18.9742.087z" fill="#352c15" fill-rule="evenodd"/><path clip-rule="evenodd" d="m129.269 520.449-5.827-3.364c-1.434-.829-3.269-.337-4.098 1.098l-2.555 4.418 11.023 6.364 2.555-4.418c.829-1.435.337-3.27-1.098-4.098zm-4.457 13.711-11.022-6.364-12.908 22.361 2.333 8.708 8.676-2.325z" fill="#352c15" fill-rule="evenodd"/><path clip-rule="evenodd" d="m227.196 488.375 6.988 26.08-6.364 11.022-26.08 6.988-9.318-34.773zm-6.933 20.492-17.386 4.659 1.553 5.795 17.386-4.658zm-20.492-6.932 23.182-6.212 1.553 5.796-23.182 6.211z" fill="#352c15" fill-rule="evenodd"/><path clip-rule="evenodd" d="m294.829 485.781c-2.144-8.002 2.605-16.227 10.607-18.371s16.227 2.605 18.371 10.607c.791 2.954.643 5.939-.261 8.637l10.394 5.997-2.997 5.194-10.393-6.001c-1.884 2.132-4.395 3.752-7.35 4.544-8.002 2.144-16.227-2.605-18.371-10.607zm23.182-6.211c-1.286-4.801-6.221-7.651-11.022-6.364-4.802 1.286-7.651 6.221-6.364 11.022 1.286 4.802 6.221 7.651 11.022 6.364 4.802-1.286 7.651-6.221 6.364-11.022z" fill="#352c15" fill-rule="evenodd"/><path clip-rule="evenodd" d="m426.962 445.718c1.501 5.601-1.823 11.359-7.425 12.86-.46.123-.922.214-1.382.273l-2.188 3.789-5.795 1.553 1.553 5.795-5.796 1.553 1.553 5.796-8.693 2.329-2.33-8.693 10.673-18.486c-.179-.428-.331-.873-.454-1.334-1.501-5.602 1.823-11.359 7.424-12.86 5.602-1.501 11.359 1.823 12.86 7.425zm-8.305 3.778c1.6-.429 2.55-2.074 2.121-3.674-.428-1.601-2.073-2.55-3.674-2.122-1.6.429-2.55 2.074-2.121 3.675.429 1.6 2.074 2.55 3.674 2.121z" fill="#352c15" fill-rule="evenodd"/><path clip-rule="evenodd" d="m505.382 413.835c9.603-2.573 19.473 3.125 22.046 12.728 2.573 9.602-3.126 19.472-12.728 22.045-9.603 2.573-19.473-3.126-22.046-12.728s3.126-19.472 12.728-22.045zm1.761 18.163 3.106 11.591 5.796-1.553-3.106-11.591zm-3.054-8.499c-.536-2.001.652-4.057 2.652-4.593 2.001-.536 4.057.651 4.593 2.651.536 2.001-.651 4.057-2.652 4.593-2 .536-4.057-.651-4.593-2.651z" fill="#352c15" fill-rule="evenodd"/><path clip-rule="evenodd" d="m618.604 395.921c-1.716-6.402-8.296-10.201-14.697-8.486-6.402 1.716-10.201 8.296-8.485 14.697 1.552 5.796 7.487 12.488 17.802 20.077 5.139-11.73 6.933-20.493 5.38-26.288zm-15.938 4.27c-.643-2.4.781-4.868 3.182-5.511s4.868.781 5.511 3.182c.644 2.4-.781 4.868-3.182 5.511-2.4.643-4.868-.781-5.511-3.182z" fill="#352c15" fill-rule="evenodd"/><path clip-rule="evenodd" d="m714.022 357.93 2.926 10.908c-1.717-.869-3.716-1.193-5.723-.815l-.669.153-.776-2.898-5.796 1.553 1.37 5.112-.263.426c-1.055 1.829-1.472 4.026-1.038 6.229l.139.601c.644 2.4 2.199 4.313 4.194 5.465.104.06.21.118.313.169-3.76 1.966-5.953 4.56-6.859 7.553l-.164.604 1.379 5.148-8.693 2.33-9.317-34.774zm1.193 27.633c5.796-1.553 10.047-1.14 12.756 1.241l1.164 4.346-23.182 6.212-1.164-4.347c1.155-3.415 4.63-5.899 10.426-7.452zm-19.716-4.035 5.796-1.553 1.552 5.796-5.795 1.553zm15.834-10.454c3.201-.858 6.491 1.042 7.348 4.242.858 3.201-1.042 6.491-4.242 7.349-3.201.858-6.491-1.042-7.349-4.243s1.042-6.491 4.243-7.348zm-18.94-1.137 5.796-1.553 1.553 5.796-5.796 1.553z" fill="#352c15" fill-rule="evenodd"/><path clip-rule="evenodd" d="m806.68 340.067-2.827-6.207-5.795 1.553.658 6.787c-1.145.804-2.129 1.797-2.918 2.921l-6.794-.655-1.553 5.796 6.209 2.825c.061.679.181 1.361.363 2.042.183.68.42 1.331.706 1.949l-3.964 5.551 4.243 4.243 5.556-3.963c1.246.578 2.594.946 3.988 1.07l2.823 6.207 5.796-1.553-.656-6.789c1.145-.805 2.128-1.797 2.917-2.921l6.793.656 1.553-5.795-6.209-2.829c-.061-.677-.181-1.359-.364-2.038-.182-.679-.418-1.33-.704-1.947l3.963-5.554-4.243-4.242-5.554 3.964c-1.245-.579-2.593-.947-3.987-1.071zm-6.861 13.509c-.858-3.201 1.042-6.491 4.242-7.349 3.201-.857 6.491 1.042 7.349 4.243s-1.042 6.491-4.243 7.348c-3.2.858-6.491-1.041-7.348-4.242z" fill="#352c15" fill-rule="evenodd"/><path clip-rule="evenodd" d="m918.42 309.373c-.858-3.2-4.148-5.1-7.349-4.242l-23.182 6.211c-3.201.858-5.1 4.148-4.243 7.349l4.659 17.386c.858 3.201 4.148 5.101 7.349 4.243l20.284-5.435 10.246 3.466zm-17.955 14.129c-.429-1.601.521-3.246 2.121-3.674 1.6-.429 3.245.521 3.674 2.121s-.521 3.245-2.121 3.674-3.245-.521-3.674-2.121zm-6.572-1.345c-1.601.429-2.55 2.074-2.122 3.674.429 1.601 2.074 2.55 3.675 2.122 1.6-.429 2.55-2.074 2.121-3.675-.429-1.6-2.074-2.55-3.674-2.121zm15.265-.985c-.429-1.6.521-3.245 2.121-3.674 1.601-.429 3.246.521 3.675 2.122.428 1.6-.521 3.245-2.122 3.674-1.6.429-3.245-.521-3.674-2.122z" fill="#352c15" fill-rule="evenodd"/><g clip-path="url(#t)" fill="#352c15"><path d="m993.761 289.185c-.857-3.2 1.042-6.49 4.243-7.348 3.196-.858 6.486 1.042 7.346 4.243l3.11 11.591c.86 3.2-1.04 6.491-4.24 7.348-3.21.858-6.495-1.042-7.353-4.242z"/><path d="m1003.57 314.199c-6.974.43-13.518-4.083-15.396-11.093l5.795-1.553c1.287 4.801 6.221 7.65 11.021 6.364 4.8-1.287 7.65-6.222 6.37-11.023l5.79-1.553c1.88 7.01-1.53 14.191-7.78 17.305l.85 3.188-5.8 1.553z"/></g><g clip-path="url(#u)" fill="#352c15"><path d="m34.5011 626.97-22.1977 21.477 29.9623 7.501 22.1977-21.477z"/><path d="m20.4926 655.12-5.0833 4.918 29.9622 7.501 22.1978-21.477-6.8615-1.718-5.0787 4.914.0064.002-12.0404 11.649-16.2521-4.068.0047-.005z"/><path d="m23.5984 666.711-5.0833 4.918 29.9623 7.501 22.1977-21.477-6.8615-1.718-5.0787 4.914.0064.002-12.0404 11.649-16.252-4.068.0047-.005z"/></g><g clip-path="url(#v)" fill="#352c15"><path d="m149.56 610.117-16.534-9.546-9.546 16.534 5.196 3 4.425-7.662 7.897 29.473 5.796-1.553-7.898-29.473 7.664 4.423z"/><path d="m118.176 626.29 8.541 31.876 40.569-10.87-8.541-31.876-11.591 3.106 1.553 5.795 5.796-1.553 5.435 20.285-28.978 7.765-5.435-20.285 5.795-1.553-1.552-5.795z"/></g><path d="m213.803 600.667 7.765 28.978 17.387-4.659-3.883-14.489 11.591-3.105 3.883 14.489 17.386-4.659-7.764-28.978-27.841-11.175z" fill="#352c15"/><g clip-path="url(#w)"><path clip-rule="evenodd" d="m313.853 556.777c-.644-2.4.781-4.868 3.181-5.511 2.401-.643 4.869.781 5.512 3.182l.388 1.449 17.387-4.659-.389-1.449c-.643-2.401.782-4.868 3.182-5.511 2.401-.644 4.869.781 5.512 3.182l.388 1.449 2.898-.777 8.541 31.876-10.607 18.371-26.08 6.988-12.423-46.365 2.898-.776zm35.369 4.499-28.978 7.765 7.765 28.977 17.387-4.658-3.106-11.591 11.591-3.106z" fill="#352c15" fill-rule="evenodd"/></g><g fill="#352c15"><path clip-rule="evenodd" d="m437.14 553.248c5.795-1.553 11.013-1.398 15.653.464l1.941 7.244 13.921 5.588-10.871-40.569c-.857-3.201-4.147-5.1-7.348-4.243l-40.569 10.871c-3.201.857-5.1 4.148-4.243 7.348l6.989 26.08c.857 3.201 4.147 5.101 7.348 4.243l5.796-1.553-1.942-7.244.595-.724c3.053-3.548 7.296-6.049 12.73-7.505zm-11.8-9.262c-1.286-4.801 1.563-9.736 6.364-11.023 4.802-1.286 9.737 1.563 11.023 6.364 1.287 4.801-1.563 9.736-6.364 11.023-4.801 1.286-9.736-1.563-11.023-6.364z" fill-rule="evenodd"/><g clip-path="url(#x)"><path d="m557.086 502.473-14.697-8.485 2.329 8.693-10.142 2.718-11.175 27.841-10.142 2.718 1.553 5.795 13.04-3.494 11.175-27.841 7.244-1.941 2.33 8.693 2.329 8.694-7.245 1.941-6.391-5.017-2.328 5.8 7.375 5.789 10.142-2.718 2.329 8.694 8.485-14.697-14.696-8.486z"/><path d="m527.462 515.07-2.329 5.8-6.391-5.017-10.142 2.718-1.553-5.796 13.04-3.494z"/></g><g clip-path="url(#y)"><path d="m627.2 474.369-22.197 21.477 29.962 7.5 17.265-16.704 3.019 11.269c.429 1.601 2.074 2.55 3.675 2.121 1.6-.428 2.55-2.073 2.121-3.674l-3.882-14.489z"/><path d="m618.355 510.903-2.477-9.242 19.975 5 14.799-14.318 2.476 9.242s-4.915 10.635-15.057 13.352c-10.142 2.718-19.716-4.034-19.716-4.034z"/></g><path clip-rule="evenodd" d="m742.336 440.413c3.201-.858 6.491 1.041 7.348 4.242l9.318 34.774c.857 3.2-1.042 6.49-4.243 7.348l-34.773 9.317c-3.201.858-6.491-1.041-7.349-4.242l-9.317-34.773c-.858-3.201 1.042-6.491 4.242-7.349zm-10.399 30.738c-5.506 1.476-8.918 3.791-10.236 6.947l-.19.506 1.164 4.346 23.183-6.211-1.165-4.347c-2.708-2.38-6.96-2.794-12.756-1.241zm-8.125-7.14c-.857-3.201 1.042-6.491 4.243-7.349 3.201-.857 6.491 1.042 7.348 4.243.858 3.201-1.041 6.491-4.242 7.349-3.201.857-6.491-1.042-7.349-4.243z" fill-rule="evenodd"/><g clip-path="url(#z)"><path d="m808.416 432.024-1.553-5.796 3.892-1.043c3.074-.823 6.35-.392 9.106 1.199l20.598 11.893c-.554.601-1.02.963-2.081 1.248-1.296.347-1.881.149-2.981-.223l-.016-.006c-1.451-.49-3.428-1.156-6.473-.34-3.044.816-4.424 2.381-5.435 3.531l-.011.013c-.767.872-1.175 1.336-2.471 1.683-1.296.348-1.88.15-2.981-.222l-.016-.006c-.447-.151-.944-.319-1.507-.455l5.073-8.786-5.196-3c-1.379-.796-3.016-1.012-4.553-.6z"/><path d="m842.401 443.637c-.767.872-1.174 1.336-2.47 1.683s-1.881.15-2.981-.223l-.016-.005c-1.451-.491-3.429-1.156-6.473-.34-3.044.815-4.424 2.38-5.435 3.531l-.012.012c-.766.873-1.174 1.337-2.47 1.684s-1.881.149-2.981-.223l-.016-.005c-1.451-.491-3.428-1.156-6.473-.341-3.044.816-4.424 2.381-5.435 3.531l-.011.013c-.767.873-1.174 1.336-2.47 1.684l1.552 5.795c3.045-.816 4.425-2.38 5.436-3.531l.011-.013c.767-.872 1.174-1.336 2.47-1.683s1.881-.149 2.981.223l.016.005c1.451.491 3.429 1.156 6.473.34 3.044-.815 4.424-2.38 5.436-3.531l.011-.012c.767-.873 1.174-1.336 2.47-1.684 1.296-.347 1.881-.149 2.981.223l.016.006c1.451.49 3.428 1.155 6.473.34 3.044-.816 4.424-2.381 5.435-3.531l.011-.013c.767-.873 1.175-1.336 2.471-1.683 1.296-.348 1.88-.15 2.981.222l.016.006c1.451.491 3.428 1.156 6.472.34l-1.552-5.796c-1.296.348-1.881.15-2.981-.222l-.017-.006c-1.45-.491-3.428-1.156-6.472-.34-3.045.816-4.425 2.38-5.436 3.531z"/><path d="m809.816 472.024c3.045-.815 4.425-2.38 5.436-3.531l.011-.012c.767-.873 1.174-1.337 2.47-1.684s1.881-.149 2.981.223l.016.005c1.451.491 3.429 1.156 6.473.341 3.044-.816 4.424-2.381 5.435-3.531l.012-.013c.766-.873 1.174-1.336 2.47-1.684 1.296-.347 1.881-.149 2.981.223l.016.006c1.451.49 3.428 1.156 6.473.34 3.044-.816 4.424-2.381 5.435-3.531l.011-.013c.767-.872 1.174-1.336 2.47-1.683 1.296-.348 1.881-.15 2.981.222l.017.006c1.45.491 3.428 1.156 6.472.34l-1.553-5.796c-1.296.348-1.88.15-2.981-.222l-.016-.006c-1.451-.491-3.428-1.156-6.472-.34-3.045.816-4.425 2.381-5.436 3.531l-.011.013c-.767.872-1.174 1.336-2.47 1.683-1.296.348-1.881.15-2.981-.223l-.016-.005c-1.451-.491-3.429-1.156-6.473-.34s-4.424 2.38-5.436 3.531l-.011.013c-.766.872-1.174 1.336-2.47 1.683s-1.881.149-2.981-.223l-.016-.005c-1.451-.491-3.428-1.156-6.473-.34-3.044.815-4.424 2.38-5.435 3.531l-.011.012c-.767.873-1.175 1.336-2.471 1.684z"/><path d="m841.172 432.564c4.001-1.072 6.375-5.184 5.303-9.185s-5.185-6.376-9.186-5.304c-4.001 1.073-6.375 5.185-5.303 9.186s5.185 6.375 9.186 5.303z"/></g><path clip-rule="evenodd" d="m954.289 408.466c-8.901-10.038-19.148-13.504-30.739-10.398s-18.731 11.231-21.421 24.375c8.901 10.038 19.148 13.504 30.739 10.398s18.731-11.231 21.421-24.375zm-17.139-4.633-.054-.095c3.475.992 6.778 2.947 9.974 5.907l.618.59-.241.82c-2.682 8.67-7.947 13.797-16.132 15.991l-.843.212c-7.833 1.851-14.695-.04-21.124-5.995l-.621-.588.244-.821c1.287-4.159 3.168-7.503 5.683-10.097.008.994.142 2.003.411 3.008 1.715 6.401 8.295 10.2 14.697 8.485 6.401-1.715 10.2-8.295 8.485-14.697-.26-.97-.631-1.88-1.097-2.72z" fill-rule="evenodd"/><path clip-rule="evenodd" d="m1048.24 365.975c-1.36-2.196-4.04-3.342-6.66-2.64l-40.57 10.87c-2.616.702-4.364 3.034-4.442 5.612l29.292 5.995zm8.46 30.58-6.51-24.288-22.59 20.027-29.574-6.051 6.514 24.289c.85 3.2 4.14 5.1 7.34 4.242l40.57-10.87c3.2-.858 5.1-4.148 4.25-7.349z" fill-rule="evenodd"/><g clip-path="url(#A)"><path d="m60.9006 725.495-15.0573 13.352 19.716 4.034 15.0573-13.352z"/><path d="m52.896 743.352 13.5314 2.769 10.3341-9.164 6.1846 1.266-15.0573 13.352-19.716-4.035z"/><path d="m55.2253 752.045 13.5315 2.769 10.3341-9.163 6.1846 1.265-15.0573 13.352-19.7161-4.034z"/></g><path clip-rule="evenodd" d="m170.447 705.459-11.022-6.364-6.364 11.023 5.795-1.553 4.659 17.387 5.796-1.553-4.659-17.387zm-12.159 12.576-1.553-5.796-8.693 2.33 6.211 23.182 28.978-7.765-6.212-23.182-8.693 2.329 1.553 5.796 2.898-.777 3.106 11.592-17.387 4.658-3.106-11.591z" fill-rule="evenodd"/><path d="m243.669 688.945 6.211 23.183 11.591-3.106-2.329-8.694 11.591-3.105 2.329 8.693 11.592-3.106-6.212-23.182-20.493-6.932z"/><path clip-rule="evenodd" d="m371.739 645.311c-.429-1.6-2.074-2.55-3.674-2.121s-2.55 2.074-2.121 3.674l-17.387 4.659c-.429-1.6-2.074-2.55-3.674-2.121-1.601.429-2.55 2.074-2.122 3.674l-2.897.776 8.541 31.876 34.773-9.317-8.541-31.876zm-19.092 33.069-3.882-14.489 23.182-6.212 3.883 14.489z" fill-rule="evenodd"/><path clip-rule="evenodd" d="m473.938 621.033c-.858-3.201-4.148-5.1-7.349-4.242l-23.182 6.211c-3.201.858-5.1 4.148-4.243 7.349l4.659 17.386c.858 3.201 4.148 5.101 7.349 4.243l2.897-.776-1.552-5.796.321-.514c1.476-2.181 4.008-3.752 7.595-4.713 3.864-1.035 7.021-.846 9.47.568l1.553 5.796 10.246 3.466zm-21.629 12.007c-.858-3.2 1.041-6.49 4.242-7.348s6.491 1.042 7.349 4.243c.857 3.2-1.042 6.49-4.243 7.348s-6.491-1.042-7.348-4.243z" fill-rule="evenodd"/><g clip-path="url(#B)"><path d="m562.216 591.168 11.023 6.363-6.364 11.023-1.553-5.795-2.99.801-9.83 21.269-8.601 2.304-1.553-5.795 5.887-1.578 9.83-21.269 5.704-1.528z"/><path d="m569.981 620.145 1.552 5.796 6.364-11.023-11.022-6.364 1.553 5.796-2.99.801-3.89-2.744-2.559 5.537 5.288 3.73z"/><path d="m551.578 605.376-2.559 5.537-3.89-2.744-5.887 1.578-1.553-5.796 8.602-2.305z"/></g><path clip-rule="evenodd" d="m672.151 572.581-20.104-5.484-14.669 14.801 20.104 5.484 9.78-9.867 1.811 6.761.11.333c.554 1.396 2.079 2.186 3.565 1.788 1.6-.429 2.55-2.074 2.121-3.674zm-13.77 18.156-13.405-3.656 2.468 9.202.752.508c4.019 2.591 8.15 3.319 12.392 2.182 4.508-1.208 7.854-4.175 10.038-8.901l-.21-.777c-.393-.105-.773-.251-1.135-.432-1.339-.672-2.421-1.842-2.957-3.336l-.598-2.204z" fill-rule="evenodd"/><path clip-rule="evenodd" d="m734.738 551.152c-.858-3.201 1.042-6.491 4.243-7.348l23.182-6.212c3.201-.858 6.491 1.042 7.348 4.243l6.212 23.182c.858 3.201-1.042 6.491-4.243 7.348l-23.182 6.212c-3.201.858-6.491-1.042-7.348-4.243zm21.269 9.83c8.693-2.329 12.756 1.241 12.756 1.241l1.164 4.347-23.182 6.211-1.165-4.346s1.734-5.123 10.427-7.453zm3.466-10.246c.858 3.201-1.042 6.491-4.243 7.348-3.2.858-6.49-1.041-7.348-4.242s1.042-6.491 4.243-7.349c3.2-.857 6.49 1.042 7.348 4.243z" fill-rule="evenodd"/><g clip-path="url(#C)"><path d="m868.036 515.435c.857 3.201-1.042 6.491-4.243 7.349-3.201.857-6.491-1.042-7.348-4.243-.858-3.201 1.041-6.491 4.242-7.349 3.201-.857 6.491 1.042 7.349 4.243z"/><path d="m873.471 535.72c-1.296.347-1.881.149-2.981-.223l-.016-.006c-1.451-.49-3.429-1.156-6.473-.34s-4.424 2.381-5.435 3.531l-.012.013c-.766.872-1.174 1.336-2.47 1.683-1.296.348-1.88.15-2.981-.222l-.016-.006c-1.451-.491-3.428-1.156-6.473-.34-3.044.816-4.424 2.38-5.435 3.531l-.011.013c-.767.872-1.174 1.336-2.47 1.683l1.553 5.796c3.044-.816 4.424-2.381 5.435-3.531l.011-.013c.767-.873 1.174-1.336 2.47-1.684 1.296-.347 1.881-.149 2.981.223l.016.006c1.451.49 3.429 1.156 6.473.34 3.045-.816 4.424-2.381 5.436-3.531l.011-.013c.767-.872 1.174-1.336 2.47-1.683 1.296-.348 1.881-.15 2.981.222l.016.006c1.451.491 3.428 1.156 6.473.34z"/><path d="m832.486 521.855 6.79-1.82c3.074-.823 6.349-.392 9.106 1.199l16.037 9.259c-.493.06-1.02.161-1.583.311-3.044.816-4.424 2.381-5.435 3.531l-.011.013c-.767.873-1.174 1.336-2.47 1.684-1.296.347-1.881.149-2.981-.223l-.017-.006c-1.45-.49-3.428-1.156-6.472-.34-3.045.816-4.425 2.381-5.436 3.531l-.011.013c-.265.302-.488.555-.719.771l7.122-12.336-1.522-.878c-1.378-.796-3.014-1.012-4.551-.6l-6.294 1.686z"/></g><path clip-rule="evenodd" d="m969.666 500.627c-6.193-7.658-13.153-10.452-20.881-8.382-7.727 2.071-12.358 7.97-13.893 17.699 6.194 7.658 13.154 10.452 20.881 8.381 7.728-2.07 12.358-7.97 13.893-17.698zm-26.231 2.436.349-.538.041.177.188.65c1.258 3.713 5.202 5.86 9.043 4.831 4.001-1.072 6.375-5.185 5.303-9.186l-.103-.345c1.554.731 3.087 1.849 4.625 3.381l.317.327-.111.441c-1.49 5.516-4.378 8.526-8.867 9.729l-.582.143c-4.255.953-8.088-.278-11.961-4.135l-.32-.326.114-.442c.497-1.839 1.149-3.4 1.964-4.707z" fill-rule="evenodd"/></g><g clip-path="url(#D)"><path d="m71.2581 822.106c-.4288-1.601.5209-3.246 2.1213-3.674 1.6004-.429 3.2455.521 3.6743 2.121l.7764 2.898 5.7956-1.553-.7765-2.898c-1.2864-4.801-6.2215-7.65-11.0227-6.364-4.8012 1.287-7.6504 6.222-6.3639 11.023l3.107 11.595-5.7955 1.553 15.3416 17.298c1.5075 1.7 3.846 2.402 6.0407 1.815l21.8156-5.842c2.196-.587 3.87-2.366 4.326-4.592l4.636-22.655-40.5688 10.871z" fill="#352c15"/></g><g clip-path="url(#E)"><path clip-rule="evenodd" d="m189.355 783.394-8.189-3.161-5.511 6.832-8.484 2.256-.443 8.767-5.537 6.812 4.795 7.353-.476 8.765 8.201 3.13 4.767 7.371 8.475-2.288 8.189 3.162 5.511-6.833 8.484-2.256.443-8.767 5.537-6.811-4.795-7.353.476-8.765-8.201-3.131-4.767-7.371zm6.542 10.253 5.196 3-12.731 22.034-12.86-7.425 3-5.196 7.678 4.478z" fill="#352c15" fill-rule="evenodd"/></g><path clip-rule="evenodd" d="m290.713 760.197c9.602-2.573 19.472 3.126 22.045 12.728 2.573 9.603-3.126 19.473-12.728 22.046-3.167.848-6.363.797-9.316.003-2.16 2.163-4.903 3.807-8.071 4.655-9.602 2.573-19.472-3.125-22.045-12.727-2.573-9.603 3.125-19.473 12.728-22.046 3.168-.849 6.365-.797 9.32-.002 2.158-2.166 4.9-3.808 8.067-4.657zm-15.834 10.455c-6.402 1.715-10.201 8.295-8.485 14.697 1.715 6.401 8.295 10.2 14.696 8.485 1.355-.363 2.593-.944 3.687-1.695-3.216-2.34-5.683-5.755-6.792-9.896-1.11-4.141-.681-8.332.936-11.966-1.325-.104-2.688.012-4.042.375zm13.7-2.964c1.094-.751 2.332-1.332 3.686-1.695 6.402-1.715 12.982 2.084 14.697 8.485 1.716 6.402-2.083 12.982-8.485 14.697-1.355.363-2.717.479-4.042.375 1.617-3.634 2.046-7.825.936-11.966-1.109-4.141-3.576-7.556-6.792-9.896z" fill="#352c15" fill-rule="evenodd"/><g clip-path="url(#F)" fill="#352c15"><path d="m365.49 749.491-9.189-5.315 3-5.196 3.992 2.313 6.543-11.348 5.196 3z"/><path d="m405.847 726.241-26.08 6.988 1.553 5.796 26.08-6.988z"/><path d="m365.618 778.949 9.189 5.316 9.543-16.547-5.196-3-6.543 11.348-3.993-2.313z"/><path d="m370.149 766.878-9.189-5.316 3-5.196 3.992 2.314 6.543-11.348 5.196 3z"/><path d="m389.085 768.002 26.08-6.988 1.553 5.796-26.08 6.988z"/><path d="m410.506 743.628-26.08 6.988 1.553 5.795 26.08-6.988z"/></g><path clip-rule="evenodd" d="m503.188 717.276c2.459-5.616.355-12.18-4.967-15.253-5.74-3.314-13.079-1.347-16.392 4.392l-4.962 8.588c2.368-1.004 4.976-1.394 7.563-1.1l2.595-4.488.278-.437c1.763-2.529 5.199-3.329 7.918-1.759 2.756 1.591 3.786 5.056 2.365 7.883l-.211.389-7.458 12.915-.278.437c-1.247 1.789-3.332 2.713-5.408 2.544l-.517-.065c-.459-.078-.914-.211-1.356-.401-.216-.092-.429-.199-.637-.319l-.39-.249-.493-.372c-.541-.459-.987-1.002-1.327-1.598l-3.212 5.574c.533.524 1.121 1.005 1.763 1.432l.659.409c.305.176.615.337.927.484l.162.074.663.275.601.21.411.123.624.157c4.982 1.112 10.317-1.061 13.004-5.715l7.5-12.991.294-.541zm-16.805.101-.42-.126c-5.153-1.445-10.825.711-13.625 5.559l-7.5 12.99-.293.542-.281.598c-2.46 5.616-.356 12.18 4.967 15.253l.579.314c2.725 1.382 5.758 1.626 8.527.885l.589-.174c2.728-.882 5.151-2.739 6.697-5.418l4.961-8.587c-.644.273-1.306.501-1.981.681-1.805.484-3.7.633-5.584.419l-2.592 4.487-.278.438c-1.763 2.528-5.199 3.328-7.918 1.759-2.756-1.591-3.786-5.056-2.365-7.884l.211-.388 7.458-12.915.278-.437c1.226-1.759 3.263-2.682 5.304-2.552l.179.014.387.05.238.043.371.087.513.164c.316.117.625.261.926.435l.282.173.184.128.485.378c.51.446.933.968 1.258 1.539l3.213-5.573c-.318-.313-.656-.61-1.012-.889-.224-.176-.456-.344-.696-.506l-.175-.116-.539-.33-.598-.323-.287-.141-.603-.265z" fill="#352c15" fill-rule="evenodd"/><path clip-rule="evenodd" d="m608.331 693.727c-3.859-14.404-18.664-22.952-33.068-19.092-14.403 3.859-22.951 18.664-19.092 33.068 3.86 14.403 18.665 22.951 33.069 19.092 14.403-3.86 22.951-18.665 19.091-33.068zm-13.14-2.678-5.196-3-9.717 16.89-7.678-4.478-3 5.197 12.86 7.424z" fill="#352c15" fill-rule="evenodd"/><g clip-path="url(#G)" fill="#352c15"><path clip-rule="evenodd" d="m695.033 677.233c-1.028 4.193-1.986 8.105-.905 12.139l-17.387 4.659c-1.081-4.035-3.867-6.943-6.854-10.061-3.448-3.6-7.163-7.478-8.827-13.69-2.573-9.602 3.125-19.472 12.728-22.045 9.602-2.573 19.472 3.126 22.045 12.728 1.664 6.212.386 11.428-.8 16.27zm-28.178-8.505c-1.715-6.402 2.084-12.982 8.485-14.697 6.402-1.716 12.982 2.083 14.697 8.485 1.136 4.238.477 7.891-.597 12.326-.086.354-.177.722-.273 1.104-.194.778-.402 1.612-.599 2.493l-12.478 3.343c-.612-.663-1.209-1.282-1.767-1.859-.273-.283-.536-.556-.787-.819-3.148-3.304-5.545-6.139-6.681-10.376z" fill-rule="evenodd"/><path d="m681.968 701.948-1.553-5.796 11.591-3.105 1.553 5.795z"/></g><g clip-path="url(#H)" fill="#352c15"><path d="m768.223 675.73 15.395-53.818 6.759-1.811-15.395 53.818z"/><g clip-rule="evenodd" fill-rule="evenodd"><path d="m759.272 625.33c-5.601 1.501-8.925 7.258-7.425 12.86l.777 2.897c1.501 5.602 7.258 8.926 12.86 7.425 5.601-1.501 8.925-7.258 7.424-12.86l-.776-2.898c-1.501-5.601-7.259-8.925-12.86-7.424zm-1.629 11.307c-.643-2.401.781-4.868 3.182-5.512 2.401-.643 4.868.782 5.511 3.182l.777 2.898c.643 2.401-.782 4.868-3.182 5.511-2.401.644-4.868-.781-5.512-3.182z"/><path d="m793.117 647.319c-5.602 1.501-8.926 7.259-7.425 12.86l.777 2.898c1.5 5.601 7.258 8.926 12.859 7.425 5.602-1.501 8.926-7.259 7.425-12.86l-.777-2.898c-1.5-5.601-7.258-8.925-12.859-7.425zm-1.629 11.307c-.644-2.4.781-4.868 3.182-5.511 2.4-.643 4.868.781 5.511 3.182l.776 2.898c.644 2.4-.781 4.868-3.182 5.511-2.4.643-4.868-.781-5.511-3.182z"/></g></g><g clip-path="url(#I)"><path clip-rule="evenodd" d="m903.905 614.528c3.859 14.404-4.688 29.209-19.092 33.068-14.404 3.86-29.209-4.688-33.068-19.092-3.859-14.403 4.688-29.208 19.092-33.068 14.403-3.859 29.209 4.688 33.068 19.092zm-37.103.624c-1.286-4.801 1.563-9.736 6.364-11.023 4.801-1.286 9.736 1.563 11.023 6.364l-5.796 1.553c-.428-1.6-2.073-2.55-3.674-2.121-1.6.429-2.55 2.074-2.121 3.674.384 1.435 1.059 2.234 2.154 3.469l.061.069c.434.489.926 1.043 1.409 1.703l6.622-1.775 1.553 5.796-5.842 1.565c.385 1.907.58 4.067.349 6.118l9.944-2.664 1.553 5.796-17.387 4.658-1.553-5.795c.562-.151 1.148-.595 1.423-2.249.209-1.257.132-2.8-.139-4.307l-5.735 1.537-1.553-5.796 4.369-1.17c-1.065-1.222-2.34-2.851-3.024-5.402z" fill="#352c15" fill-rule="evenodd"/></g><g clip-path="url(#J)" fill="#352c15"><path d="m944.834 581.82 31.876-8.541 1.552 5.796-31.875 8.541z"/><path d="m991.406 581.765-43.466 11.646 1.553 5.796 43.466-11.647z"/><path d="m988.717 594.909-37.671 10.094 1.553 5.795 37.671-10.094z"/><path d="m1006.31 602.617-52.159 13.977 1.553 5.795 52.156-13.976z"/></g><path d="m101.797 907.098c3.84-1.029 7.784 1.118 9.042 4.831l.143.472.388 1.449-5.795 1.553-.388-1.449c-.215-.8-1.037-1.275-1.838-1.06-.711.19-1.165.861-1.107 1.57l.047.267 2.719 10.146 26.08-6.988-3.031 13.052c-.501 2.159-2.152 3.866-4.293 4.439l-12.364 3.311c-2.14.573-4.422-.08-5.935-1.698l-9.1507-9.786 2.8977-.777-2.7188-10.146c-1.072-4.001 1.3023-8.114 5.3038-9.186z" fill="#352c15"/><g clip-path="url(#K)"><path clip-rule="evenodd" d="m214.104 881.867-6.539-3.11-4.107 5.963-6.822 2.424 1.311 7.12-3.11 6.539 5.963 4.107 2.424 6.822 7.121-1.311 6.538 3.11 4.107-5.963 6.823-2.424-1.312-7.12 3.11-6.539-5.963-4.107-2.424-6.823zm-2.445 23.759-9.189-5.316 3-5.196 3.992 2.313 6.543-11.348 5.196 3z" fill="#352c15" fill-rule="evenodd"/></g><path clip-rule="evenodd" d="m313.438 856.6c6.402-1.715 12.982 2.084 14.697 8.486 1.715 6.401-2.084 12.981-8.485 14.697-2.112.565-4.242.531-6.212.002-1.438 1.442-3.267 2.537-5.379 3.104-6.402 1.715-12.982-2.084-14.697-8.486-1.716-6.401 2.083-12.981 8.485-14.697 2.113-.566 4.245-.531 6.215-.001 1.436-1.444 3.265-2.539 5.376-3.105zm-10.038 8.902c-3.201.858-5.1 4.148-4.243 7.348.858 3.201 4.148 5.101 7.349 4.243.501-.134.971-.328 1.402-.572-1.372-1.415-2.41-3.188-2.955-5.224-.546-2.035-.534-4.089-.057-5.999-.491.003-.995.07-1.496.204zm10.188-2.534c.432-.244.902-.438 1.403-.572 3.201-.858 6.491 1.042 7.348 4.243.858 3.2-1.041 6.49-4.242 7.348-.502.134-1.005.201-1.496.204.476-1.91.488-3.964-.057-5.999-.546-2.036-1.583-3.809-2.956-5.224z" fill="#352c15" fill-rule="evenodd"/><g clip-path="url(#L)" fill="#352c15"><path d="m400.583 845.686-9.189-5.315 3-5.196 3.992 2.313 6.543-11.348 5.196 3z"/><path d="m405.242 863.073-9.189-5.316 3-5.196 3.992 2.314 6.543-11.348 5.196 3z"/><path d="m408.925 837.226 16.182-4.336-1.553-5.795-10.392 2.784z"/><path d="m429.765 850.277-16.181 4.336 4.237-7.347 10.391-2.784z"/></g><path clip-rule="evenodd" d="m522.501 812.463c2.479-4.933.706-11.004-4.137-13.8-5.022-2.9-11.443-1.179-14.343 3.843l-1.868 3.233c2.318-.891 4.867-1.14 7.352-.671 1.344-1.809 3.861-2.363 5.859-1.209 1.999 1.154 2.778 3.61 1.883 5.678l-.093.202-.142.267-4.5 7.794-.251.387c-1.077 1.495-2.945 2.157-4.687 1.743l-.305-.085-.494-.188-.411-.21-.434-.285c-.276-.204-.522-.435-.738-.688l-3.074 5.327c.39.306.805.588 1.246.843l.471.256.568.27.314.132c4.771 1.913 10.346.079 12.991-4.502l4.5-7.794zm-11.294-3.742-.314-.132c-4.771-1.913-10.346-.079-12.991 4.502l-4.5 7.794-.293.543c-2.48 4.933-.707 11.004 4.136 13.8 5.022 2.9 11.444 1.179 14.343-3.843l1.869-3.234c-2.318.891-4.868 1.141-7.353.672-1.344 1.809-3.86 2.363-5.859 1.209s-2.777-3.61-1.882-5.678l.092-.202.143-.267 4.5-7.794.25-.387c1.078-1.495 2.946-2.157 4.688-1.743l.305.084.494.188.41.21.435.286c.275.204.522.435.738.688l3.073-5.327c-.389-.306-.805-.588-1.246-.843-.155-.089-.312-.175-.47-.256l-.128-.064z" fill="#352c15" fill-rule="evenodd"/><path clip-rule="evenodd" d="m623.708 785.887c2.573 9.602-3.125 19.473-12.727 22.045-9.603 2.573-19.473-3.125-22.046-12.727-2.573-9.603 3.126-19.473 12.728-22.046s19.472 3.126 22.045 12.728zm-17.951 14.141-9.189-5.316 3-5.196 3.992 2.313 6.543-11.348 5.196 3z" fill="#352c15" fill-rule="evenodd"/><path clip-rule="evenodd" d="m713.887 765.312c-.754 2.16-1.424 4.078-.916 5.975l-11.591 3.106c-.508-1.898-2.047-3.223-3.781-4.717-2.239-1.928-4.803-4.137-5.897-8.219-1.715-6.402 2.084-12.982 8.486-14.697 6.401-1.716 12.981 2.083 14.696 8.485 1.094 4.082-.022 7.278-.997 10.067zm-16.389-5.408c-.858-3.201 1.042-6.491 4.242-7.349 3.201-.857 6.491 1.042 7.349 4.243.504 1.88.198 3.411-.554 5.632-.067.198-.148.43-.237.685-.337.961-.793 2.264-1.078 3.438l-.016.067-3.163.848-.047-.05c-.833-.875-1.88-1.775-2.652-2.439-.205-.176-.391-.336-.549-.475-1.761-1.548-2.791-2.72-3.295-4.6z" fill="#352c15" fill-rule="evenodd"/><path d="m715.301 779.98-1.553-5.795-11.591 3.105 1.552 5.796z" fill="#352c15"/><g clip-path="url(#M)" fill="#352c15"><path d="m794.757 758.69 10.553-40.098 6.675-1.788-10.553 40.097z"/><g clip-rule="evenodd" fill-rule="evenodd"><path d="m788.57 723.078c-4.001 1.072-6.375 5.184-5.303 9.185l.776 2.898c1.072 4.001 5.185 6.376 9.186 5.303 4.001-1.072 6.375-5.184 5.303-9.185l-.776-2.898c-1.073-4.001-5.185-6.375-9.186-5.303zm.492 7.632c-.214-.8.261-1.622 1.061-1.837.8-.214 1.623.261 1.837 1.061l.776 2.898c.215.8-.26 1.622-1.06 1.837-.8.214-1.623-.261-1.837-1.061z"/><path d="m813.513 735.029c-4.001 1.072-6.375 5.185-5.303 9.186l.776 2.898c1.072 4.001 5.185 6.375 9.186 5.303s6.375-5.185 5.303-9.186l-.776-2.897c-1.072-4.001-5.185-6.376-9.186-5.304zm.492 7.633c-.214-.8.261-1.623 1.061-1.837.8-.215 1.623.26 1.837 1.06l.777 2.898c.214.8-.261 1.623-1.061 1.837-.8.215-1.623-.26-1.837-1.06z"/></g></g><g clip-path="url(#N)"><path clip-rule="evenodd" d="m919.282 706.688c2.573 9.603-3.126 19.473-12.728 22.046s-19.472-3.126-22.045-12.728 3.125-19.473 12.728-22.045c9.602-2.573 19.472 3.125 22.045 12.727zm-13.144-2.689c-.858-3.201-4.148-5.101-7.349-4.243-3.2.858-5.1 4.148-4.242 7.349.507 1.891 1.825 3.048 2.791 3.895l.087.077c.486.428.886.789 1.201 1.146l-2.526.677.776 2.898 2.883-.773c.284 1.193.524 2.506.489 3.694-.025.834-.185 1.473-.457 1.925-.245.406-.634.754-1.362.949l.777 2.898 11.591-3.106-.777-2.897-6.951 1.862c.11-.517.163-1.038.177-1.542.047-1.57-.266-3.226-.587-4.56l2.91-.779-.776-2.898-3.085.826c-.628-1.104-1.514-1.882-2.215-2.497l-.088-.076c-1.059-.931-1.706-1.548-1.96-2.496-.429-1.6.52-3.245 2.121-3.674 1.6-.429 3.245.521 3.674 2.121z" fill="#352c15" fill-rule="evenodd"/></g><path clip-rule="evenodd" d="m1012.58 672.372-1.55-5.795-31.88 8.541 1.553 5.795zm4.45 5.019 1.55 5.796-34.771 9.317-1.553-5.795zm-11.38 15.474 1.55 5.795-20.285 5.435-1.553-5.795z" fill="#352c15" fill-rule="evenodd"/><g clip-path="url(#O)"><path clip-rule="evenodd" d="m237.495 963.056-8.189-3.161-5.511 6.833-8.484 2.255-.442 8.767-5.538 6.812 4.795 7.353-.476 8.765 8.201 3.13 4.767 7.37 8.475-2.29 8.189 3.17 5.512-6.84 8.483-2.25.443-8.77 5.537-6.812-4.795-7.353.476-8.765-8.201-3.13-4.767-7.372zm6.543 10.254 5.196 3-12.732 22.033-12.859-7.425 3-5.196 7.678 4.478z" fill="#352c15" fill-rule="evenodd"/></g><g clip-path="url(#P)"><path clip-rule="evenodd" d="m308.739 966.564c-3.86-14.404 4.688-29.209 19.091-33.068 14.404-3.86 29.209 4.688 33.069 19.091 3.859 14.404-4.689 29.209-19.092 33.069-14.404 3.859-29.209-4.689-33.068-19.092zm5.795-1.553c-.698-2.608-.874-5.232-.592-7.761 2.356 1.2 6.501 3.072 8.509 2.534l5.796-1.553c2.897-.777 3.764-3.338 4.63-5.9.867-2.561 1.734-5.123 4.631-5.899 1.449-.389 2.51-2.226 2.122-3.675l-1.03-3.843c7.725 1.419 14.335 7.135 16.503 15.226 1.155 4.31.881 8.666-.53 12.566l-5.057 1.355c-1.666.446-3-1.658-4.297-3.703-1.227-1.934-2.42-3.815-3.828-3.438l-11.592 3.106c-5.225 1.4-.978 5.101 2.658 8.27 1.814 1.581 3.476 3.029 3.734 3.994l1.11 4.141c-10.207 1.228-20.029-5.201-22.767-15.42z" fill="#352c15" fill-rule="evenodd"/></g><g clip-path="url(#Q)"><path clip-rule="evenodd" d="m432.151 905.543 18.371 10.607 10.094 37.671-40.569 10.87-13.976-52.16zm-7.862 51.8 28.978-7.765-7.764-28.977-11.591 3.105-3.106-11.591-17.387 4.659z" fill="#352c15" fill-rule="evenodd"/></g><path clip-rule="evenodd" d="m551.328 896.938c2.46-5.616.356-12.18-4.967-15.253-5.739-3.314-13.078-1.347-16.392 4.392l-4.961 8.588c2.367-1.003 4.976-1.393 7.562-1.1l2.595-4.488.278-.437c1.763-2.528 5.2-3.328 7.918-1.759 2.756 1.591 3.786 5.056 2.365 7.884l-.211.388-7.458 12.915-.278.437c-1.247 1.789-3.332 2.713-5.408 2.544l-.516-.065c-.459-.078-.915-.21-1.357-.4-.215-.093-.428-.2-.637-.32l-.39-.249-.493-.372c-.541-.459-.986-1.001-1.326-1.598l-3.213 5.574c.533.525 1.122 1.005 1.763 1.432l.659.409c.305.176.615.337.928.484l.161.074.664.275.6.21.412.123.624.158c4.982 1.112 10.316-1.062 13.004-5.716l7.5-12.991.293-.541zm-16.804.101-.421-.126c-5.153-1.445-10.825.711-13.624 5.559l-7.5 12.991-.294.541-.281.598c-2.459 5.616-.355 12.18 4.967 15.253l.579.314c2.726 1.383 5.758 1.627 8.527.885l.589-.174c2.728-.882 5.151-2.739 6.697-5.417l4.961-8.587c-.644.272-1.306.5-1.98.681-1.806.483-3.701.632-5.584.418l-2.593 4.488-.278.437c-1.763 2.529-5.199 3.328-7.918 1.759-2.755-1.591-3.786-5.056-2.365-7.884l.211-.388 7.458-12.915.278-.437c1.226-1.759 3.263-2.682 5.304-2.552l.18.015.387.049.237.043.372.088.513.163c.315.117.624.262.925.435l.282.173.184.129.485.378c.511.446.933.968 1.259 1.539l3.212-5.574c-.318-.313-.655-.61-1.012-.889-.224-.176-.455-.344-.696-.506l-.174-.116-.54-.33-.597-.323-.288-.141-.602-.265z" fill="#352c15" fill-rule="evenodd"/><g clip-path="url(#R)"><path clip-rule="evenodd" d="m656.472 873.389 3.882 14.489c.858 3.201-1.042 6.491-4.243 7.348l-40.569 10.871c-3.2.857-6.49-1.042-7.348-4.243l-3.882-14.489.36-21.837 40.569-10.871zm-46.133 12.361 14.257-3.82.777 2.898c.857 3.201 4.147 5.1 7.348 4.242 3.201-.857 5.1-4.147 4.243-7.348l-.777-2.898 14.257-3.82-8.022-13.38-31.825 8.528z" fill="#352c15" fill-rule="evenodd"/></g><g clip-path="url(#S)" fill="#352c15"><path clip-rule="evenodd" d="m743.173 856.895c-1.027 4.193-1.986 8.105-.905 12.14l-17.387 4.658c-1.081-4.034-3.867-6.943-6.853-10.061-3.449-3.599-7.164-7.478-8.828-13.689-2.573-9.603 3.126-19.473 12.728-22.046s19.472 3.126 22.045 12.728c1.665 6.212.387 11.428-.8 16.27zm-28.177-8.505c-1.716-6.402 2.083-12.982 8.485-14.697 6.401-1.715 12.981 2.084 14.697 8.485 1.135 4.238.476 7.891-.598 12.327-.085.353-.177.721-.272 1.103-.194.778-.402 1.613-.6 2.493l-12.478 3.344c-.611-.664-1.209-1.283-1.766-1.86-.273-.283-.537-.555-.788-.819-3.148-3.304-5.545-6.139-6.68-10.376z" fill-rule="evenodd"/><path d="m730.109 881.61-1.553-5.795 11.591-3.106 1.553 5.795z"/></g><path clip-rule="evenodd" d="m831.475 807.862c9.603-2.573 19.473 3.125 22.046 12.728 2.573 9.602-3.126 19.472-12.728 22.045-3.167.849-6.363.798-9.317.004-2.159 2.163-4.902 3.806-8.07 4.655-9.602 2.573-19.472-3.126-22.045-12.728s3.125-19.472 12.728-22.045c3.168-.849 6.365-.798 9.319-.003 2.158-2.165 4.9-3.807 8.067-4.656zm-15.834 10.454c-6.401 1.716-10.2 8.296-8.485 14.697 1.716 6.402 8.296 10.201 14.697 8.485 1.355-.363 2.593-.943 3.687-1.694-3.216-2.34-5.683-5.755-6.793-9.897-1.109-4.141-.681-8.332.936-11.966-1.324-.104-2.687.012-4.042.375zm13.7-2.964c1.094-.751 2.332-1.331 3.687-1.694 6.402-1.716 12.982 2.083 14.697 8.485 1.715 6.401-2.084 12.981-8.485 14.697-1.355.363-2.718.479-4.042.375 1.617-3.634 2.046-7.825.936-11.966-1.11-4.142-3.577-7.557-6.793-9.897z" fill="#352c15" fill-rule="evenodd"/><g clip-path="url(#T)"><path d="m934.067 787.36c.069-1.24-.055-2.512-.394-3.776-1.715-6.402-8.295-10.201-14.697-8.486-6.401 1.716-10.2 8.296-8.485 14.697.339 1.265.868 2.428 1.547 3.467-3.333 2.497-4.992 6.857-3.848 11.126 1.5 5.602 7.258 8.926 12.859 7.425 1.556-.417 2.936-1.162 4.086-2.141l3.367 12.567-17.387 4.659 1.553 5.796 40.569-10.871-1.553-5.795-17.387 4.658-3.367-12.567c1.485.273 3.053.228 4.608-.188 5.602-1.501 8.926-7.259 7.425-12.86-1.144-4.269-4.761-7.216-8.896-7.711z" fill="#352c15"/></g><g clip-path="url(#U)" fill="#352c15"><path d="m1022.94 768.983-1.56-5.795-5.79 1.553 1.55 5.795-5.79 1.553 1.55 5.796 5.79-1.553 1.56 5.795 5.79-1.553-1.55-5.795 5.79-1.553-1.55-5.796z"/><path clip-rule="evenodd" d="m1026.25 792.942c-11.2 3.002-22.72-3.646-25.72-14.849-3.001-11.203 3.65-22.718 14.85-25.72s22.72 3.647 25.72 14.849c1.22 4.557.84 9.165-.78 13.231l12.47 7.199-3 5.195-12.47-7.2c-2.71 3.444-6.51 6.074-11.07 7.295zm-19.92-16.402c2.14 8.002 10.37 12.751 18.37 10.606 8-2.144 12.75-10.369 10.6-18.371-2.14-8.002-10.37-12.75-18.37-10.606s-12.75 10.369-10.6 18.371z" fill-rule="evenodd"/></g><path clip-rule="evenodd" d="m671.849 965.549 3.106 11.591c.428 1.6-.521 3.245-2.122 3.674l-28.978 7.765c-1.6.429-3.245-.521-3.674-2.121l-3.106-11.592.465-15.653 26.08-6.988zm-28.723 7.696 6.989-1.873.389 1.449c.643 2.401 3.11 3.826 5.511 3.182 2.401-.643 3.825-3.11 3.182-5.511l-.388-1.449 6.989-1.873-4.937-7.994-17.456 4.677z" fill="#352c15" fill-rule="evenodd"/><path clip-rule="evenodd" d="m762.028 944.974c-.755 2.161-1.425 4.078-.916 5.975l-11.592 3.106c-.508-1.897-2.046-3.223-3.781-4.716-2.238-1.929-4.803-4.138-5.896-8.22-1.716-6.402 2.083-12.982 8.485-14.697s12.982 2.084 14.697 8.485c1.094 4.083-.023 7.278-.997 10.067zm-16.39-5.408c-.857-3.201 1.042-6.491 4.243-7.348 3.201-.858 6.491 1.041 7.348 4.242.504 1.88.198 3.411-.553 5.632-.067.199-.148.43-.238.686-.337.961-.793 2.263-1.077 3.438l-.016.067-3.163.847-.048-.05c-.833-.875-1.88-1.774-2.652-2.438-.205-.177-.391-.337-.548-.475-1.762-1.548-2.792-2.721-3.296-4.601z" fill="#352c15" fill-rule="evenodd"/><path d="m763.441 959.642-1.553-5.795-11.591 3.106 1.553 5.795z" fill="#352c15"/><path clip-rule="evenodd" d="m854.201 904.265c6.401-1.715 12.981 2.084 14.697 8.485 1.715 6.402-2.084 12.982-8.486 14.697-2.111.566-4.242.532-6.211.002-1.438 1.442-3.267 2.538-5.38 3.104-6.401 1.715-12.981-2.084-14.697-8.485-1.715-6.402 2.084-12.982 8.486-14.697 2.112-.566 4.244-.532 6.214-.001 1.437-1.444 3.265-2.539 5.377-3.105zm-10.038 8.901c-3.201.858-5.101 4.148-4.243 7.349s4.148 5.1 7.348 4.243c.502-.135.971-.329 1.403-.573-1.373-1.415-2.41-3.187-2.956-5.223-.545-2.036-.533-4.089-.057-5.999-.49.002-.994.069-1.495.203zm10.188-2.533c.432-.244.901-.438 1.403-.572 3.2-.858 6.491 1.041 7.348 4.242.858 3.201-1.042 6.491-4.242 7.349-.502.134-1.005.201-1.496.203.476-1.909.488-3.963-.057-5.999-.546-2.036-1.583-3.808-2.956-5.223z" fill="#352c15" fill-rule="evenodd"/><g clip-path="url(#V)"><path d="m954.819 880.939c.006-.664-.077-1.34-.257-2.013-1.072-4.001-5.184-6.375-9.185-5.303s-6.376 5.184-5.304 9.185c.181.673.447 1.3.784 1.873-2.416 1.776-3.624 4.914-2.801 7.985 1.072 4.001 5.185 6.376 9.186 5.304.496-.133.967-.313 1.41-.533l1.591 5.94-11.591 3.106 1.553 5.795 28.978-7.764-1.553-5.796-11.591 3.106-1.592-5.94c.494-.031.992-.111 1.488-.244 4.001-1.072 6.375-5.184 5.303-9.185-.823-3.072-3.438-5.185-6.419-5.516z" fill="#352c15"/></g></g></svg>